<style>
    #visa .cls-1{fill:#0066b2;}
    #visa .cls-2{fill:#f9a533;}

    #paypal .cls-1{fill:#253b80;}
    #paypal .cls-2{fill:#179bd7;}
    #paypal .cls-3{fill:#222d65;}

    #maestro .cls-1{fill:#ec1c2e;}
    #maestro .cls-2{fill:#0084c4;}
    #maestro .cls-3{fill:#fff;}
    #maestro .cls-4{fill:none;stroke:#fff;stroke-width:0.21px;}

    #bancontact .cls-1{fill:#005092;}
    #bancontact .cls-2{fill:#fd0;}

    #americanexpress .cls-1{fill:#2fabf7;}
    #americanexpress .cls-2{fill:#228fe0;}
    #americanexpress .cls-3{fill:#0571c1;}

    #mastercard .cls-1{fill:#fff;}
    #mastercard .cls-2{fill:#ff5f00;}
    #mastercard .cls-3{fill:#eb001b;}
    #mastercard .cls-4{fill:#f79e1b;}

    #ideal .cls-1{fill:#cd0067;}
    #ideal .cls-2{fill:#fff;}

    #transfer .cls-1{fill:#e7e8e3;}
    #transfer .cls-2{fill:#006e90;}
    #transfer .cls-3{fill:#66cde7;}

    #qrcode .cls-1{fill:#fff;}
    #qrcode .cls-2{fill:none;}

    #kbc-mobile .cls-1, #cbc-mobile .cls-1{fill:#009ee2;}
    #kbc-mobile .cls-2, #cbc-mobile .cls-2{fill:#fff;}

    #wallet .cls-1{fill:url(#linear-gradient);}
    #wallet .cls-2{fill:url(#linear-gradient-2);}
    #wallet .cls-3{fill:url(#linear-gradient-3);}
    #wallet .cls-4{fill:url(#linear-gradient-4);}
</style>
<svg class="ghost">
    <defs>
        <symbol id="visa">
            <path class="cls-1" d="M21.68 32.84h-4.08l2.55-15.67h4.08l-2.55 15.67zM14.17 17.17l-3.89 10.78-.46-2.32-1.37-7a1.75 1.75 0 0 0-1.94-1.41h-6.43l-.08.22a15.24 15.24 0 0 1 4.27 1.79l3.55 13.61h4.25l6.49-15.67zM46.26 32.84h3.74l-3.26-15.67h-3.28a1.88 1.88 0 0 0-1.88 1.17l-6.08 14.5h4.25l.85-2.33h5.19zm-4.49-5.54l2.14-5.87 1.21 5.87zM35.81 20.94l.58-3.37a11.79 11.79 0 0 0-3.67-.68c-2 0-6.83.89-6.83 5.19 0 4 5.64 4.1 5.64 6.23s-5.06 1.75-6.73.41l-.61 3.52a11.42 11.42 0 0 0 4.61.89c2.78 0 7-1.44 7-5.37 0-4.07-5.69-4.45-5.69-6.23s3.95-1.53 5.7-.59z"/>
            <path class="cls-2" d="M9.82 25.63l-1.37-7a1.75 1.75 0 0 0-1.94-1.41h-6.43l-.08.22a15.81 15.81 0 0 1 6.06 3 12.21 12.21 0 0 1 3.76 5.19z"/>
        </symbol>
        <symbol id="paypal">
            <path class="cls-1" d="M11.58 30.65h-2.74a.38.38 0 0 0-.38.32l-1.11 7.03a.23.23 0 0 0 .23.26h1.31a.38.38 0 0 0 .37-.26l.3-1.9a.38.38 0 0 1 .38-.32h.87a2.82 2.82 0 0 0 3.13-2.61 2.12 2.12 0 0 0-.35-1.77 2.55 2.55 0 0 0-2.01-.75zm.32 2.57c-.15 1-.9 1-1.63 1h-.42l.29-1.84a.23.23 0 0 1 .23-.19h.19c.5 0 1 0 1.21.28a.92.92 0 0 1 .13.75zM19.79 33.19h-1.31a.23.23 0 0 0-.23.19l-.06.37-.09-.13a1.87 1.87 0 0 0-1.55-.55 3 3 0 0 0-2.94 2.64 2.48 2.48 0 0 0 .49 2 2.06 2.06 0 0 0 1.66.67 2.52 2.52 0 0 0 1.82-.75l-.06.37a.23.23 0 0 0 .23.27h1.18a.38.38 0 0 0 .38-.32l.71-4.5a.23.23 0 0 0-.23-.26zm-1.79 2.56a1.47 1.47 0 0 1-1.53 1.25 1 1 0 0 1-1.09-1.28 1.47 1.47 0 0 1 1.47-1.27 1.11 1.11 0 0 1 .88.36 1.14 1.14 0 0 1 .27.94zM26.8 33.19h-1.33a.38.38 0 0 0-.32.17l-1.81 2.64-.77-2.58a.38.38 0 0 0-.37-.27h-1.3a.23.23 0 0 0-.22.3l1.46 4.27-1.37 1.98a.23.23 0 0 0 .19.36h1.32a.38.38 0 0 0 .31-.16l4.41-6.35a.23.23 0 0 0-.2-.36z"/><path class="cls-2" d="M31.17 30.65h-2.74a.38.38 0 0 0-.43.35l-1.11 7a.23.23 0 0 0 .23.26h1.41a.27.27 0 0 0 .26-.23l.32-2a.38.38 0 0 1 .38-.32h.87a2.82 2.82 0 0 0 3.13-2.61 2.11 2.11 0 0 0-.35-1.77 2.55 2.55 0 0 0-1.97-.68zm.32 2.57c-.15 1-.9 1-1.63 1h-.41l.29-1.84a.23.23 0 0 1 .23-.19h.19c.5 0 1 0 1.21.28a.92.92 0 0 1 .12.75zM39.38 33.19h-1.31a.23.23 0 0 0-.23.19l-.06.37-.09-.13a1.87 1.87 0 0 0-1.55-.55 3 3 0 0 0-2.94 2.64 2.48 2.48 0 0 0 .49 2 2.06 2.06 0 0 0 1.66.67 2.52 2.52 0 0 0 1.82-.75l-.06.37a.23.23 0 0 0 .23.27h1.18a.38.38 0 0 0 .38-.27l.71-4.5a.23.23 0 0 0-.23-.31zm-1.83 2.56a1.47 1.47 0 0 1-1.49 1.25 1 1 0 0 1-1.06-1.27 1.47 1.47 0 0 1 1.47-1.27 1.11 1.11 0 0 1 .88.36 1.13 1.13 0 0 1 .2.93zM40.93 30.84l-1.13 7.16a.23.23 0 0 0 .23.26h1.13a.38.38 0 0 0 .38-.32l1.11-7a.23.23 0 0 0-.23-.26h-1.26a.23.23 0 0 0-.23.16z"/><path class="cls-1" d="M21.7 27.45l.31-2h-4.01l2.3-14.68a.19.19 0 0 1 .06-.11.19.19 0 0 1 .12 0h5.62c1.86 0 3.15.39 3.82 1.15a2.63 2.63 0 0 1 .61 1.15 4.14 4.14 0 0 1 0 1.58v.45l.31.18a2.21 2.21 0 0 1 .64.49 2.26 2.26 0 0 1 .52 1.11 4.91 4.91 0 0 1-.07 1.68 5.93 5.93 0 0 1-.69 1.9 3.92 3.92 0 0 1-1.09 1.2 4.43 4.43 0 0 1-1.47.66 7.34 7.34 0 0 1-1.84.21h-.44a1.31 1.31 0 0 0-1.3 1.11v.18l-.55 3.5v.13a.11.11 0 0 1 0 .07h-.06z"/><path class="cls-2" d="M31.14 14.59q0 .16-.06.33c-.74 3.8-3.27 5.11-6.51 5.11h-1.64a.8.8 0 0 0-.79.68l-.84 5.35-.24 1.52a.42.42 0 0 0 .42.49h2.92a.7.7 0 0 0 .69-.59v-.15l.55-3.49v-.19a.7.7 0 0 1 .69-.59h.44c2.83 0 5-1.15 5.69-4.47a3.81 3.81 0 0 0-.59-3.36 2.79 2.79 0 0 0-.73-.64z"/><path class="cls-3" d="M30.37 14.28l-.37-.09-.37-.07a9.15 9.15 0 0 0-1.44-.12h-4.4a.7.7 0 0 0-.69.59l-.94 5.93v.17a.8.8 0 0 1 .79-.68h1.65c3.23 0 5.77-1.31 6.51-5.11 0-.11 0-.22.06-.33a4 4 0 0 0-.61-.26z"/><path class="cls-1" d="M23.1 14.61a.7.7 0 0 1 .69-.59h4.4a9.15 9.15 0 0 1 1.45.11l.37.07.35.09.17.05a4 4 0 0 1 .61.26 3.59 3.59 0 0 0-.76-3.23c-.84-.96-2.38-1.37-4.28-1.37h-5.62a.8.8 0 0 0-.79.68l-2.34 14.82a.48.48 0 0 0 .48.56h3.47l.87-5.52z"/>
        </symbol>
        <symbol id="maestro">
            <path class="cls-1" d="M34.95 40l.77-.02.76-.06.75-.09.74-.14.73-.16.72-.21.69-.23.69-.27.66-.3.65-.33.63-.36.61-.4.59-.42.57-.44.54-.47.53-.5.49-.52.47-.55.45-.57.42-.58.39-.62.36-.63.33-.64.3-.67.27-.68.24-.7.2-.71.17-.73.13-.74.09-.75.06-.77.02-.77-.02-.77-.06-.76-.09-.74-.13-.74-.17-.72-.2-.71-.24-.7-.27-.68-.3-.66-.33-.64-.36-.63-.39-.61-.42-.59-.45-.56-.47-.55-.49-.52-.53-.49-.54-.47-.57-.45-.59-.42-.61-.39-.63-.36-.65-.33-.66-.3-.69-.27-.69-.23-.72-.21-.73-.17-.74-.13-.75-.09-.76-.06-.77-.02-.78.02-.76.06-.75.09-.74.13-.73.17-.71.21-.7.23-.68.27-.67.3-.64.33-.63.36-.61.39-.59.42-.56.45-.54.47-.52.49-.5.52-.47.55-.45.56-.41.59-.39.61-.36.63-.33.64-.3.66-.27.68-.24.7-.19.71-.17.72-.14.74-.09.74-.06.76-.02.77.02.77.06.77.09.75.14.74.17.73.19.71.24.7.27.68.3.67.33.64.36.63.39.62.41.58.45.57.47.55.5.52.52.5.54.47.56.44.59.42.61.4.63.36.64.33.67.3.68.27.7.23.71.21.73.16.74.14.75.09.76.06.78.02z"/><path class="cls-2" d="M15.05 40l.78-.02.76-.06.75-.09.74-.14.73-.16.71-.21.7-.23.68-.27.66-.3.65-.33.63-.36.61-.4.58-.42.57-.44.54-.47.52-.5.5-.52.47-.55.44-.57.42-.58.39-.62.36-.63.33-.64.3-.67.27-.68.24-.7.19-.71.17-.73.13-.74.1-.75.06-.77.02-.77-.02-.77-.06-.76-.1-.74-.13-.74-.17-.72-.19-.71-.24-.7-.27-.68-.3-.66-.33-.64-.36-.63-.39-.61-.42-.59-.44-.56-.47-.55-.5-.52-.52-.49-.54-.47-.57-.45-.58-.42-.61-.39-.63-.36-.65-.33-.66-.3-.68-.27-.7-.23-.71-.21-.73-.17-.74-.13-.75-.09-.76-.06-.78-.02-.77.02-.77.06-.74.09-.74.13-.73.17-.72.21-.69.23-.69.27-.66.3-.65.33-.63.36-.61.39-.59.42-.57.45-.54.47-.52.49-.5.52-.47.55-.45.56-.42.59-.39.61-.36.63-.33.64-.3.66-.27.68-.24.7-.2.71-.17.72-.13.74-.09.74-.06.76-.02.77.02.77.06.77.09.75.13.74.17.73.2.71.24.7.27.68.3.67.33.64.36.63.39.62.42.58.45.57.47.55.5.52.52.5.54.47.57.44.59.42.61.4.63.36.65.33.66.3.69.27.69.23.72.21.73.16.74.14.74.09.77.06.77.02z"/><path class="cls-1" d="M23.15 15.71h7.61v-.83h-6.87l-.74.83zM21.96 17.49h8.8v-.83h-8.27l-.53.83zM21.07 19.29h9.69v-.84h-9.28l-.41.84zM20.48 21.07h10.28v-.84h-10.02l-.26.84zM20.11 22.85h10.65v-.84h-10.5l-.15.84zM20.03 26.29h10.73v-.84h-10.81l.08.84zM20.28 28.17h10.48v-.84h-10.63l.15.84zM20.79 29.69h9.97v-.83h-10.23l.26.83zM21.55 31.55h9.21v-.84h-9.62l.41.84zM22.62 33.42h8.14v-.83h-8.7l.56.83zM23.96 35.23h6.72v-.84h-7.45l.73.84zM47.5 34.18l.05-.13.07-.12.09-.11.11-.09.13-.07.13-.04.14-.02.15.02.14.04.12.07.11.09.09.11.07.12.04.13h-.15l-.03-.09-.06-.1-.06-.09-.09-.07-.1-.06-.11-.03-.12-.01-.12.01-.11.03-.1.06-.09.07-.07.09-.05.1-.03.09h-.15zM47.97 34.18v-.17h.34l.05.01.05.01.04.02.03.03.03.02.01.04.01.04h-.13l-.01-.02-.01-.02-.01-.02-.02-.02-.02-.01h-.24v.09h-.12zM47.49 34.31l.01-.12v-.01h.15v.03l-.02.1h-.14zM47.97 34.31v-.13h.12v.11h.22l.02-.01.03-.01.01-.01.02-.02.01-.02v-.04h.13l-.01.05-.01.04-.01.03-.02.01h-.51zM48.8 34.31l-.01-.1v-.03h.15v.01l.02.12h-.16zM47.49 34.31v.03l.01.14.05.14.07.12.09.11.11.08.13.07.13.04.14.01.15-.01.14-.04.12-.07.11-.08.09-.11.07-.12.04-.14.02-.14v-.03h-.16v.03l-.01.12-.03.12-.06.11-.06.08-.09.08-.1.05-.11.04-.12.01-.12-.01-.11-.04-.1-.05-.09-.08-.07-.08-.05-.11-.03-.12-.02-.12v-.03h-.14zM47.97 34.31v.31h.12v-.25h.13l.15.25h.13l-.18-.25.04-.01.05-.01.03-.01.03-.02.01-.01h-.51z"/><path class="cls-3" d="M31.7 23.71l-.1-.01-.1-.01-.09-.01-.09-.01-.09-.02-.08-.01-.1-.01-.1-.02-.1-.01-.11-.01-.12-.01-.14-.01h-.14l-.16.01-.19.01-.19.02-.15.02-.13.02-.12.04-.11.05-.1.05-.09.06-.07.07-.06.07-.05.08-.03.08-.01.09v.08l.02.1.03.09.06.1.07.09.14.13.17.1.19.09.22.07.22.08.23.07.24.08.22.1.22.12.2.15.17.18.15.21.12.27.07.32.02.37-.02.44-.05.34-.09.29-.12.27-.14.23-.17.21-.18.18-.2.15-.22.13-.23.11-.23.09-.24.07-.25.06-.24.04-.23.02-.23.02h-.8l-.25-.01h-.24l-.21-.01-.19-.01-.17-.02-.16-.02-.15-.02-.14-.02-.13-.03-.12-.03-.12-.03-.12-.04-.12-.04-.12-.05.3-1.54.07.01.09.02.1.03.11.03.14.02.14.04.16.03.17.03.18.02.19.03.19.02.2.01.2.02h.42l.21-.01.19-.03.17-.06.12-.08.1-.09.07-.1.06-.11.04-.11.03-.11.02-.11-.01-.1-.02-.09-.04-.08-.06-.08-.07-.07-.08-.06-.09-.06-.11-.05-.11-.06-.12-.05-.13-.05-.13-.05-.14-.06-.14-.05-.14-.06-.14-.06-.13-.06-.14-.08-.14-.08-.12-.08-.12-.09-.12-.11-.1-.11-.09-.13-.09-.14-.07-.15-.05-.17-.05-.18-.02-.2v-.21l.01-.23.01-.15.02-.14.03-.13.02-.13.03-.12.04-.12.04-.12.05-.11.05-.1.06-.11.06-.09.07-.09.07-.09.08-.09.09-.08.09-.07.1-.07.1-.06.11-.06.12-.06.13-.05.13-.05.14-.04.14-.04.16-.03.16-.03.17-.03.18-.02.19-.01.19-.01.21-.01h.71l.21.01.2.01.17.01.16.01.14.01.12.01.12.02.09.01.1.01.08.02.07.01.06.01.06.01h.05l-.35 1.6z"/><path class="cls-4" d="M31.7 23.71l-.1-.01-.1-.01-.09-.01-.09-.01-.09-.02-.08-.01-.1-.01-.1-.02-.1-.01-.11-.01-.12-.01-.14-.01h-.14l-.16.01-.19.01-.19.02-.15.02-.13.02-.12.04-.11.05-.1.05-.09.06-.07.07-.06.07-.05.08-.03.08-.01.09v.08l.02.1.03.09.06.1.07.09.14.13.17.1.19.09.22.07.22.08.23.07.24.08.22.1.22.12.2.15.17.18.15.21.12.27.07.32.02.37-.02.44-.05.34-.09.29-.12.27-.14.23-.17.21-.18.18-.2.15-.22.13-.23.11-.23.09-.24.07-.25.06-.24.04-.23.02-.23.02h-.8l-.25-.01h-.24l-.21-.01-.19-.01-.17-.02-.16-.02-.15-.02-.14-.02-.13-.03-.12-.03-.12-.03-.12-.04-.12-.04-.12-.05.3-1.54.07.01.09.02.1.03.11.03.14.02.14.04.16.03.17.03.18.02.19.03.19.02.2.01.2.02h.42l.21-.01.19-.03.17-.06.12-.08.1-.09.07-.1.06-.11.04-.11.03-.11.02-.11-.01-.1-.02-.09-.04-.08-.06-.08-.07-.07-.08-.06-.09-.06-.11-.05-.11-.06-.12-.05-.13-.05-.13-.05-.14-.06-.14-.05-.14-.06-.14-.06-.13-.06-.14-.08-.14-.08-.12-.08-.12-.09-.12-.11-.1-.11-.09-.13-.09-.14-.07-.15-.05-.17-.05-.18-.02-.2v-.21l.01-.23.01-.15.02-.14.03-.13.02-.13.03-.12.04-.12.04-.12.05-.11.05-.1.06-.11.06-.09.07-.09.07-.09.08-.09.09-.08.09-.07.1-.07.1-.06.11-.06.12-.06.13-.05.13-.05.14-.04.14-.04.16-.03.16-.03.17-.03.18-.02.19-.01.19-.01.21-.01h.71l.21.01.2.01.17.01.16.01.14.01.12.01.12.02.09.01.1.01.08.02.07.01.06.01.06.01h.05l-.35 1.6"/><path class="cls-3" d="M33.32 20.41h1.98l-.3 1.73h1.21l-.27 1.57-1.25-.03-.66 3.93-.01.09v.07l.01.07.02.05.03.05.04.05.04.04.05.03.06.03.06.02.07.03h.07l.08.02h.08l.08.01h.24l.14-.01.13-.02.11-.03.08-.02.07-.02.03-.02.02-.01-.2 1.35-.05.03-.06.02-.05.03-.06.02-.05.02-.06.02-.06.02-.07.02-.07.02-.07.01-.08.02-.09.01-.1.02-.09.01-.12.02-.12.01h-.53l-.28-.02-.25-.03-.22-.04-.2-.05-.16-.06-.14-.07-.11-.09-.09-.09-.08-.1-.05-.12-.04-.12-.02-.14v-.30000000000000004l.02-.16.02-.18 1.32-7.71z"/><path class="cls-4" d="M33.32 20.41h1.98l-.3 1.73h1.21l-.27 1.57-1.25-.03-.66 3.93-.01.09v.07l.01.07.02.05.03.05.04.05.04.04.05.03.06.03.06.02.07.03h.07l.08.02h.08l.08.01h.24l.14-.01.13-.02.11-.03.08-.02.07-.02.03-.02.02-.01-.2 1.35-.05.03-.06.02-.05.03-.06.02-.05.02-.06.02-.06.02-.07.02-.07.02-.07.01-.08.02-.09.01-.1.02-.09.01-.12.02-.12.01h-.53l-.28-.02-.25-.03-.22-.04-.2-.05-.16-.06-.14-.07-.11-.09-.09-.09-.08-.1-.05-.12-.04-.12-.02-.14v-.30000000000000004l.02-.16.02-.18 1.32-7.71"/><path class="cls-3" d="M21.27 26.39l-.02.13-.01.12.01.13.03.13.04.14.06.13.07.13.08.12.1.12.11.11.11.1.12.09.14.08.13.07.15.05.15.03.18.03.17.02.19.02.18.01h.37l.19-.01.19-.01.19-.03.2-.03.19-.05.2-.07.2-.07.21-.09.2-.11.21-.12-.31 1.75-.11.06-.12.06-.1.04-.11.04-.11.04-.11.03-.11.02-.12.03-.13.01-.14.02-.15.01-.16.01-.18.01h-.8200000000000001l-.18-.01-.17-.01-.18-.02-.18-.02-.18-.03-.18-.04-.18-.04-.17-.05-.17-.06-.17-.06-.17-.08-.16-.08-.16-.09-.15-.1-.14-.11-.14-.11-.13-.13-.13-.14-.12-.15-.1-.16-.1-.17-.09-.18-.08-.19-.07-.21-.05-.22-.05-.22-.03-.25-.02-.26v-.26l.01-.29.03-.29.01-.11.02-.12.02-.11.02-.13.03-.14.03-.13.04-.15.04-.14.05-.16.05-.15.07-.15.07-.15.08-.15.08-.16.09-.15.1-.15.11-.14.12-.14.13-.14.14-.13.15-.13.17-.12.17-.11.18-.1.2-.09.21-.08.22-.07.24-.06.25-.05.27-.04.28-.02.29-.01h.14l.14.01.14.01.14.02.15.02.14.03.15.03.14.04.14.04.15.06.13.06.14.07.13.08.12.08.12.1.12.1.11.12.1.12.09.14.09.14.08.16.07.16.06.19.04.19.04.21.02.21.01.24v.24l-.01.26-.02.28-.05.29-.06.31-.08.43h-5.12l.31-1.37h3.07l.01-.19v-.17l-.01-.16-.03-.15-.04-.13-.05-.13-.06-.11-.07-.1-.09-.08-.09-.08-.1-.06-.1-.05-.12-.03-.11-.04-.13-.01-.13-.01h-.13l-.13.02-.13.03-.12.04-.11.05-.11.07-.1.07-.1.08-.09.1-.07.11-.08.11-.07.12-.06.13-.05.14-.04.15-.03.15-.28 1.47z"/><path class="cls-4" d="M21.27 26.39l-.02.13-.01.12.01.13.03.13.04.14.06.13.07.13.08.12.1.12.11.11.11.1.12.09.14.08.13.07.15.05.15.03.18.03.17.02.19.02.18.01h.37l.19-.01.19-.01.19-.03.2-.03.19-.05.2-.07.2-.07.21-.09.2-.11.21-.12-.31 1.75-.11.06-.12.06-.1.04-.11.04-.11.04-.11.03-.11.02-.12.03-.13.01-.14.02-.15.01-.16.01-.18.01h-.8200000000000001l-.18-.01-.17-.01-.18-.02-.18-.02-.18-.03-.18-.04-.18-.04-.17-.05-.17-.06-.17-.06-.17-.08-.16-.08-.16-.09-.15-.1-.14-.11-.14-.11-.13-.13-.13-.14-.12-.15-.1-.16-.1-.17-.09-.18-.08-.19-.07-.21-.05-.22-.05-.22-.03-.25-.02-.26v-.26l.01-.29.03-.29.01-.11.02-.12.02-.11.02-.13.03-.14.03-.13.04-.15.04-.14.05-.16.05-.15.07-.15.07-.15.08-.15.08-.16.09-.15.1-.15.11-.14.12-.14.13-.14.14-.13.15-.13.17-.12.17-.11.18-.1.2-.09.21-.08.22-.07.24-.06.25-.05.27-.04.28-.02.29-.01h.14l.14.01.14.01.14.02.15.02.14.03.15.03.14.04.14.04.15.06.13.06.14.07.13.08.12.08.12.1.12.1.11.12.1.12.09.14.09.14.08.16.07.16.06.19.04.19.04.21.02.21.01.24v.24l-.01.26-.02.28-.05.29-.06.31-.08.43h-5.12l.31-1.37h3.07l.01-.19v-.17l-.01-.16-.03-.15-.04-.13-.05-.13-.06-.11-.07-.1-.09-.08-.09-.08-.1-.06-.1-.05-.12-.03-.11-.04-.13-.01-.13-.01h-.13l-.13.02-.13.03-.12.04-.11.05-.11.07-.1.07-.1.08-.09.1-.07.11-.08.11-.07.12-.06.13-.05.14-.04.15-.03.15-.28 1.47"/><path class="cls-3" d="M18.53 28.12l-.28 1.57h-1.78l.02-.14.02-.15.02-.14.02-.12.02-.1.02-.09.01-.06.03-.03-.1.1-.12.11-.13.11-.15.09-.17.1-.17.09-.19.08-.19.07-.2.06-.21.06-.21.04-.21.03-.2.01-.21.01-.19-.02-.19-.03-.26-.06-.22-.08-.2-.09-.18-.1-.15-.12-.14-.12-.12-.14-.09-.15-.09-.14-.07-.16-.05-.16-.05-.16-.03-.15-.02-.17-.01-.15v-.16l.02-.27.04-.26.07-.26.09-.23.11-.23.13-.2.15-.19.17-.19.18-.16.19-.14.21-.14.22-.11.22-.1.24-.08.23-.05.24-.05h.05l.05-.01.07-.01.09-.01.1-.01.11-.01.12-.01.11-.01.12-.02.12-.01.12-.01.11-.01h.1l.1-.01h.32999999999999996l.09.01h.32l.07.01h.16l.04.01h.060000000000000005l.01-.05.04-.12.02-.14v-.12l-.01-.09-.01-.08-.03-.08-.03-.08-.04-.07-.05-.06-.05-.06-.06-.06-.06-.05-.07-.04-.07-.04-.08-.03-.07-.03-.09-.02-.08-.01-.09-.01-.2-.01-.21.01h-.22l-.23.02-.23.01-.22.02-.23.03-.22.02-.21.04-.2.03-.19.03-.17.04-.15.04-.13.04-.1.04-.08.04.51-1.67.15-.07.16-.07.15-.05.17-.04.17-.04.18-.03.19-.02.19-.02.2-.01.2-.01.21-.01h.67l.24.01h.24l.2.02.22.03.22.06.22.06.22.08.22.11.21.11.2.14.18.16.16.17.14.2.11.21.08.23.04.25.01.27-.04.29-.74 3.7z"/><path class="cls-4" d="M18.53 28.12l-.28 1.57h-1.78l.02-.14.02-.15.02-.14.02-.12.02-.1.02-.09.01-.06.03-.03-.1.1-.12.11-.13.11-.15.09-.17.1-.17.09-.19.08-.19.07-.2.06-.21.06-.21.04-.21.03-.2.01-.21.01-.19-.02-.19-.03-.26-.06-.22-.08-.2-.09-.18-.1-.15-.12-.14-.12-.12-.14-.09-.15-.09-.14-.07-.16-.05-.16-.05-.16-.03-.15-.02-.17-.01-.15v-.16l.02-.27.04-.26.07-.26.09-.23.11-.23.13-.2.15-.19.17-.19.18-.16.19-.14.21-.14.22-.11.22-.1.24-.08.23-.05.24-.05h.05l.05-.01.07-.01.09-.01.1-.01.11-.01.12-.01.11-.01.12-.02.12-.01.12-.01.11-.01h.1l.1-.01h.32999999999999996l.09.01h.32l.07.01h.16l.04.01h.060000000000000005l.01-.05.04-.12.02-.14v-.12l-.01-.09-.01-.08-.03-.08-.03-.08-.04-.07-.05-.06-.05-.06-.06-.06-.06-.05-.07-.04-.07-.04-.08-.03-.07-.03-.09-.02-.08-.01-.09-.01-.2-.01-.21.01h-.22l-.23.02-.23.01-.22.02-.23.03-.22.02-.21.04-.2.03-.19.03-.17.04-.15.04-.13.04-.1.04-.08.04.51-1.67.15-.07.16-.07.15-.05.17-.04.17-.04.18-.03.19-.02.19-.02.2-.01.2-.01.21-.01h.67l.24.01h.24l.2.02.22.03.22.06.22.06.22.08.22.11.21.11.2.14.18.16.16.17.14.2.11.21.08.23.04.25.01.27-.04.29-.74 3.7"/><path class="cls-2" d="M16.83 26.27v-.04l-.03-.03-.05-.03-.07-.01-.08-.01-.09-.01h-.21000000000000002l-.11.01-.12.02-.11.01-.12.02-.11.02-.1.02-.09.03-.08.02-.04.01-.06.02-.07.03-.08.03-.09.03-.09.05-.1.05-.09.06-.09.07-.09.07-.09.08-.07.09-.07.09-.05.11-.04.11-.02.12-.01.24.03.19.06.14.09.11.11.08.11.04.13.03h.33l.19-.02.18-.03.17-.05.15-.05.13-.06.12-.07.1-.07.09-.07.08-.09.07-.08.06-.08.05-.08.04-.08.03-.08.02-.08.03-.1.02-.12.03-.12.02-.12.02-.12.02-.11.02-.1.02-.09z"/><path class="cls-3" d="M3.66 29.69h-1.93l1.62-9.28h3.35l.33 5.53 2.28-5.53h3.48l-1.62 9.28h-1.93l1.22-6.95h-.08l-2.87 6.95h-2.15l-.02-.29-.05-.77-.06-1.1-.08-1.25-.07-1.27-.06-1.12-.05-.81-.02-.34h-.1.02l-1.21 6.95z"/><path class="cls-4" d="M3.66 29.69h-1.93l1.62-9.28h3.35l.33 5.53 2.28-5.53h3.48l-1.62 9.28h-1.93l1.22-6.95h-.08l-2.87 6.95h-2.15l-.02-.29-.05-.77-.06-1.1-.08-1.25-.07-1.27-.06-1.12-.05-.81-.02-.34h-.1.02l-1.21 6.95"/><path class="cls-3" d="M35.86 29.69h2.01l.68-4 .03-.16.03-.15.04-.16.05-.14.06-.14.07-.14.08-.13.09-.12.12-.11.12-.1.16-.09.17-.07.19-.07.22-.05.25-.03.28-.02h.02l.03.01h.08l.03.01h.03l.02.01h.01l.01-.03.02-.08.02-.13.04-.17.05-.18.06-.2.06-.19.07-.19.06-.14.06-.13.07-.13.07-.13.06-.1.04-.08.04-.06.01-.02h-.01l-.03-.01h-.03l-.05-.01-.05-.01-.06-.01-.05-.01h-.05l-.22.02-.2.02-.18.04-.17.05-.15.05-.15.07-.13.08-.13.08-.12.1-.11.1-.11.11-.11.11-.1.13-.1.13-.1.14-.11.14.24-1.26-2.01-.03-1.32 7.58z"/><path class="cls-4" d="M35.86 29.69h2.01l.68-4 .03-.16.03-.15.04-.16.05-.14.06-.14.07-.14.08-.13.09-.12.12-.11.12-.1.16-.09.17-.07.19-.07.22-.05.25-.03.28-.02h.02l.03.01h.08l.03.01h.03l.02.01h.01l.01-.03.02-.08.02-.13.04-.17.05-.18.06-.2.06-.19.07-.19.06-.14.06-.13.07-.13.07-.13.06-.1.04-.08.04-.06.01-.02h-.01l-.03-.01h-.03l-.05-.01-.05-.01-.06-.01-.05-.01h-.05l-.22.02-.2.02-.18.04-.17.05-.15.05-.15.07-.13.08-.13.08-.12.1-.11.1-.11.11-.11.11-.1.13-.1.13-.1.14-.11.14.24-1.26-2.01-.03-1.32 7.58"/><path class="cls-3" d="M44.54 22.03l.22.01.22.01.21.02.21.03.19.04.2.05.18.05.18.07.17.07.17.08.16.09.15.09.15.1.13.11.13.11.12.13.12.12.11.14.1.14.09.15.09.15.08.16.07.17.06.17.05.17.05.18.04.19.03.19.02.2.01.2v.41000000000000003l-.02.25-.03.25-.03.23-.05.22-.05.22-.06.21-.07.2-.07.19-.09.19-.09.17-.1.17-.11.16-.11.15-.13.14-.12.14-.14.12-.13.12-.15.12-.15.1-.15.09-.17.09-.16.08-.17.08-.18.06-.17.06-.19.05-.19.04-.19.03-.19.03-.2.02-.2.01h-.41000000000000003l-.2-.01-.19-.02-.19-.03-.19-.04-.19-.04-.18-.05-.17-.06-.17-.06-.16-.07-.16-.08-.16-.09-.14-.09-.14-.11-.14-.11-.13-.12-.12-.12-.11-.13-.11-.14-.1-.15-.09-.15-.09-.16-.07-.17-.07-.17-.06-.19-.05-.19-.05-.19-.03-.21-.03-.21-.01-.22-.01-.22.01-.23.01-.24.03-.23.03-.22.05-.21.05-.21.05-.2.07-.19.07-.19.08-.18.09-.17.1-.17.1-.16.11-.15.12-.15.12-.13.13-.13.14-.13.14-.11.15-.11.15-.1.16-.08.17-.09.17-.08.18-.07.18-.06.19-.05.19-.04.2-.04.2-.03.21-.02.21-.01.21-.01z"/><path class="cls-4" d="M44.54 22.03l.22.01.22.01.21.02.21.03.19.04.2.05.18.05.18.07.17.07.17.08.16.09.15.09.15.1.13.11.13.11.12.13.12.12.11.14.1.14.09.15.09.15.08.16.07.17.06.17.05.17.05.18.04.19.03.19.02.2.01.2v.41000000000000003l-.02.25-.03.25-.03.23-.05.22-.05.22-.06.21-.07.2-.07.19-.09.19-.09.17-.1.17-.11.16-.11.15-.13.14-.12.14-.14.12-.13.12-.15.12-.15.1-.15.09-.17.09-.16.08-.17.08-.18.06-.17.06-.19.05-.19.04-.19.03-.19.03-.2.02-.2.01h-.41000000000000003l-.2-.01-.19-.02-.19-.03-.19-.04-.19-.04-.18-.05-.17-.06-.17-.06-.16-.07-.16-.08-.16-.09-.14-.09-.14-.11-.14-.11-.13-.12-.12-.12-.11-.13-.11-.14-.1-.15-.09-.15-.09-.16-.07-.17-.07-.17-.06-.19-.05-.19-.05-.19-.03-.21-.03-.21-.01-.22-.01-.22.01-.23.01-.24.03-.23.03-.22.05-.21.05-.21.05-.2.07-.19.07-.19.08-.18.09-.17.1-.17.1-.16.11-.15.12-.15.12-.13.13-.13.14-.13.14-.11.15-.11.15-.1.16-.08.17-.09.17-.08.18-.07.18-.06.19-.05.19-.04.2-.04.2-.03.21-.02.21-.01.21-.01"/><path class="cls-3" d="M47.49 29.31h.58v.08h-.23v.48h-.13v-.48h-.22v-.08z"/><path class="cls-4" d="M47.49 29.31h.58v.08h-.23v.48h-.13v-.48h-.22v-.08"/><path class="cls-3" d="M48.14 29.31h.18l.21.43.2-.43h.18v.56h-.13v-.43l-.2.43h-.11l-.2-.43v.43h-.13v-.56z"/><path class="cls-4" d="M48.14 29.31h.18l.21.43.2-.43h.18v.56h-.13v-.43l-.2.43h-.11l-.2-.43v.43h-.13v-.56"/><path class="cls-1" d="M42.97 25.66l-.03.27-.02.26v.23l.02.22.03.19.04.18.06.15.06.15.09.12.09.1.1.09.12.07.12.06.14.04.14.01.16.02.16-.01.17-.02.15-.04.15-.05.13-.07.14-.09.12-.1.12-.12.1-.14.1-.16.09-.18.08-.19.08-.21.06-.23.05-.25.05-.27.02-.22.02-.2v-.2l-.02-.18-.02-.18-.04-.16-.06-.16-.06-.14-.08-.13-.09-.11-.1-.1-.12-.07-.13-.07-.13-.04-.15-.02h-.16l-.2.01-.19.04-.17.06-.17.07-.15.1-.13.11-.13.12-.11.14-.1.15-.09.15-.08.16-.06.17-.06.17-.05.16-.03.17-.03.17z"/>
        </symbol>
        <symbol id="bancontact">
            <path class="cls-1" d="M43.7 15.23h-15l-1.52 1.72-4.94 5.57-1.52 1.72h-14.78l1.5-1.74.71-.82 1.5-1.74h-6.81a2.3 2.3 0 0 0-2.27 2.32v4.9a2.3 2.3 0 0 0 2.26 2.32h26.09a5.76 5.76 0 0 0 3.78-1.72l3.95-4.49z"/><path class="cls-2" d="M46.71 10a2.3 2.3 0 0 1 2.29 2.32v4.9a2.3 2.3 0 0 1-2.26 2.32h-6.82l1.51-1.72.75-.85 1.51-1.72h-15l-8 9h-14.84l10.67-12.07.4-.46a5.78 5.78 0 0 1 3.78-1.72h26z"/><path class="cls-1" d="M49 39.74v-.74q0-.16-.19-.16h-.45q-.21 0-.26-.08a.84.84 0 0 1 0-.36v-2.64h.76a.18.18 0 0 0 .13-.06.18.18 0 0 0 .06-.13v-.75a.18.18 0 0 0-.06-.13.18.18 0 0 0-.13-.06h-.86v-1a.15.15 0 0 0 0-.12.17.17 0 0 0-.12 0l-1.12.19a.32.32 0 0 0-.13.06.15.15 0 0 0-.05.12v.76h-.74a.21.21 0 0 0-.19.19v.61a.16.16 0 0 0 .06.12.33.33 0 0 0 .13.07l.74.12v2.67a2.63 2.63 0 0 0 .1.8 1.1 1.1 0 0 0 .29.48 1 1 0 0 0 .48.24 3.3 3.3 0 0 0 .66.06h.36l.37-.05q.17 0 .18-.18m-4-.09v-.82a.14.14 0 0 0-.05-.12.19.19 0 0 0-.12 0h-1.12a.85.85 0 0 1-.3-.05.55.55 0 0 1-.24-.18.93.93 0 0 1-.16-.33 1.86 1.86 0 0 1-.06-.51v-.77a1.86 1.86 0 0 1 .06-.51.93.93 0 0 1 .16-.33.55.55 0 0 1 .24-.18.85.85 0 0 1 .3-.05h1.12a.19.19 0 0 0 .12 0 .14.14 0 0 0 .05-.12v-.82a.19.19 0 0 0 0-.14.37.37 0 0 0-.15-.07l-.5-.09a5 5 0 0 0-.72 0 2.09 2.09 0 0 0-1.56.6 2.38 2.38 0 0 0-.59 1.73v.77a2.38 2.38 0 0 0 .5 1.71 2.08 2.08 0 0 0 1.56.6 5 5 0 0 0 .72 0l.5-.09a.36.36 0 0 0 .15-.07.18.18 0 0 0 0-.14m-6-1a2.44 2.44 0 0 1-.36.14 1.31 1.31 0 0 1-.4.06.9.9 0 0 1-.44-.08q-.14-.08-.14-.38v-.08a1.07 1.07 0 0 1 0-.3.44.44 0 0 1 .13-.21.59.59 0 0 1 .25-.12 1.59 1.59 0 0 1 .4 0h.63zm1.47-2.23a2.19 2.19 0 0 0-.15-.86 1.5 1.5 0 0 0-.43-.58 1.77 1.77 0 0 0-.68-.33 3.52 3.52 0 0 0-.9-.11 6.18 6.18 0 0 0-.9.06q-.44.06-.7.13a.2.2 0 0 0-.18.2v.75a.16.16 0 0 0 0 .13.19.19 0 0 0 .12 0h1.53a.92.92 0 0 1 .51.12q.18.12.18.52v.33h-.5a3.1 3.1 0 0 0-1.73.37 1.34 1.34 0 0 0-.54 1.19v.08a1.88 1.88 0 0 0 .13.76 1.31 1.31 0 0 0 .36.49 1.33 1.33 0 0 0 .5.26 2.17 2.17 0 0 0 .59.08 2.07 2.07 0 0 0 .71-.11 2.36 2.36 0 0 0 .57-.3v.15a.19.19 0 0 0 .18.18h1a.19.19 0 0 0 .18-.18zm-4.92 3.3v-.77q0-.16-.19-.16h-.45q-.21 0-.26-.08a.84.84 0 0 1 0-.36v-2.64h.76a.18.18 0 0 0 .13-.06.18.18 0 0 0 .06-.13v-.75a.18.18 0 0 0-.06-.13.18.18 0 0 0-.13-.06h-.76v-1a.15.15 0 0 0 0-.12.17.17 0 0 0-.12 0l-1.12.19a.32.32 0 0 0-.13.06.15.15 0 0 0-.05.12v.76h-.74a.21.21 0 0 0-.19.19v.61a.16.16 0 0 0 .06.12.33.33 0 0 0 .13.07l.74.12v2.67a2.63 2.63 0 0 0 .1.8 1.1 1.1 0 0 0 .29.48 1 1 0 0 0 .48.24 3.3 3.3 0 0 0 .66.06h.31l.37-.05q.18 0 .18-.18m-4 0v-3.12a4.6 4.6 0 0 0-.07-.82 1.82 1.82 0 0 0-.25-.66 1.28 1.28 0 0 0-.5-.45 1.76 1.76 0 0 0-.82-.17 2.63 2.63 0 0 0-.78.11 2.6 2.6 0 0 0-.72.38v-.22a.18.18 0 0 0-.06-.13.18.18 0 0 0-.13-.06h-1a.19.19 0 0 0-.18.18v4.91a.21.21 0 0 0 .19.19h1.12a.17.17 0 0 0 .13-.06.19.19 0 0 0 .06-.13v-3.62a4.15 4.15 0 0 1 .45-.21 1.13 1.13 0 0 1 .42-.08 1.19 1.19 0 0 1 .35 0 .39.39 0 0 1 .21.14.62.62 0 0 1 .1.27 2.52 2.52 0 0 1 0 .41v3.06a.19.19 0 0 0 .06.13.17.17 0 0 0 .13.06h1.12a.21.21 0 0 0 .19-.19m-7-2.12q0 1.13-.82 1.13a.72.72 0 0 1-.61-.29 1.42 1.42 0 0 1-.21-.85v-.56a1.4 1.4 0 0 1 .21-.84.72.72 0 0 1 .61-.28q.82 0 .82 1.13zm1.43-.57a3 3 0 0 0-.15-1 2.06 2.06 0 0 0-.44-.75 2 2 0 0 0-.72-.48 3 3 0 0 0-2 0 2 2 0 0 0-1.14 1.23 3 3 0 0 0-.15 1v.65a3 3 0 0 0 .15 1 2 2 0 0 0 1.17 1.23 3 3 0 0 0 2 0 2 2 0 0 0 .72-.48 2.06 2.06 0 0 0 .44-.75 3 3 0 0 0 .15-1zm-5.12 2.69v-.82a.14.14 0 0 0-.05-.12.19.19 0 0 0-.12 0h-1.12a.85.85 0 0 1-.3-.05.55.55 0 0 1-.24-.18.93.93 0 0 1-.16-.33 1.87 1.87 0 0 1-.06-.51v-.77a1.87 1.87 0 0 1 .06-.51.93.93 0 0 1 .16-.33.55.55 0 0 1 .24-.18.85.85 0 0 1 .3-.05h1.12a.19.19 0 0 0 .12 0 .14.14 0 0 0 .05-.12v-.82a.19.19 0 0 0 0-.14.37.37 0 0 0-.15-.07l-.5-.09a5 5 0 0 0-.72 0 2.09 2.09 0 0 0-1.56.6 2.38 2.38 0 0 0-.59 1.73v.77a2.38 2.38 0 0 0 .59 1.73 2.08 2.08 0 0 0 1.56.6 5 5 0 0 0 .72 0l.5-.09a.37.37 0 0 0 .15-.07.19.19 0 0 0 0-.14m-4.54.07v-3.15a4.58 4.58 0 0 0-.07-.82 1.82 1.82 0 0 0-.25-.66 1.28 1.28 0 0 0-.5-.45 1.76 1.76 0 0 0-.82-.17 2.32 2.32 0 0 0-1.5.48v-.22a.18.18 0 0 0-.06-.13.18.18 0 0 0-.13-.06h-1.01a.19.19 0 0 0-.18.18v4.91a.21.21 0 0 0 .19.19h1.12a.17.17 0 0 0 .13-.06.19.19 0 0 0 .06-.13v-3.61a4.15 4.15 0 0 1 .45-.21 1.13 1.13 0 0 1 .41-.08 1.19 1.19 0 0 1 .35 0 .39.39 0 0 1 .21.14.62.62 0 0 1 .1.27 2.52 2.52 0 0 1 0 .41v3.06a.19.19 0 0 0 .06.13.17.17 0 0 0 .13.06h1.12a.21.21 0 0 0 .19-.19m-7.08-1.02a2.44 2.44 0 0 1-.36.14 1.31 1.31 0 0 1-.4.06.9.9 0 0 1-.44-.08q-.14-.08-.14-.38v-.08a1.07 1.07 0 0 1 .08-.33.44.44 0 0 1 .13-.21.59.59 0 0 1 .25-.12 1.59 1.59 0 0 1 .4 0h.53zm1.47-2.23a2.19 2.19 0 0 0-.15-.86 1.5 1.5 0 0 0-.43-.58 1.77 1.77 0 0 0-.68-.33 3.52 3.52 0 0 0-.9-.11 6.18 6.18 0 0 0-.9.06q-.44.06-.7.13a.2.2 0 0 0-.18.2v.75a.16.16 0 0 0 0 .13.18.18 0 0 0 .12 0h1.62a.92.92 0 0 1 .51.12q.18.12.18.52v.33h-.5a3.1 3.1 0 0 0-1.72.35 1.34 1.34 0 0 0-.54 1.19v.08a1.88 1.88 0 0 0 .13.76 1.31 1.31 0 0 0 .36.49 1.33 1.33 0 0 0 .5.26 2.17 2.17 0 0 0 .55.07 2.07 2.07 0 0 0 .71-.11 2.36 2.36 0 0 0 .57-.3v.15a.19.19 0 0 0 .18.18h1a.19.19 0 0 0 .18-.18zm-6.59 1.46a.72.72 0 0 1-.27.6 1.66 1.66 0 0 1-1 .21h-.74v-1.71h1a1 1 0 0 1 .77.24.85.85 0 0 1 .21.58zm0-2.75a.85.85 0 0 1 0 .28.55.55 0 0 1-.15.23.79.79 0 0 1-.29.16 1.47 1.47 0 0 1-.46.06h-1v-1.6h.7a2 2 0 0 1 1 .18.62.62 0 0 1 .28.56zm1.53 2.65a1.47 1.47 0 0 0-.82-1.36 1.32 1.32 0 0 0 .57-.54 1.62 1.62 0 0 0 .2-.81v-.17a1.83 1.83 0 0 0-.2-.92 1.59 1.59 0 0 0-.6-.59 2.83 2.83 0 0 0-.92-.32 6.71 6.71 0 0 0-1.19-.09h-1.65a.66.66 0 0 0-.38.17.65.65 0 0 0-.11.43v5.61a.63.63 0 0 0 .12.43.69.69 0 0 0 .39.17h1.69a6.6 6.6 0 0 0 1.13-.09 2.66 2.66 0 0 0 .92-.33 1.74 1.74 0 0 0 .62-.64 2 2 0 0 0 .23-1z"/>
        </symbol>
        <symbol id="americanexpress">
            <path class="cls-1" d="M4.56 20.62h1.74l-.87-2.21zm0 0"/><path class="cls-2" d="M26.09 18.73a1.54 1.54 0 0 0-.63-.08h-1.57v1.26h1.58a1.54 1.54 0 0 0 .63-.08.61.61 0 0 0 .24-.55.44.44 0 0 0-.24-.55zm0 0"/><path class="cls-3" d="M43 16.36v.95l-.47-.95h-3.74v.95l-.47-.95h-5a4.8 4.8 0 0 0-2.21.47v-.47h-3.6v.47a2.27 2.27 0 0 0-1.5-.47h-12.69l-.87 2-.87-2h-4v.95l-.47-.95h-3.42l-1.57 3.71-1.82 4.1h4l.47-1.26h1.13l.47 1.26h4.57v-.95l.39.95h2.29l.39-.95v.95h10.99v-2.05h.16c.16 0 .16 0 .16.24v1.74h5.68v-.47a4.72 4.72 0 0 0 2.13.47h2.37l.5-1.27h1.1l.47 1.26h4.58v-1.18l.71 1.18h3.71v-7.73zm-26.69 6.64h-1.31v-4.35l-1.92 4.35h-1.18l-1.9-4.35v4.35h-2.68l-.55-1.18h-2.68l-.47 1.26h-1.5l2.37-5.6h2l2.21 5.28v-5.29h2.13l1.74 3.79 1.58-3.79h2.21zm5.36-4.34h-3.07v1h3v1.1h-3v1.1h3.08v1.18h-4.42v-5.6h4.42zm5.92 2.29a2 2 0 0 1 .24 1v1.1h-1.34v-.71a1.88 1.88 0 0 0-.24-1.1c-.25-.24-.47-.24-.94-.24h-1.42v2.05h-1.34v-5.6h3a3 3 0 0 1 1.58.24 1.34 1.34 0 0 1 .62 1.31 1.57 1.57 0 0 1-.95 1.5 1.5 1.5 0 0 1 .79.47zm2.41 2.05h-1.38v-5.6h1.38zm15.5 0h-1.89l-2.52-4.18v4.18h-2.69l-.47-1.18h-2.76l-.47 1.26h-1.5a2.75 2.75 0 0 1-1.89-.63 2.77 2.77 0 0 1-.71-2.13 3.23 3.23 0 0 1 .71-2.21 2.49 2.49 0 0 1 2-.63h1.26v1.18h-1.3a1.45 1.45 0 0 0-1 .32 1.85 1.85 0 0 0-.39 1.26 1.72 1.72 0 0 0 .39 1.34 1.26 1.26 0 0 0 .95.32h.55l1.81-4.34h2l2.21 5.28v-5.29h2l2.21 3.86v-3.86h1.34v5.45zm0 0"/><path class="cls-2" d="M35.64 20.62h1.81l-.87-2.21zm0 0M22.23 32v-4.5l-2.05 2.21zm0 0"/><path class="cls-1" d="M13.79 28v1h2.92v1.1h-2.92v1.18h3.21l1.5-1.66-1.4-1.62zm0 0"/><path class="cls-2" d="M25.23 28h-1.66v1.42h1.74c.47 0 .79-.24.79-.71a.8.8 0 0 0-.87-.71zm0 0"/><path class="cls-3" d="M49.6 29.38v-3.55h-3.31a2.59 2.59 0 0 0-1.66.47v-.47h-3.63a2.5 2.5 0 0 0-1.58.47v-.47h-6.42v.47a3.05 3.05 0 0 0-1.74-.47h-4.26v.47a3 3 0 0 0-1.81-.47h-4.7l-1.1 1.17-1-1.18h-7.1v7.73h6.94l1.1-1.18 1 1.18h4.27v-1.81h.55a4.79 4.79 0 0 0 1.85-.23v2.13h3.55v-2.05h.16c.24 0 .24 0 .24.24v1.81h10.68a3.09 3.09 0 0 0 1.81-.47v.47h3.39a3.54 3.54 0 0 0 1.89-.39 2.69 2.69 0 0 0 1.28-2.37 3 3 0 0 0-.39-1.5zm-24.45 1.26h-1.58v1.89h-2.57l-1.58-1.81-1.66 1.81h-5.15v-5.6h5.28l1.58 1.81 1.66-1.81h4.18c1 0 2.21.32 2.21 1.81s-1.18 1.89-2.37 1.89zm7.85-.32a1.79 1.79 0 0 1 .24 1v1.1h-1.31v-.71a1.76 1.76 0 0 0-.24-1.1c-.16-.24-.47-.24-.95-.24h-1.41v2.05h-1.33v-5.6h3a3.18 3.18 0 0 1 1.58.24 1.4 1.4 0 0 1 .71 1.26 1.57 1.57 0 0 1-.95 1.5 1.35 1.35 0 0 1 .71.47zm5.48-2.32h-3.08v1h3v1.1h-3v1.1h3.08v1.18h-4.42v-5.6h4.42zm3.31 4.42h-2.52v-1.15h2.52a.67.67 0 0 0 .55-.16.57.57 0 0 0 0-.79.67.67 0 0 0-.47-.16c-1.26-.08-2.76 0-2.76-1.74 0-.79.47-1.66 1.89-1.66h2.6v1.34h-2.44a1.17 1.17 0 0 0-.55.08c-.16.08-.16.24-.16.39s.16.32.32.39a1 1 0 0 0 .47.08h.71a2 2 0 0 1 1.5.47 1.63 1.63 0 0 1 .39 1.18c0 1.18-.71 1.74-2.05 1.74zm6.78-.55a2.3 2.3 0 0 1-1.66.55h-2.52v-1.15h2.52a.66.66 0 0 0 .55-.16.57.57 0 0 0 0-.79.67.67 0 0 0-.47-.16c-1.26-.08-2.76 0-2.76-1.74 0-.79.47-1.66 1.89-1.66h2.6v1.34h-2.35a1.17 1.17 0 0 0-.55.08c-.16.08-.16.24-.16.39s.08.32.32.39a1 1 0 0 0 .47.08h.71a2 2 0 0 1 1.5.47.08.08 0 0 1 .08.08 1.81 1.81 0 0 1 .32 1.1 1.61 1.61 0 0 1-.47 1.18zm0 0"/><path class="cls-2" d="M31.62 28.19a1.53 1.53 0 0 0-.63-.08h-1.58v1.26h1.59a1.53 1.53 0 0 0 .63-.08.61.61 0 0 0 .24-.55.44.44 0 0 0-.24-.55zm0 0M26.09 18.73a1.54 1.54 0 0 0-.63-.08h-1.57v1.26h1.58a1.54 1.54 0 0 0 .63-.08.61.61 0 0 0 .24-.55.44.44 0 0 0-.24-.55zm0 0M35.64 20.62h1.81l-.87-2.21zm0 0M22.23 32v-4.5l-2.05 2.21zm0 0M25.23 28h-1.66v1.42h1.74c.47 0 .79-.24.79-.71a.8.8 0 0 0-.87-.71zm0 0M31.62 28.19a1.53 1.53 0 0 0-.63-.08h-1.58v1.26h1.59a1.53 1.53 0 0 0 .63-.08.61.61 0 0 0 .24-.55.44.44 0 0 0-.24-.55zm0 0"/><path class="cls-1" d="M24.68 32.3l-1.1-1.18v1.34h-2.58l-1.58-1.81-1.74 1.81h-5.23v-5.53h5.29l1.66 1.81.79-.95-2-2h-6.92v7.73h6.94l1.18-1.18 1 1.18h4.26zm0 0M16.47 24.09l-1-1.1h-.47v-.47l-1.18-1.18-.82 1.66h-1.1l-1.9-4.35v4.35h-2.68l-.55-1.18h-2.68l-.55 1.18h-1.42l2.37-5.52h2l2.21 5.28v-5.29h1.15l-1.1-1.1h-1.19v.95l-.39-.95h-3.48l-1.57 3.7-1.81 4h4.09l.47-1.18h1.13l.55 1.18h4.42v-.95l.39.95h2.29l.39-.95v.95zm0 0M12.84 20.46l-1.26-1.26.95 2.05zm0 0"/><path class="cls-2" d="M48.73 33.16a2.89 2.89 0 0 0 1.27-2.16l-1.1-1.1a2.33 2.33 0 0 1 .16.79 1.61 1.61 0 0 1-.47 1.18 2.3 2.3 0 0 1-1.66.55h-2.54v-1.15h2.52a.66.66 0 0 0 .55-.16.57.57 0 0 0 0-.79.67.67 0 0 0-.47-.16c-1.26-.08-2.76 0-2.76-1.74 0-.79.47-1.5 1.66-1.66l-.89-.85c-.16.08-.24.16-.32.16v-.47h-3.6a2.5 2.5 0 0 0-1.58.47v-.47h-6.5v.47a3.05 3.05 0 0 0-1.74-.47h-4.26v.47a3 3 0 0 0-1.81-.47h-4.7l-1.1 1.18-1-1.18h-.89l2.36 2.4 1.14-1.3h4.18c1 0 2.21.32 2.21 1.81s-1.1 1.89-2.29 1.89h-1.53v1.18l1.18 1.18v-1.17h.39a4.8 4.8 0 0 0 1.86-.24v2.13h3.55v-2.05h.16c.24 0 .24 0 .24.24v1.81h10.68a3.09 3.09 0 0 0 1.82-.48v.47h3.39a3.13 3.13 0 0 0 1.89-.32zm-15.73-2.84a1.79 1.79 0 0 1 .24 1v1.1h-1.31v-.71a1.76 1.76 0 0 0-.24-1.1c-.16-.24-.47-.24-.95-.24h-1.41v2.05h-1.33v-5.6h3a3.18 3.18 0 0 1 1.58.24 1.4 1.4 0 0 1 .71 1.26 1.57 1.57 0 0 1-.95 1.5 1.35 1.35 0 0 1 .71.47zm5.48-2.32h-3.08v1h3v1.1h-3v1.1h3.08v1.18h-4.42v-5.6h4.42zm3.31 4.42h-2.52v-1.15h2.52a.67.67 0 0 0 .55-.16.57.57 0 0 0 0-.79.67.67 0 0 0-.47-.16c-1.26-.08-2.76 0-2.76-1.74 0-.79.47-1.66 1.89-1.66h2.6v1.34h-2.44a1.17 1.17 0 0 0-.55.08c-.16.08-.16.24-.16.39s.16.32.32.39a1 1 0 0 0 .47.08h.71a2 2 0 0 1 1.5.47 1.63 1.63 0 0 1 .39 1.18c0 1.18-.71 1.74-2.05 1.74zm0 0M45.58 28.59c0 .24.08.32.32.39a1 1 0 0 0 .47.08h.71a2.29 2.29 0 0 1 1.1.24l-1.18-1.18h-.71a1.17 1.17 0 0 0-.55.08.6.6 0 0 0-.16.39zm0 0M42.82 23.86l.16.24h.08zm0 0M38.48 19.52l1.34 3.23v-1.89zm0 0M25 22.12h.16c.16 0 .16 0 .16.24v1.74h5.68v-.47a4.72 4.72 0 0 0 2.13.47h2.37l.5-1.27h1.1l.47 1.26h4.58v-.79l-1.15-1.1v.87h-2.68l-.39-1.26h-2.76l-.47 1.26h-1.5a2.75 2.75 0 0 1-1.89-.63 2.77 2.77 0 0 1-.71-2.13 3.23 3.23 0 0 1 .71-2.21 2.49 2.49 0 0 1 2-.63h1.26v1.18h-1.3a1.45 1.45 0 0 0-1 .32 1.85 1.85 0 0 0-.39 1.26 1.72 1.72 0 0 0 .39 1.34 1.26 1.26 0 0 0 .95.32h.55l1.81-4.34h.79l-1.1-1.1h-2.08a4.8 4.8 0 0 0-2.21.47v-.47h-3.47v.47a2.28 2.28 0 0 0-1.5-.47h-12.69l-.87 2-.87-2h-3.47l1.1 1.1h1.58l1.34 2.92.47.47 1.4-3.47h2.21v5.6h-1.32v-4.34l-1.34 3.16 2.29 2.29h9.07zm3.63-4.65h1.37v5.6h-1.38zm-6.94 1.18h-3.09v1h3v1.1h-3v1.1h3.08v1.18h-4.42v-5.6h4.42zm2.2 4.35h-1.34v-5.6h3a3 3 0 0 1 1.58.24 1.34 1.34 0 0 1 .63 1.26 1.57 1.57 0 0 1-.95 1.5 1 1 0 0 1 .63.47 2 2 0 0 1 .24 1v1.13h-1.35v-.71a1.88 1.88 0 0 0-.24-1.1c-.09-.19-.31-.19-.78-.19h-1.42zm0 0"/>
        </symbol>
        <symbol id="mastercard">
            <path d="M1.32 10.05h47.37v29.95h-47.37z"/>
            <path class="cls-1" d="M14.54 37.5v-1.69a1 1 0 0 0-.9-1.06h-.14a1 1 0 0 0-.95.48 1 1 0 0 0-.89-.48.92.92 0 0 0-.81.39v-.33h-.55v2.69h.55v-1.5a.65.65 0 0 1 .57-.71h.11c.39 0 .61.25.61.71v1.5h.55v-1.5a.65.65 0 0 1 .58-.71h.1c.4 0 .61.25.61.71v1.5zm8.77-2.69h-1v-.81h-.55v.82h-.56v.49h.56v1.27c0 .62.22 1 .91 1a1.38 1.38 0 0 0 .73-.21l-.17-.48a1.08 1.08 0 0 1-.52.15c-.28 0-.41-.18-.41-.45v-1.3h1zm5-.07a.84.84 0 0 0-.73.39v-.33h-.58v2.7h.54v-1.5c0-.44.21-.73.6-.73a1 1 0 0 1 .37.07l.18-.51a1.25 1.25 0 0 0-.42-.07zm-7.56.26a2 2 0 0 0-1.1-.28c-.68 0-1.1.32-1.1.84s.3.7.91.79h.28c.32 0 .5.16.5.31s-.24.34-.64.34a1.41 1.41 0 0 1-.89-.28l-.28.42a2 2 0 0 0 1.17.35c.78 0 1.21-.36 1.21-.87s-.33-.71-.91-.79h-.28c-.25 0-.48-.11-.48-.28s.21-.33.53-.33a1.74 1.74 0 0 1 .84.23zm8.16 1.13a1.34 1.34 0 0 0 1.27 1.41h.13a1.41 1.41 0 0 0 1-.32l-.31-.41a1.18 1.18 0 0 1-.7.24.92.92 0 0 1 0-1.83 1.18 1.18 0 0 1 .7.24l.28-.42a1.41 1.41 0 0 0-1-.32 1.34 1.34 0 0 0-1.37 1.28v.13zm-3.79-1.41a1.3 1.3 0 0 0-1.33 1.41 1.33 1.33 0 0 0 1.21 1.43h.13a1.64 1.64 0 0 0 1.1-.38l-.28-.4a1.28 1.28 0 0 1-.78.28.79.79 0 0 1-.81-.69h2v-.23a1.27 1.27 0 0 0-1.27-1.41zm0 .5a.69.69 0 0 1 .71.66h-1.44a.72.72 0 0 1 .74-.68zm-7.29.91v-1.32h-.54v.33a1.07 1.07 0 0 0-.87-.39 1.41 1.41 0 0 0 0 2.83 1.07 1.07 0 0 0 .87-.39v.33h.54zm-2.18 0a.84.84 0 0 1 .77-.91h.07a.92.92 0 0 1 0 1.83.84.84 0 0 1-.85-.84v-.07zm20.79-1.41a.84.84 0 0 0-.73.39v-.33h-.53v2.72h.54v-1.5c0-.44.21-.73.6-.73a1 1 0 0 1 .37.07l.18-.51a1.25 1.25 0 0 0-.42-.07zm4.34 2.37h.11l.09.06a.28.28 0 0 1 .06.08.26.26 0 0 1 0 .21.28.28 0 0 1-.06.08l-.09.06h-.11a.28.28 0 0 1-.25-.16.26.26 0 0 1 0-.21.28.28 0 0 1 .06-.08l.09-.06h.11zm0 .48h.14a.21.21 0 0 0 0-.28h-.29000000000000004a.21.21 0 0 0 0 .28h.15000000000000002zm0-.33h.07a.07.07 0 0 1 0 .06.07.07 0 0 1 0 .05h-.06l.08.09h-.06l-.08-.09v.09h-.05v-.25zm-.06 0v.07h.1zm-6.37-1.15v-1.28h-.54v.33a1.07 1.07 0 0 0-.87-.39 1.41 1.41 0 0 0 0 2.83 1.07 1.07 0 0 0 .87-.39v.33h.54zm-2.18 0a.84.84 0 0 1 .77-.91h.06a.92.92 0 0 1 0 1.83.84.84 0 0 1-.85-.84v-.07zm7.62 0v-2.37h-.54v1.41a1.07 1.07 0 0 0-.87-.39 1.41 1.41 0 0 0 0 2.83 1.07 1.07 0 0 0 .87-.39v.33h.54zm-2.18 0a.84.84 0 0 1 .77-.91h.07a.92.92 0 0 1 0 1.82.84.84 0 0 1-.85-.84v-.07z"/>

            <path class="cls-2" d="M20.57 14.31h8.86v15.93h-8.86z"/>
            <path id="_Path_2" class="cls-3" d="M21.13 22.27a10.11 10.11 0 0 1 3.87-8 10.13 10.13 0 1 0 0 15.93 10.11 10.11 0 0 1-3.87-7.93z"/><path class="cls-4" d="M40.43 28.55v-.33h.13v-.07h-.33v.07h.13v.33zm.65 0v-.39h-.08l-.12.28-.12-.28h-.1v.39h.07v-.3l.11.26h.08l.11-.26v.3zM41.39 22.27a10.13 10.13 0 0 1-16.39 8 10.13 10.13 0 0 0 0-15.93 10.13 10.13 0 0 1 16.39 8z"/>
        </symbol>
        <symbol id="ideal">
            <rect x="11.78" y="26.86" width="5.45" height="9.04"/>
            <circle cx="14.56" cy="22.34" r="3.08"/>
            <path d="M27.55,10.18H8V39.82H27.55c4.27-.06,7.65-1.12,10.05-3.16C40.52,34.17,42,30.25,42,25a18.08,18.08,0,0,0-1.16-6.69,12.19,12.19,0,0,0-3.23-4.66,15.24,15.24,0,0,0-10.07-3.46Zm-.37,2c3.79,0,6.94,1,9.13,3C38.78,17.31,40,20.64,40,25c0,8.65-4.2,12.85-12.85,12.85H10V12.15Z"/>
            <path class="cls-1" d="M26.64,35.92H19.73V14.55h6.63c5.76,0,11.9,2.27,11.9,10.71,0,8.92-6.13,10.66-11.9,10.66Z"/>
            <path class="cls-2" d="M22.29,20.54a1.87,1.87,0,0,0-.84-.51,3.8,3.8,0,0,0-1-.1h-2v5.42h2.09a3.29,3.29,0,0,0,1-.12,2,2,0,0,0,.79-.44,2.42,2.42,0,0,0,.59-1A3.54,3.54,0,0,0,23,22.68a4,4,0,0,0-.18-1.26A2.4,2.4,0,0,0,22.29,20.54Zm-2.57.54H20a4.42,4.42,0,0,1,.82,0,.86.86,0,0,1,.42.21,1,1,0,0,1,.26.44,2.94,2.94,0,0,1,.1.87,3.22,3.22,0,0,1-.1.9,1,1,0,0,1-.23.43.83.83,0,0,1-.36.18,2.74,2.74,0,0,1-.6,0h-.64Z"/>
            <path class="cls-2" d="M25.2,23.09h2.58V21.93H25.2v-.86H28V19.92H23.88v5.42h4.19V24.19H25.2Z"/>
            <path class="cls-2" d="M30.48,19.92l-2.11,5.42h1.41l.43-1.17h1.86l.45,1.17h1.43l-2.17-5.42ZM31.62,23h-1l.5-1.36Z"/>
            <path class="cls-2" d="M35.78,24.19V20H34.46v5.38h3.9V24.19Z"/>
        </symbol>
        <symbol id="transfer">
            <path class="cls-1" d="M46.72 37.41a2.57 2.57 0 0 1-2.57 2.59h-38.3a2.57 2.57 0 0 1-2.57-2.57v-24.84a2.57 2.57 0 0 1 2.57-2.59h38.3a2.57 2.57 0 0 1 2.57 2.57v24.84z"/><path class="cls-2" d="M18 19.74h2.66c1 0 2.06.24 2.06 1.43a1.28 1.28 0 0 1-.72 1.15 1.35 1.35 0 0 1 1 1.35c0 1.36-1 1.77-2.22 1.77h-2.78zm1.47 2.26h1.15a.55.55 0 0 0 .61-.54c0-.41-.3-.55-.61-.55h-1.15zm0 2.26h1.19c.47 0 .8-.17.8-.64s-.35-.67-.8-.67h-1.19zM25.29 19.74h1.51l2.13 5.69h-1.55l-.35-1h-2.03l-.36 1h-1.48zm.1 3.57h1.29l-.63-2zM29.34 19.74h1.52l2 3.51v-3.51h1.4v5.69h-1.53l-2-3.55v3.55h-1.4zM35.26 19.74h1.48v2.18l1.87-2.18h1.84l-2.09 2.26 2.37 3.45h-1.85l-1.53-2.45-.61.64v1.75h-1.48v-5.65z"/><path class="cls-3" d="M20.55 27.53h-.89v2.31h-.77v-2.31h-.89v-.67h2.55zM20.89 26.86h1.52c.52 0 1 .24 1 .84a.76.76 0 0 1-.47.75c.32.08.41.43.43.71 0 .12 0 .56.12.67h-.77a1.44 1.44 0 0 1-.09-.47c0-.3-.07-.61-.43-.61h-.59v1.08h-.77zm.77 1.29h.65a.32.32 0 0 0 .36-.35c0-.22-.17-.32-.39-.32h-.62zM24.71 26.86h.79l1.11 3h-.81l-.18-.53h-1l-.19.53h-.8zm0 1.87h.67l-.33-1zM26.82 26.86h.8l1 1.83v-1.83h.73v3h-.8l-1-1.85v1.85h-.73zM30.52 28.84c0 .35.23.46.56.46s.47-.08.47-.3-.42-.31-.85-.43-.87-.31-.87-.86.65-.9 1.21-.9 1.19.29 1.19 1h-.77c0-.27-.24-.36-.48-.36s-.37.06-.37.25.43.27.86.39.86.32.86.86c0 .75-.64 1-1.3 1s-1.29-.3-1.29-1.06h.77zM32.7 26.86h2.19v.62h-1.42v.61h1.22v.6h-1.22v1.15h-.77zM35.24 26.86h2.37v.62h-1.61v.52h1.46v.6h-1.46v.57h1.64v.67h-2.4v-3zM38.09 26.86h1.52c.52 0 1 .24 1 .84a.76.76 0 0 1-.47.75c.32.08.41.43.43.71 0 .12 0 .56.12.67h-.69a1.44 1.44 0 0 1-.09-.47c0-.3-.07-.61-.43-.61h-.59v1.08h-.77v-3zm.77 1.29h.65a.32.32 0 0 0 .36-.35c0-.22-.17-.32-.39-.32h-.62z"/><path class="cls-2" d="M9.27 26.72v-.41a4.41 4.41 0 0 1 0-.53 2.71 2.71 0 0 1 .12-.62 3.31 3.31 0 0 1 .24-.68l.16-.35.21-.34a4.16 4.16 0 0 1 .5-.65 7.24 7.24 0 0 1 .6-.57c.22-.16.43-.33.65-.46a6.57 6.57 0 0 1 .65-.36c.21-.12.42-.19.61-.28s.56-.21.78-.27a4.25 4.25 0 0 1-.23-.7 3.78 3.78 0 0 1-.12-.81 3.85 3.85 0 0 1 .76.32 5.1 5.1 0 0 1 .64.41 6.24 6.24 0 0 1 1 1 .82.82 0 0 1 .08.95v.06a6.31 6.31 0 0 1-1 1.3 5.11 5.11 0 0 1-.67.55l-.39.24a3.13 3.13 0 0 1-.44.21 3.22 3.22 0 0 1 0-.49c0-.15 0-.3.06-.45a4.67 4.67 0 0 1 .22-.84v-.08h-.3c-.17 0-.36.06-.55.11a5.36 5.36 0 0 0-.59.18c-.21.06-.4.17-.62.26a5.27 5.27 0 0 0-.59.36 3.25 3.25 0 0 0-.53.44l-.24.24-.2.27a3 3 0 0 0-.34.55 2.48 2.48 0 0 0-.23.54 3.76 3.76 0 0 0-.16.48l-.07.39-.06.35v-.35z"/><path class="cls-3" d="M15.46 26.13a5.48 5.48 0 0 1-.58.37c-.21.09-.4.21-.61.28a5.52 5.52 0 0 1-.59.2l-.54.13h-.3v-.08a5 5 0 0 0 .2-.84v-.46a3.27 3.27 0 0 0 0-.49 3.36 3.36 0 0 0-.44.22l-.38.25a5.16 5.16 0 0 0-.65.57 6.32 6.32 0 0 0-1 1.33v.06a.82.82 0 0 0 .11.95 6.12 6.12 0 0 0 1.07 1 5 5 0 0 0 .65.39 3.65 3.65 0 0 0 .76.29 3.93 3.93 0 0 0-.14-.81 4.86 4.86 0 0 0-.24-.69c.21-.07.47-.17.76-.29s.4-.17.61-.3a6 6 0 0 0 .64-.39c.22-.13.42-.32.64-.48a6.27 6.27 0 0 0 .58-.59 4.15 4.15 0 0 0 .48-.66l.2-.34.15-.35a3.3 3.3 0 0 0 .21-.69 2.53 2.53 0 0 0 .1-.63 3.66 3.66 0 0 0 0-.53v-.76l-.05.34-.06.39a3.72 3.72 0 0 1-.04.48 2.66 2.66 0 0 1-.22.55 3 3 0 0 1-.32.56l-.19.27a3.07 3.07 0 0 1-.24.25 3.17 3.17 0 0 1-.52.46z"/>
        </symbol>
        <symbol id="qrcode">
            <path class="cls-1" d="M7.5 7.5h35.01v35.01h-35.01z"/><path d="M21.29 9.62h1.08v1.08h-1.08zM22.35 9.62h1.08v1.08h-1.08zM23.41 9.62h1.08v1.08h-1.08zM24.47 9.62h1.08v1.08h-1.08zM26.59 9.62h1.08v1.08h-1.08zM27.65 9.62h1.08v1.08h-1.08zM28.71 9.62h1.08v1.08h-1.08zM29.77 9.62h1.08v1.08h-1.08zM20.23 10.68h1.08v1.08h-1.08zM22.35 10.68h1.08v1.08h-1.08zM23.41 10.68h1.08v1.08h-1.08zM24.47 10.68h1.08v1.08h-1.08zM25.53 10.68h1.08v1.08h-1.08zM27.65 10.68h1.08v1.08h-1.08zM28.71 10.68h1.08v1.08h-1.08zM30.83 10.68h1.08v1.08h-1.08zM19.17 11.74h1.08v1.08h-1.08zM21.29 11.74h1.08v1.08h-1.08zM22.35 11.74h1.08v1.08h-1.08zM23.41 11.74h1.08v1.08h-1.08zM27.65 11.74h1.08v1.08h-1.08zM28.71 11.74h1.08v1.08h-1.08zM19.17 12.8h1.08v1.08h-1.08zM20.23 12.8h1.08v1.08h-1.08zM22.35 12.8h1.08v1.08h-1.08zM23.41 12.8h1.08v1.08h-1.08zM24.47 12.8h1.08v1.08h-1.08zM25.53 12.8h1.08v1.08h-1.08zM28.71 12.8h1.08v1.08h-1.08zM29.77 12.8h1.08v1.08h-1.08zM23.41 13.86h1.08v1.08h-1.08zM24.47 13.86h1.08v1.08h-1.08zM25.53 13.86h1.08v1.08h-1.08zM26.59 13.86h1.08v1.08h-1.08zM27.65 13.86h1.08v1.08h-1.08zM28.71 13.86h1.08v1.08h-1.08zM18.11 14.92h1.08v1.08h-1.08zM19.17 14.92h1.08v1.08h-1.08zM20.23 14.92h1.08v1.08h-1.08zM22.35 14.92h1.08v1.08h-1.08zM23.41 14.92h1.08v1.08h-1.08zM24.47 14.92h1.08v1.08h-1.08zM25.53 14.92h1.08v1.08h-1.08zM28.71 14.92h1.08v1.08h-1.08zM29.77 14.92h1.08v1.08h-1.08zM30.83 14.92h1.08v1.08h-1.08zM18.11 15.98h1.08v1.08h-1.08zM20.23 15.98h1.08v1.08h-1.08zM22.35 15.98h1.08v1.08h-1.08zM24.47 15.98h1.08v1.08h-1.08zM26.59 15.98h1.08v1.08h-1.08zM28.71 15.98h1.08v1.08h-1.08zM30.83 15.98h1.08v1.08h-1.08zM19.17 17.04h1.08v1.08h-1.08zM20.23 17.04h1.08v1.08h-1.08zM22.35 17.04h1.08v1.08h-1.08zM24.47 17.04h1.08v1.08h-1.08zM26.59 17.04h1.08v1.08h-1.08zM27.65 17.04h1.08v1.08h-1.08zM30.83 17.04h1.08v1.08h-1.08zM9.62 18.11h1.08v1.08h-1.08zM12.8 18.11h1.08v1.08h-1.08zM14.92 18.11h1.08v1.08h-1.08zM15.98 18.11h1.08v1.08h-1.08zM18.11 18.11h1.08v1.08h-1.08zM19.17 18.11h1.08v1.08h-1.08zM21.29 18.11h1.08v1.08h-1.08zM22.35 18.11h1.08v1.08h-1.08zM26.59 18.11h1.08v1.08h-1.08zM30.83 18.11h1.08v1.08h-1.08zM31.89 18.11h1.08v1.08h-1.08zM34.02 18.11h1.08v1.08h-1.08zM9.62 19.17h1.08v1.08h-1.08zM14.92 19.17h1.08v1.08h-1.08zM19.17 19.17h1.08v1.08h-1.08zM20.23 19.17h1.08v1.08h-1.08zM22.35 19.17h1.08v1.08h-1.08zM24.47 19.17h1.08v1.08h-1.08zM26.59 19.17h1.08v1.08h-1.08zM27.65 19.17h1.08v1.08h-1.08zM30.83 19.17h1.08v1.08h-1.08zM31.89 19.17h1.08v1.08h-1.08zM32.96 19.17h1.08v1.08h-1.08zM36.14 19.17h1.08v1.08h-1.08zM39.32 19.17h1.08v1.08h-1.08zM10.68 20.23h1.08v1.08h-1.08zM11.74 20.23h1.08v1.08h-1.08zM15.98 20.23h1.08v1.08h-1.08zM17.04 20.23h1.08v1.08h-1.08zM18.11 20.23h1.08v1.08h-1.08zM20.23 20.23h1.08v1.08h-1.08zM21.29 20.23h1.08v1.08h-1.08zM22.35 20.23h1.08v1.08h-1.08zM29.77 20.23h1.08v1.08h-1.08zM32.96 20.23h1.08v1.08h-1.08zM36.14 20.23h1.08v1.08h-1.08zM37.2 20.23h1.08v1.08h-1.08zM38.26 20.23h1.08v1.08h-1.08zM9.62 21.29h1.08v1.08h-1.08zM18.11 21.29h1.08v1.08h-1.08zM24.47 21.29h1.08v1.08h-1.08zM26.59 21.29h1.08v1.08h-1.08zM28.71 21.29h1.08v1.08h-1.08zM29.77 21.29h1.08v1.08h-1.08zM32.96 21.29h1.08v1.08h-1.08zM34.02 21.29h1.08v1.08h-1.08zM35.08 21.29h1.08v1.08h-1.08zM37.2 21.29h1.08v1.08h-1.08zM38.26 21.29h1.08v1.08h-1.08zM9.62 22.35h1.08v1.08h-1.08zM15.98 22.35h1.08v1.08h-1.08zM17.04 22.35h1.08v1.08h-1.08zM19.17 22.35h1.08v1.08h-1.08zM20.23 22.35h1.08v1.08h-1.08zM22.35 22.35h1.08v1.08h-1.08zM25.53 22.35h1.08v1.08h-1.08zM26.59 22.35h1.08v1.08h-1.08zM27.65 22.35h1.08v1.08h-1.08zM30.83 22.35h1.08v1.08h-1.08zM31.89 22.35h1.08v1.08h-1.08zM32.96 22.35h1.08v1.08h-1.08zM36.14 22.35h1.08v1.08h-1.08zM38.26 22.35h1.08v1.08h-1.08zM39.32 22.35h1.08v1.08h-1.08zM10.68 23.41h1.08v1.08h-1.08zM12.8 23.41h1.08v1.08h-1.08zM13.86 23.41h1.08v1.08h-1.08zM14.92 23.41h1.08v1.08h-1.08zM18.11 23.41h1.08v1.08h-1.08zM19.17 23.41h1.08v1.08h-1.08zM26.59 23.41h1.08v1.08h-1.08zM27.65 23.41h1.08v1.08h-1.08zM28.71 23.41h1.08v1.08h-1.08zM29.77 23.41h1.08v1.08h-1.08zM30.83 23.41h1.08v1.08h-1.08zM31.89 23.41h1.08v1.08h-1.08zM10.68 24.47h1.08v1.08h-1.08zM12.8 24.47h1.08v1.08h-1.08zM14.92 24.47h1.08v1.08h-1.08zM15.98 24.47h1.08v1.08h-1.08zM17.04 24.47h1.08v1.08h-1.08zM18.11 24.47h1.08v1.08h-1.08zM21.29 24.47h1.08v1.08h-1.08zM22.35 24.47h1.08v1.08h-1.08zM28.71 24.47h1.08v1.08h-1.08zM34.02 24.47h1.08v1.08h-1.08zM36.14 24.47h1.08v1.08h-1.08zM37.2 24.47h1.08v1.08h-1.08zM38.26 24.47h1.08v1.08h-1.08zM39.32 24.47h1.08v1.08h-1.08zM10.68 25.53h1.08v1.08h-1.08zM13.86 25.53h1.08v1.08h-1.08zM14.92 25.53h1.08v1.08h-1.08zM18.11 25.53h1.08v1.08h-1.08zM20.23 25.53h1.08v1.08h-1.08zM21.29 25.53h1.08v1.08h-1.08zM22.35 25.53h1.08v1.08h-1.08zM23.41 25.53h1.08v1.08h-1.08zM24.47 25.53h1.08v1.08h-1.08zM25.53 25.53h1.08v1.08h-1.08zM26.59 25.53h1.08v1.08h-1.08zM27.65 25.53h1.08v1.08h-1.08zM29.77 25.53h1.08v1.08h-1.08zM34.02 25.53h1.08v1.08h-1.08zM35.08 25.53h1.08v1.08h-1.08zM36.14 25.53h1.08v1.08h-1.08zM38.26 25.53h1.08v1.08h-1.08zM9.62 26.59h1.08v1.08h-1.08zM11.74 26.59h1.08v1.08h-1.08zM14.92 26.59h1.08v1.08h-1.08zM15.98 26.59h1.08v1.08h-1.08zM17.04 26.59h1.08v1.08h-1.08zM19.17 26.59h1.08v1.08h-1.08zM20.23 26.59h1.08v1.08h-1.08zM23.41 26.59h1.08v1.08h-1.08zM24.47 26.59h1.08v1.08h-1.08zM27.65 26.59h1.08v1.08h-1.08zM30.83 26.59h1.08v1.08h-1.08zM31.89 26.59h1.08v1.08h-1.08zM38.26 26.59h1.08v1.08h-1.08zM10.68 27.65h1.08v1.08h-1.08zM11.74 27.65h1.08v1.08h-1.08zM12.8 27.65h1.08v1.08h-1.08zM13.86 27.65h1.08v1.08h-1.08zM19.17 27.65h1.08v1.08h-1.08zM20.23 27.65h1.08v1.08h-1.08zM26.59 27.65h1.08v1.08h-1.08zM27.65 27.65h1.08v1.08h-1.08zM31.89 27.65h1.08v1.08h-1.08zM32.96 27.65h1.08v1.08h-1.08zM34.02 27.65h1.08v1.08h-1.08zM36.14 27.65h1.08v1.08h-1.08zM39.32 27.65h1.08v1.08h-1.08zM9.62 28.71h1.08v1.08h-1.08zM13.86 28.71h1.08v1.08h-1.08zM14.92 28.71h1.08v1.08h-1.08zM15.98 28.71h1.08v1.08h-1.08zM19.17 28.71h1.08v1.08h-1.08zM21.29 28.71h1.08v1.08h-1.08zM23.41 28.71h1.08v1.08h-1.08zM26.59 28.71h1.08v1.08h-1.08zM31.89 28.71h1.08v1.08h-1.08zM34.02 28.71h1.08v1.08h-1.08zM35.08 28.71h1.08v1.08h-1.08zM38.26 28.71h1.08v1.08h-1.08zM39.32 28.71h1.08v1.08h-1.08zM11.74 29.77h1.08v1.08h-1.08zM12.8 29.77h1.08v1.08h-1.08zM14.92 29.77h1.08v1.08h-1.08zM17.04 29.77h1.08v1.08h-1.08zM18.11 29.77h1.08v1.08h-1.08zM19.17 29.77h1.08v1.08h-1.08zM20.23 29.77h1.08v1.08h-1.08zM23.41 29.77h1.08v1.08h-1.08zM25.53 29.77h1.08v1.08h-1.08zM27.65 29.77h1.08v1.08h-1.08zM29.77 29.77h1.08v1.08h-1.08zM31.89 29.77h1.08v1.08h-1.08zM34.02 29.77h1.08v1.08h-1.08zM35.08 29.77h1.08v1.08h-1.08zM38.26 29.77h1.08v1.08h-1.08zM39.32 29.77h1.08v1.08h-1.08zM9.62 30.83h1.08v1.08h-1.08zM11.74 30.83h1.08v1.08h-1.08zM12.8 30.83h1.08v1.08h-1.08zM13.86 30.83h1.08v1.08h-1.08zM15.98 30.83h1.08v1.08h-1.08zM17.04 30.83h1.08v1.08h-1.08zM21.29 30.83h1.08v1.08h-1.08zM24.47 30.83h1.08v1.08h-1.08zM30.83 30.83h1.08v1.08h-1.08zM31.89 30.83h1.08v1.08h-1.08zM32.96 30.83h1.08v1.08h-1.08zM34.02 30.83h1.08v1.08h-1.08zM35.08 30.83h1.08v1.08h-1.08zM37.2 30.83h1.08v1.08h-1.08zM18.11 31.89h1.08v1.08h-1.08zM19.17 31.89h1.08v1.08h-1.08zM21.29 31.89h1.08v1.08h-1.08zM22.35 31.89h1.08v1.08h-1.08zM23.41 31.89h1.08v1.08h-1.08zM26.59 31.89h1.08v1.08h-1.08zM30.83 31.89h1.08v1.08h-1.08zM35.08 31.89h1.08v1.08h-1.08zM37.2 31.89h1.08v1.08h-1.08zM38.26 31.89h1.08v1.08h-1.08zM39.32 31.89h1.08v1.08h-1.08zM23.41 32.96h1.08v1.08h-1.08zM24.47 32.96h1.08v1.08h-1.08zM26.59 32.96h1.08v1.08h-1.08zM28.71 32.96h1.08v1.08h-1.08zM30.83 32.96h1.08v1.08h-1.08zM32.96 32.96h1.08v1.08h-1.08zM35.08 32.96h1.08v1.08h-1.08zM38.26 32.96h1.08v1.08h-1.08zM18.11 34.02h1.08v1.08h-1.08zM19.17 34.02h1.08v1.08h-1.08zM20.23 34.02h1.08v1.08h-1.08zM22.35 34.02h1.08v1.08h-1.08zM23.41 34.02h1.08v1.08h-1.08zM28.71 34.02h1.08v1.08h-1.08zM30.83 34.02h1.08v1.08h-1.08zM35.08 34.02h1.08v1.08h-1.08zM36.14 34.02h1.08v1.08h-1.08zM37.2 34.02h1.08v1.08h-1.08zM38.26 34.02h1.08v1.08h-1.08zM19.17 35.08h1.08v1.08h-1.08zM20.23 35.08h1.08v1.08h-1.08zM21.29 35.08h1.08v1.08h-1.08zM24.47 35.08h1.08v1.08h-1.08zM27.65 35.08h1.08v1.08h-1.08zM30.83 35.08h1.08v1.08h-1.08zM31.89 35.08h1.08v1.08h-1.08zM32.96 35.08h1.08v1.08h-1.08zM34.02 35.08h1.08v1.08h-1.08zM35.08 35.08h1.08v1.08h-1.08zM38.26 35.08h1.08v1.08h-1.08zM39.32 35.08h1.08v1.08h-1.08zM18.11 36.14h1.08v1.08h-1.08zM20.23 36.14h1.08v1.08h-1.08zM21.29 36.14h1.08v1.08h-1.08zM23.41 36.14h1.08v1.08h-1.08zM24.47 36.14h1.08v1.08h-1.08zM27.65 36.14h1.08v1.08h-1.08zM29.77 36.14h1.08v1.08h-1.08zM32.96 36.14h1.08v1.08h-1.08zM34.02 36.14h1.08v1.08h-1.08zM35.08 36.14h1.08v1.08h-1.08zM36.14 36.14h1.08v1.08h-1.08zM37.2 36.14h1.08v1.08h-1.08zM38.26 36.14h1.08v1.08h-1.08zM19.17 37.2h1.08v1.08h-1.08zM22.35 37.2h1.08v1.08h-1.08zM23.41 37.2h1.08v1.08h-1.08zM24.47 37.2h1.08v1.08h-1.08zM26.59 37.2h1.08v1.08h-1.08zM27.65 37.2h1.08v1.08h-1.08zM30.83 37.2h1.08v1.08h-1.08zM35.08 37.2h1.08v1.08h-1.08zM36.14 37.2h1.08v1.08h-1.08zM37.2 37.2h1.08v1.08h-1.08zM39.32 37.2h1.08v1.08h-1.08zM19.17 38.26h1.08v1.08h-1.08zM20.23 38.26h1.08v1.08h-1.08zM26.59 38.26h1.08v1.08h-1.08zM27.65 38.26h1.08v1.08h-1.08zM28.71 38.26h1.08v1.08h-1.08zM29.77 38.26h1.08v1.08h-1.08zM30.83 38.26h1.08v1.08h-1.08zM38.26 38.26h1.08v1.08h-1.08zM18.11 39.32h1.08v1.08h-1.08zM20.23 39.32h1.08v1.08h-1.08zM21.29 39.32h1.08v1.08h-1.08zM22.35 39.32h1.08v1.08h-1.08zM27.65 39.32h1.08v1.08h-1.08zM30.83 39.32h1.08v1.08h-1.08zM34.02 39.32h1.08v1.08h-1.08zM36.14 39.32h1.08v1.08h-1.08zM38.26 39.32h1.08v1.08h-1.08z"/><path class="cls-2" d="M10.73 10.73h5.2v5.2h-5.2z"/><path d="M15.93 9.62h-6.31v7.38h7.38v-7.38zm0 6.31h-5.2v-5.2h5.2z"/><path class="cls-2" d="M34.07 10.73h5.2v5.2h-5.2z"/><path d="M39.27 9.62h-6.27v7.38h7.43v-7.38zm0 6.31h-5.2v-5.2h5.2z"/><path class="cls-2" d="M10.73 34.07h5.2v5.2h-5.2z"/><path d="M15.93 33h-6.31v7.43h7.38v-7.43zm0 6.31h-5.2v-5.2h5.2zM11.74 11.74h3.18v3.18h-3.18zM35.08 11.74h3.18v3.18h-3.18zM11.74 35.08h3.18v3.18h-3.18z"/>
        </symbol>
        <symbol id="kbc-mobile">
            <rect class="cls-1" x="8.63" y="8.63" width="32.75" height="32.75" rx="7.52" ry="7.52"/><path class="cls-2" d="M20.14 35.9v1.25h-1.6v-3.32h1.59v1.49l.94-1.49h1.93l-1.4 1.71 1.32 1.6h-1.83l-.94-1.25zM32 37a4.78 4.78 0 0 1-1.31.18c-1.58 0-2.73-.45-2.73-1.75s1.12-1.69 2.65-1.69a4.91 4.91 0 0 1 1.39.18v1.14a1.94 1.94 0 0 0-1.08-.31c-.58 0-1.17.29-1.17.71s.58.71 1.17.71a2 2 0 0 0 1.08-.3zM23.26 33.83h3.22c.84 0 1.11.33 1.11.83s-.51.81-1 .84c.53 0 1.05.1 1.05.77 0 .44-.27.86-1.19.86h-3.19zm1.59 2.64h.83c.31 0 .42-.13.42-.32s-.11-.33-.41-.33h-.83zm0-1.24h.79c.31 0 .43-.12.43-.31s-.12-.33-.4-.33h-.82zM33.83 15h-17.21a1 1 0 0 0-1 1v12.61a1.3 1.3 0 0 0 1.3 1.3h16.62a1.3 1.3 0 0 0 1.3-1.3v-12.61a1 1 0 0 0-1.01-1zm.56 9.16a.07.07 0 0 1-.07.07h-4.58a.07.07 0 0 1-.07-.07v-3.48h4.72zm-17.77-8.72h17.21a.56.56 0 0 1 .56.56v.9h-18.32v-.9a.56.56 0 0 1 .55-.56zm16.92 14h-16.63a.85.85 0 0 1-.85-.85v-11.24h18.33v2.88h-4.73a.44.44 0 0 0-.44.44v3.48a.52.52 0 0 0 .52.52h4.65v3.95a.85.85 0 0 1-.85.83z"/><circle class="cls-2" cx="31.21" cy="22.45" r=".78"/>
        </symbol>
        <symbol id="cbc-mobile">
            <rect class="cls-1" x="8.63" y="8.63" width="32.75" height="32.75" rx="7.52" ry="7.52"/><path class="cls-2" d="M32 37a4.78 4.78 0 0 1-1.31.18c-1.58 0-2.73-.45-2.73-1.75s1.12-1.69 2.65-1.69a4.91 4.91 0 0 1 1.39.18v1.14a1.94 1.94 0 0 0-1.08-.31c-.58 0-1.17.29-1.17.71s.58.71 1.17.71a2 2 0 0 0 1.08-.3zM23.26 33.83h3.22c.84 0 1.11.33 1.11.83s-.51.81-1 .84c.53 0 1.05.1 1.05.77 0 .44-.27.86-1.19.86h-3.19zm1.59 2.64h.83c.31 0 .42-.13.42-.32s-.11-.33-.41-.33h-.83zm0-1.24h.79c.31 0 .43-.12.43-.31s-.12-.33-.4-.33h-.82zM22.77 37a4.78 4.78 0 0 1-1.31.18c-1.58 0-2.73-.45-2.73-1.75s1.12-1.69 2.65-1.69a4.91 4.91 0 0 1 1.39.18v1.14a1.94 1.94 0 0 0-1.08-.31c-.58 0-1.17.29-1.17.71s.58.71 1.17.71a2 2 0 0 0 1.08-.3zM33.83 15h-17.21a1 1 0 0 0-1 1v12.61a1.3 1.3 0 0 0 1.3 1.3h16.62a1.3 1.3 0 0 0 1.3-1.3v-12.61a1 1 0 0 0-1.01-1zm.56 9.16a.07.07 0 0 1-.07.07h-4.58a.07.07 0 0 1-.07-.07v-3.48h4.72zm-17.77-8.72h17.21a.56.56 0 0 1 .56.56v.9h-18.32v-.9a.56.56 0 0 1 .55-.56zm16.92 14h-16.63a.85.85 0 0 1-.85-.85v-11.24h18.33v2.88h-4.73a.44.44 0 0 0-.44.44v3.48a.52.52 0 0 0 .52.52h4.65v3.95a.85.85 0 0 1-.85.83z"/><circle class="cls-2" cx="31.21" cy="22.45" r=".78"/>
        </symbol>
        <symbol id="wallet">
            <linearGradient id="linear-gradient" x1="33.87" y1="24.3" x2="24.66" y2="28.41" gradientUnits="userSpaceOnUse">
                <stop offset="0" stop-color="#fc0"/>
                <stop offset="1" stop-color="#c90"/>
            </linearGradient>
            <linearGradient id="linear-gradient-2" x1="13.63" y1="18.87" x2="24.1" y2="33.19" gradientUnits="userSpaceOnUse">
                <stop offset="0" stop-color="#69c"/><stop offset="1" stop-color="#36c"/>
            </linearGradient>
            <linearGradient id="linear-gradient-3" x1="34.52" y1="10.12" x2="34.52" y2="39.88" gradientUnits="userSpaceOnUse">
                <stop offset="0" stop-color="#57b149"/>
                <stop offset="1" stop-color="#39823e"/>
            </linearGradient>
            <linearGradient id="linear-gradient-4" x1="23.71" y1="13.8" x2="23.71" y2="36.45" gradientUnits="userSpaceOnUse">
                <stop offset="0" stop-color="#de1f26"/>
                <stop offset="1" stop-color="#c00"/>
            </linearGradient>
            <path class="cls-1" d="M33.27 39.88h-.17a3.14 3.14 0 0 1-3-3.31 18.55 18.55 0 0 0-8.63-16.8 3.16 3.16 0 0 1-1.24-4.28 3.12 3.12 0 0 1 4.25-1.25 24.77 24.77 0 0 1 11.91 22.65 3.14 3.14 0 0 1-3.12 2.99z"/><path class="cls-2" d="M22.58 36.17a2.9 2.9 0 0 1-3-2.91c0-6.71-6.9-10.5-7-10.54a3 3 0 0 1-1.21-4.08 3 3 0 0 1 4.11-1.19c.42.23 10.2 5.54 10.13 15.84a2.92 2.92 0 0 1-3.03 2.88z"/><path class="cls-3" d="M33.22 39.88a3.18 3.18 0 0 1-2.88-4.5 25 25 0 0 0 .19-20.61 3.17 3.17 0 1 1 5.63-2.93 31.33 31.33 0 0 1-.05 26.16 3.18 3.18 0 0 1-2.89 1.88z"/><path class="cls-4" d="M22.58 36.45a3 3 0 0 1-2.48-4.77c3.81-5.42.05-13.43 0-13.51a3 3 0 0 1 5.44-2.67c.22.46 5.41 11.26-.49 19.67a3 3 0 0 1-2.47 1.28z"/>
        </symbol>
    </defs>
</svg>