<svg xmlns="http://www.w3.org/2000/svg" viewBox="0 0 50 50"><defs><style>.cls-1{fill:#e7e8e3;}.cls-2{fill:#006e90;}.cls-3{fill:#66cde7;}</style></defs><title>payment-transfer-fr</title><g id="transfer"><path class="cls-1" d="M49.76 37.41a2.77 2.77 0 0 1-2.92 2.59h-43.68a2.77 2.77 0 0 1-2.92-2.59v-24.82a2.77 2.77 0 0 1 2.92-2.59h43.68a2.77 2.77 0 0 1 2.93 2.57v24.84z"/><path class="cls-2" d="M9.27 26.72v-.41a4.41 4.41 0 0 1 0-.53 2.71 2.71 0 0 1 .12-.62 3.31 3.31 0 0 1 .24-.68l.16-.35.21-.34a4.16 4.16 0 0 1 .5-.65 7.24 7.24 0 0 1 .6-.57c.22-.16.43-.33.65-.46a6.57 6.57 0 0 1 .65-.36c.21-.12.42-.19.61-.28s.56-.21.78-.27a4.25 4.25 0 0 1-.23-.7 3.78 3.78 0 0 1-.12-.81 3.85 3.85 0 0 1 .76.32 5.1 5.1 0 0 1 .64.41 6.24 6.24 0 0 1 1 1 .82.82 0 0 1 .08.95v.06a6.31 6.31 0 0 1-1 1.3 5.11 5.11 0 0 1-.67.55l-.39.24a3.13 3.13 0 0 1-.44.21 3.22 3.22 0 0 1 0-.49c0-.15 0-.3.06-.45a4.67 4.67 0 0 1 .22-.84v-.08h-.3c-.17 0-.36.06-.55.11a5.36 5.36 0 0 0-.59.18c-.21.06-.4.17-.62.26a5.27 5.27 0 0 0-.59.36 3.25 3.25 0 0 0-.53.44l-.24.24-.2.27a3 3 0 0 0-.34.55 2.48 2.48 0 0 0-.23.54 3.76 3.76 0 0 0-.16.48l-.07.39-.06.35v-.35z"/><path class="cls-3" d="M15.46 26.13a5.48 5.48 0 0 1-.58.37c-.21.09-.4.21-.61.28a5.52 5.52 0 0 1-.59.2l-.54.13h-.3v-.08a5 5 0 0 0 .2-.84v-.46a3.27 3.27 0 0 0 0-.49 3.36 3.36 0 0 0-.44.22l-.38.25a5.16 5.16 0 0 0-.65.57 6.32 6.32 0 0 0-1 1.33v.06a.82.82 0 0 0 .11.95 6.12 6.12 0 0 0 1.07 1 5 5 0 0 0 .65.39 3.65 3.65 0 0 0 .76.29 3.93 3.93 0 0 0-.14-.81 4.86 4.86 0 0 0-.24-.69c.21-.07.47-.17.76-.29s.4-.17.61-.3a6 6 0 0 0 .64-.39c.22-.13.42-.32.64-.48a6.27 6.27 0 0 0 .58-.59 4.15 4.15 0 0 0 .48-.66l.2-.34.15-.35a3.3 3.3 0 0 0 .21-.69 2.53 2.53 0 0 0 .1-.63 3.66 3.66 0 0 0 0-.53v-.76l-.05.34-.06.39a3.72 3.72 0 0 1-.04.48 2.66 2.66 0 0 1-.22.55 3 3 0 0 1-.32.56l-.19.27a3.07 3.07 0 0 1-.24.25 3.17 3.17 0 0 1-.52.46zM20.33 19.83l-.46 3.64h-1.37l-.5-3.64h.95q.17 1.5.24 2.54.07-1.05.15-1.87l.06-.68zM22.15 19.83v3.64h-.9v-3.64zM23.29 19.83h.64a4.68 4.68 0 0 1 .86.05.59.59 0 0 1 .37.26 1.25 1.25 0 0 1 .14.68 1.1 1.1 0 0 1-.1.57.51.51 0 0 1-.4.17.68.68 0 0 1 .36.19.56.56 0 0 1 .11.21 3.6 3.6 0 0 1 0 .54v1h-.84v-1.24a.87.87 0 0 0 0-.36s-.11-.07-.23-.07v1.64h-.9zm.9.62v.81a.38.38 0 0 0 .21 0s.06-.12.06-.28v-.2a.32.32 0 0 0-.06-.23.33.33 0 0 0-.21-.1zM26.42 19.83h1.5v.73h-.6v.69h.56v.69h-.56v.8h.68v.73h-1.58zM31.79 19.83v3.64h-.79v-2.47l-.31 2.46h-.56l-.33-2.4v2.4h-.8v-3.63h1.17c0 .22.07.48.11.77l.13.92.21-1.7zM32.92 19.83h1.5v.73h-.6v.69h.56v.69h-.56v.8h.66v.73h-1.56zM37.53 19.83v3.64h-.79l-.47-1.65v1.65h-.75v-3.64h.75l.5 1.64v-1.64zM40.47 19.83v.73h-.53v2.91h-.94v-2.91h-.53v-.73z"/><path class="cls-2" d="M18.18 24.6h1.2a2.77 2.77 0 0 1 .86.1.88.88 0 0 1 .47.41 2.07 2.07 0 0 1 .18 1 1.2 1.2 0 0 1-.13.65.85.85 0 0 1-.5.28.87.87 0 0 1 .56.36 1.54 1.54 0 0 1 .15.77v.49a2.2 2.2 0 0 1-.11.79.61.61 0 0 1-.34.35 3.06 3.06 0 0 1-1 .09h-1.34zm1.2.91v1.18h.12q.18 0 .23-.1a1.86 1.86 0 0 0 0-.57 1.05 1.05 0 0 0 0-.35.21.21 0 0 0-.1-.13.8.8 0 0 0-.25-.04zm0 2v1.49a.46.46 0 0 0 .32-.09.72.72 0 0 0 .07-.4v-.51a.79.79 0 0 0-.06-.41.51.51 0 0 0-.33-.09zM23.48 24.6l.69 5.29h-1.23l-.06-1h-.43l-.07 1h-1.25l.61-5.29zm-.64 3.4q-.09-.9-.18-2.22-.18 1.52-.23 2.22zM27.05 24.6v5.29h-1.05l-.62-2.4v2.4h-1v-5.29h1l.62 2.4v-2.4zM30.34 26.9h-1.2v-.9a1.88 1.88 0 0 0 0-.5.16.16 0 0 0-.17-.1.17.17 0 0 0-.19.12 2.06 2.06 0 0 0 0 .52v2.46a1.92 1.92 0 0 0 0 .5.17.17 0 0 0 .18.12.17.17 0 0 0 .17-.12 2.18 2.18 0 0 0 0-.55v-.67h1.2v.22a4.64 4.64 0 0 1-.1 1.17 1.17 1.17 0 0 1-.45.6 1.39 1.39 0 0 1-.85.26 1.59 1.59 0 0 1-.87-.22 1 1 0 0 1-.45-.61 4.52 4.52 0 0 1-.11-1.2v-1.54a8 8 0 0 1 0-.86 1.3 1.3 0 0 1 .2-.55 1.18 1.18 0 0 1 .47-.42 1.51 1.51 0 0 1 .69-.15 1.53 1.53 0 0 1 .88.24 1.09 1.09 0 0 1 .45.59 4 4 0 0 1 .11 1.09zM32.84 24.6l.69 5.29h-1.23l-.06-1h-.43l-.07 1h-1.24l.61-5.29zm-.63 3.4q-.09-.9-.18-2.22-.18 1.52-.23 2.22zM34.93 24.6v5.29h-1.2v-5.29zM35.42 24.6h.85a5.7 5.7 0 0 1 1.15.08.8.8 0 0 1 .49.38 1.94 1.94 0 0 1 .19 1 1.72 1.72 0 0 1-.13.83.67.67 0 0 1-.53.25.88.88 0 0 1 .48.27.87.87 0 0 1 .15.31 5.7 5.7 0 0 1 0 .78v1.39h-1.07v-1.76a1.37 1.37 0 0 0-.06-.53c0-.07-.14-.1-.31-.1v2.38h-1.2zm1.2.91v1.18a.47.47 0 0 0 .28-.06q.08-.06.08-.41v-.29a.48.48 0 0 0-.08-.33.4.4 0 0 0-.28-.1zM38.56 24.6h2v1.06h-.8v1h.75v1h-.75v1.16h.88v1.06h-2.08z"/></g></svg>