<svg xmlns="http://www.w3.org/2000/svg" viewBox="0 0 50 50"><defs><style>.cls-1{fill:#fff;}.cls-2{mask:url(#mask);}.cls-3{fill:#fa82a0;}</style><mask id="mask" x="2.54" y="10.05" width="44.92" height="29.94" maskUnits="userSpaceOnUse"><rect id="_-now-a" class="cls-1" x="2.54" y="10.05" width="44.92" height="29.94" rx="2.34" ry="2.34"/></mask></defs><title>payment-klarna-sliceit</title><g id="klarna-now"><path class="cls-3" d="M2.54 10.05h44.92v29.94h-44.92z"/><path class="cls-1" d="M16.67 30.64h-1.33a3.4 3.4 0 0 1-1.34 2.74l-.53.39 2 2.78h1.68l-1.87-2.55a4.69 4.69 0 0 0 1.39-3.36zM11.9 30.64h1.37v5.92h-1.37zM17.56 30.64h1.29v5.92h-1.29zM30.15 32.35a1.49 1.49 0 0 0-1.27.57v-.46h-1.23v4.09h1.24v-2.15a.86.86 0 0 1 .92-.92.8.8 0 0 1 .85.92v2.16h1.24v-2.56a1.63 1.63 0 0 0-1.75-1.65zm-7.4.11v.26a2.16 2.16 0 1 0 0 3.57v.26h1.25v-4.09zm-1.12 3.09a1.05 1.05 0 1 1 1.11-1 1.08 1.08 0 0 1-1.12 1.01zm4.25-2.55v-.53h-1.26v4.09h1.26v-1.92c0-.64.7-1 1.19-1v-1.18a1.55 1.55 0 0 0-1.19.54zm9.84-.53v.26a2.16 2.16 0 1 0 0 3.57v.26h1.23v-4.1zm-1.12 3.09a1.05 1.05 0 1 1 1.11-1 1.08 1.08 0 0 1-1.11 1zm3.66-.45a.77.77 0 1 0 .77.77.77.77 0 0 0-.77-.78zM33.12 27.48l-9.66-13.48a17.2 17.2 0 0 0-6.84 10.7zm-17.2-2.58a17.85 17.85 0 0 1 7.43-11.62.33.33 0 0 1 .46.08l10.3 14.38a.32.32 0 0 1-.32.5l-17.6-3a.32.32 0 0 1-.27-.34zM24.5 15.48l-.29.31-.15.17-.15.17c-.53.58-.91.84-1.27.85a2.22 2.22 0 0 0-2.4 2.45v.3a2.34 2.34 0 0 1 0 .31c0 .34-.27.75-1.26 1.8a2.89 2.89 0 0 0-.53 3.74.33.33 0 0 0 .46.07.32.32 0 0 0 .07-.45 2.26 2.26 0 0 1 .49-2.92c1.1-1.17 1.42-1.67 1.43-2.23a2.72 2.72 0 0 0 0-.38v-.26a1.58 1.58 0 0 1 1.75-1.79c.6 0 1.09-.36 1.74-1.06l.16-.17.15-.16.27-.28a.32.32 0 0 0 0-.46.33.33 0 0 0-.47-.01zm-.73 10.79a2.6 2.6 0 0 1 4.93.54 2.55 2.55 0 0 1 0 .3.33.33 0 0 0 .65 0 3.18 3.18 0 0 0 0-.38 3.26 3.26 0 0 0-6.18-.73.32.32 0 0 0 .17.42.33.33 0 0 0 .43-.15zm-1.11-2.91a3 3 0 0 0-2.58.74.32.32 0 0 0 0 .46.33.33 0 0 0 .46 0 2.31 2.31 0 0 1 2-.57.33.33 0 0 0 .38-.26.32.32 0 0 0-.26-.37zm4.49-1.09a2.92 2.92 0 0 0 1.93 1.84.33.33 0 0 0 .41-.21.32.32 0 0 0-.22-.4 2.27 2.27 0 0 1-1.5-1.43.33.33 0 0 0-.41-.2.32.32 0 0 0-.21.4zM24.28 22.91a2.34 2.34 0 1 1 2.37-2.34 2.35 2.35 0 0 1-2.37 2.34zm0-.64a1.69 1.69 0 1 0-1.72-1.69 1.71 1.71 0 0 0 1.72 1.68z"/></g></svg>