<svg xmlns="http://www.w3.org/2000/svg" viewBox="0 0 50 50">
    <defs>
        <style>.cls-1{fill:#fff;}.cls-2{mask:url(#mask);}.cls-3{fill:#fa82a0;}</style>
    </defs>
    <title>payment-klarna-paynow</title>
    <g id="klarna-now">
        <path class="cls-3" d="M2.54 10.05h44.92v29.94h-44.92z"/>
        <path class="cls-1" d="M16.67 30.64h-1.33a3.4 3.4 0 0 1-1.34 2.74l-.53.39 2 2.78h1.68l-1.87-2.55a4.69 4.69 0 0 0 1.39-3.36zM11.9 30.64h1.37v5.92h-1.37zM17.56 30.64h1.29v5.92h-1.29zM30.15 32.35a1.49 1.49 0 0 0-1.27.57v-.46h-1.23v4.09h1.24v-2.15a.86.86 0 0 1 .92-.92.8.8 0 0 1 .85.92v2.16h1.24v-2.56a1.63 1.63 0 0 0-1.75-1.65zm-7.4.11v.26a2.16 2.16 0 1 0 0 3.57v.26h1.25v-4.09zm-1.12 3.09a1.05 1.05 0 1 1 1.11-1 1.08 1.08 0 0 1-1.12 1.01zm4.25-2.55v-.53h-1.26v4.09h1.26v-1.92c0-.64.7-1 1.19-1v-1.18a1.55 1.55 0 0 0-1.19.54zm9.84-.53v.26a2.16 2.16 0 1 0 0 3.57v.26h1.23v-4.1zm-1.12 3.09a1.05 1.05 0 1 1 1.11-1 1.08 1.08 0 0 1-1.11 1zm3.66-.45a.77.77 0 1 0 .77.77.77.77 0 0 0-.77-.78zM23.39 24a.81.81 0 0 1 0 1.14l-.06.07a.81.81 0 0 1-1.14 0l-1.8-1.78c-.49-.5-.57-1.11-.25-1.43l.06-.07a.73.73 0 0 1 1-.06.32.32 0 1 0 .4-.51 1.38 1.38 0 0 0-1.84.12l-.06.07a1.67 1.67 0 0 0 .26 2.34l1.8 1.78a1.46 1.46 0 0 0 2.06 0l.06-.07a1.46 1.46 0 0 0 0-2 .32.32 0 1 0-.45.46zm-1.08-9.65l.74 6a.32.32 0 0 0 .64-.08l-.69-6.05a1 1 0 0 1 .6-1.16.89.89 0 0 1 1.06.7l1.28 5.47a.32.32 0 0 0 .63-.15l-1.28-5.46a1.54 1.54 0 0 0-1.83-1.19 1.6 1.6 0 0 0-1.15 1.89zM29.07 21.42l1.45-7.25a1.53 1.53 0 0 0-1.07-1.79 1.6 1.6 0 0 0-2 1.14l-1.56 5.48a.32.32 0 0 0 .62.18l1.61-5.52a1 1 0 0 1 1.17-.66.89.89 0 0 1 .6 1l-1.45 7.25a.32.32 0 0 0 .63.13zm-3.66 7a4.09 4.09 0 0 1-4.23-4.09.32.32 0 0 0-.65 0 4.74 4.74 0 0 0 4.88 4.74.32.32 0 1 0 0-.65zm-1.14-5.65a.8.8 0 0 1-.32.44h-.07a.81.81 0 0 1-1.13-.21l-1.41-2.1c-.39-.59-.34-1.2 0-1.46h.07c.48-.28.88-.07 1.3.54l1.18 1.76a.32.32 0 0 0 .54-.36l-1.15-1.78c-.58-.85-1.31-1.23-2.17-.72l-.09.06a1.67 1.67 0 0 0-.21 2.35l1.42 2.11a1.46 1.46 0 0 0 2 .39h.07a1.45 1.45 0 0 0 .58-.81.32.32 0 0 0-.62-.17zM26.41 23.82a2.41 2.41 0 0 0-1.14 2.18.32.32 0 0 0 .65 0 1.69 1.69 0 0 1 1-1.72 2.2 2.2 0 0 1 1-.11h.08a.32.32 0 0 0 .13-.63l-2.47-.54c-1.16-.32-1.34-.75-1.12-1.47a.71.71 0 0 1 .57-.54 1.59 1.59 0 0 1 .61 0h.12l3.77.88h.07a.61.61 0 0 1 .19.14 2.1 2.1 0 0 1 .32 1.62c-.25 2.93-1.61 4.75-4.86 4.73a.32.32 0 1 0 0 .65c3.64 0 5.23-2.09 5.51-5.32a2.68 2.68 0 0 0-.49-2.11 1.09 1.09 0 0 0-.62-.36l-3.73-.83h-.17a2.21 2.21 0 0 0-.86 0 1.35 1.35 0 0 0-1.05 1c-.31 1 0 1.85 1.59 2.28z"/>
    </g>
</svg>