<svg xmlns="http://www.w3.org/2000/svg" viewBox="0 0 50 50"><defs><style>.cls-1{fill:#242757;}.cls-2{fill:#fff;}.cls-3{fill:#e42316;}</style></defs><title>payment-giropay</title><g id="ING"><rect class="cls-1" x="1.54" y="14.92" width="46.92" height="20.17" rx="3.11" ry="3.11"/><path class="cls-2" d="M5.71 16.5h20.4v17h-20.4a2.72 2.72 0 0 1-2.71-2.72v-11.56a2.72 2.72 0 0 1 2.71-2.72z"/><path class="cls-3" d="M6.58 28a2.18 2.18 0 0 0 1.62.6 1.19 1.19 0 0 0 1.35-1.19v-.41a2 2 0 0 1-1.55.78 2.32 2.32 0 0 1-2.34-2.62 2.32 2.32 0 0 1 2.34-2.61 2 2 0 0 1 1.57.74v-.61h1.68v4.73c0 2.12-1.72 2.57-3 2.57a3.57 3.57 0 0 1-2.36-.77zm3-3.55a1.38 1.38 0 0 0-1-.46 1.16 1.16 0 1 0 0 2.31 1.38 1.38 0 0 0 1-.46zM12.35 21.08a1 1 0 1 1 1 .95 1 1 0 0 1-1-.95zm.12 1.6h1.69v5.19h-1.69zM15.4 22.68h1.7v.66a2.34 2.34 0 0 1 1.66-.78v1.6a1.4 1.4 0 0 0-.42-.05 1.71 1.71 0 0 0-1.24.48v3.29h-1.7zM19.18 25.27a2.71 2.71 0 0 1 2.89-2.72 2.73 2.73 0 1 1 0 5.45 2.72 2.72 0 0 1-2.89-2.73zm4.06 0a1.16 1.16 0 1 0-1.17 1.27 1.16 1.16 0 0 0 1.17-1.27z"/><path class="cls-2" d="M27.59 29.84v-7.17h1.71v.6a2 2 0 0 1 1.59-.73c1.34 0 2.35 1 2.35 2.72s-1.01 2.74-2.35 2.74a2 2 0 0 1-1.59-.74v2.59zm2.73-5.84a1.38 1.38 0 0 0-1 .47v1.58a1.42 1.42 0 0 0 1 .47 1.27 1.27 0 0 0 0-2.53zM37.3 27.35a2.25 2.25 0 0 1-1.67.64 1.75 1.75 0 0 1-1.84-1.71 1.64 1.64 0 0 1 1.84-1.63 2.18 2.18 0 0 1 1.67.6v-.65c0-.45-.4-.75-1.09-.75a2.44 2.44 0 0 0-1.52.55l-.61-1a3.86 3.86 0 0 1 2.43-.81c1.29 0 2.5.46 2.5 2.07v3.25h-1.71zm0-1.28a1.24 1.24 0 0 0-1-.37c-.46 0-.85.19-.85.6s.4.6.85.6a1.21 1.21 0 0 0 1-.38zM40.81 28.51c.39 0 .63-.08.72-.29l.12-.28-2.13-5.27h1.8l1.21 3.33 1.22-3.29h1.81l-2.42 5.89a2.13 2.13 0 0 1-2.26 1.4 3.58 3.58 0 0 1-.73-.09l.24-1.47a1 1 0 0 0 .42.07z"/></g></svg>