<svg xmlns="http://www.w3.org/2000/svg" viewBox="0 0 50 50">
    <defs>
        <style>.cls-1{fill:#cd0067;}.cls-2{fill:#fff;}</style>
    </defs>
    <title>iDeal</title>
    <symbol id="iDeal">
        <rect x="11.78" y="26.86" width="5.45" height="9.04"/>
        <circle cx="14.56" cy="22.34" r="3.08"/>
        <path d="M27.55,10.18H8V39.82H27.55c4.27-.06,7.65-1.12,10.05-3.16C40.52,34.17,42,30.25,42,25a18.08,18.08,0,0,0-1.16-6.69,12.19,12.19,0,0,0-3.23-4.66,15.24,15.24,0,0,0-10.07-3.46Zm-.37,2c3.79,0,6.94,1,9.13,3C38.78,17.31,40,20.64,40,25c0,8.65-4.2,12.85-12.85,12.85H10V12.15Z"/>
        <path class="cls-1" d="M26.64,35.92H19.73V14.55h6.63c5.76,0,11.9,2.27,11.9,10.71,0,8.92-6.13,10.66-11.9,10.66Z"/>
        <path class="cls-2" d="M22.29,20.54a1.87,1.87,0,0,0-.84-.51,3.8,3.8,0,0,0-1-.1h-2v5.42h2.09a3.29,3.29,0,0,0,1-.12,2,2,0,0,0,.79-.44,2.42,2.42,0,0,0,.59-1A3.54,3.54,0,0,0,23,22.68a4,4,0,0,0-.18-1.26A2.4,2.4,0,0,0,22.29,20.54Zm-2.57.54H20a4.42,4.42,0,0,1,.82,0,.86.86,0,0,1,.42.21,1,1,0,0,1,.26.44,2.94,2.94,0,0,1,.1.87,3.22,3.22,0,0,1-.1.9,1,1,0,0,1-.23.43.83.83,0,0,1-.36.18,2.74,2.74,0,0,1-.6,0h-.64Z"/>
        <path class="cls-2" d="M25.2,23.09h2.58V21.93H25.2v-.86H28V19.92H23.88v5.42h4.19V24.19H25.2Z"/>
        <path class="cls-2" d="M30.48,19.92l-2.11,5.42h1.41l.43-1.17h1.86l.45,1.17h1.43l-2.17-5.42ZM31.62,23h-1l.5-1.36Z"/>
        <path class="cls-2" d="M35.78,24.19V20H34.46v5.38h3.9V24.19Z"/>
    </symbol>
</svg>