<svg xmlns="http://www.w3.org/2000/svg" viewBox="0 0 50 50"><defs><style>.cls-1{fill:#fff;}.cls-2{mask:url(#mask);}.cls-3{fill:#fa82a0;}</style><mask id="mask" x="2.54" y="10.05" width="44.92" height="29.94" maskUnits="userSpaceOnUse"><rect id="_-now-a" class="cls-1" x="2.54" y="10.05" width="44.92" height="29.94" rx="2.34" ry="2.34"/></mask></defs><title>payment-klarna-paylater</title><g id="klarna-now"><path class="cls-3" d="M2.54 10.05h44.92v29.94h-44.92z"/><path class="cls-1" d="M16.67 30.64h-1.33a3.4 3.4 0 0 1-1.34 2.74l-.53.39 2 2.78h1.68l-1.87-2.55a4.69 4.69 0 0 0 1.39-3.36zM11.9 30.64h1.37v5.92h-1.37zM17.56 30.64h1.29v5.92h-1.29zM30.15 32.35a1.49 1.49 0 0 0-1.27.57v-.46h-1.23v4.09h1.24v-2.15a.86.86 0 0 1 .92-.92.8.8 0 0 1 .85.92v2.16h1.24v-2.56a1.63 1.63 0 0 0-1.75-1.65zm-7.4.11v.26a2.16 2.16 0 1 0 0 3.57v.26h1.25v-4.09zm-1.12 3.09a1.05 1.05 0 1 1 1.11-1 1.08 1.08 0 0 1-1.12 1.01zm4.25-2.55v-.53h-1.26v4.09h1.26v-1.92c0-.64.7-1 1.19-1v-1.18a1.55 1.55 0 0 0-1.19.54zm9.84-.53v.26a2.16 2.16 0 1 0 0 3.57v.26h1.23v-4.1zm-1.12 3.09a1.05 1.05 0 1 1 1.11-1 1.08 1.08 0 0 1-1.11 1zm3.66-.45a.77.77 0 1 0 .77.77.77.77 0 0 0-.77-.78zM13.25 17.68a53.08 53.08 0 0 1 5.39-.3c1.26 0 2.18 0 3.43.13h1.1400000000000001l1.51.05a.32.32 0 1 0 0-.63c-.48 0-.93 0-1.47-.05h-1.1400000000000001c-1.26-.09-2.2-.14-3.48-.14a53.74 53.74 0 0 0-5.74.33.32.32 0 0 0-.29.31v1a.31.31 0 0 0 0 .15 4.15 4.15 0 0 1 .48 1.51 8.65 8.65 0 0 0 .77 3.68 4.22 4.22 0 0 0 4.15 2.34c3.54 0 4.59-.79 5.35-3.13l.12-.37.12-.37c0 .12.53-1.58.66-1.88s.32-.59.46-.59a.32.32 0 1 0 0-.63c-.48 0-.78.33-1.05 1-.14.33-.73 2.07-.67 1.92l-.13.38-.12.37a3.35 3.35 0 0 1-1.12 1.92 6.08 6.08 0 0 1-3.62.78 3.58 3.58 0 0 1-3.54-2 8.19 8.19 0 0 1-.7-3.46 4.79 4.79 0 0 0-.51-1.69zM18.1 24.34a2.83 2.83 0 0 1-2.07-.8 4.65 4.65 0 0 1-1.1-3v-.86a1 1 0 0 1 .23-.75 1 1 0 0 1 .71-.36c.78-.09 2-.13 2.76-.14 2 0 3.11.1 3.56.39.6.38.53 1 0 2.6l-.14.36c-.61 1.63-.91 2.56-3.95 2.56zm1.14-5.34l-3.06 3.7a.31.31 0 0 0 .05.44.33.33 0 0 0 .45 0l3.05-3.75a.31.31 0 0 0-.05-.44.33.33 0 0 0-.44.05zm-2-.13l-1.78 2.13a.31.31 0 0 0 .05.44.33.33 0 0 0 .45 0l1.75-2.15a.31.31 0 0 0-.05-.44.33.33 0 0 0-.45-.03zm19-1.14v.63a4.77 4.77 0 0 0-.57 1.64 8.24 8.24 0 0 1-.67 3.46 3.58 3.58 0 0 1-3.54 2 6.07 6.07 0 0 1-3.62-.78 3.37 3.37 0 0 1-1.12-1.92l-.12-.36-.16-.4c.05.15-.54-1.59-.67-1.92-.28-.66-.57-1-1.05-1a.32.32 0 1 0 0 .63c.14 0 .27.15.46.59l.66 1.88.12.37.12.36c.76 2.35 1.81 3.14 5.35 3.14a4.22 4.22 0 0 0 4.11-2.33 8.7 8.7 0 0 0 .77-3.7 4.14 4.14 0 0 1 .48-1.49.31.31 0 0 0 0-.15v-1a.32.32 0 0 0-.29-.31 53.73 53.73 0 0 0-5.74-.33c-1.28 0-2.22 0-3.48.14h-1.1400000000000001l-1.47.05a.32.32 0 1 0 0 .63c.49 0 1 0 1.51-.05h1.1400000000000001c1.25-.09 2.17-.13 3.43-.13a53.07 53.07 0 0 1 5.43.3zM31.32 24.34c-3 0-3.34-.93-3.88-2.62l-.12-.37c-.53-1.64-.6-2.21 0-2.6.45-.3 1.55-.41 3.56-.39.79 0 2 .05 2.76.14a1 1 0 0 1 .71.37 1 1 0 0 1 .23.76 6.25 6.25 0 0 1 0 .89 4.65 4.65 0 0 1-1.1 3 2.83 2.83 0 0 1-2.08.8zm-1.77-5.52l-1.76 2.18a.31.31 0 0 0 .05.44.33.33 0 0 0 .45 0l1.71-2.22a.31.31 0 0 0-.05-.44.33.33 0 0 0-.41.04zm2 .13l-3.03 3.75a.31.31 0 0 0 .05.44.33.33 0 0 0 .45 0l3.05-3.75a.31.31 0 0 0-.07-.49.33.33 0 0 0-.43.1z"/></g></svg>