<svg xmlns="http://www.w3.org/2000/svg" viewBox="0 0 50 50"><defs><style>.cls-1{fill:#fff;}.cls-2{fill:none;}</style></defs><title>payment-qr-code</title><g id="QR-tag"><path class="cls-1" d="M7.5 7.5h35.01v35.01h-35.01z"/><path d="M21.29 9.62h1.08v1.08h-1.08zM22.35 9.62h1.08v1.08h-1.08zM23.41 9.62h1.08v1.08h-1.08zM24.47 9.62h1.08v1.08h-1.08zM26.59 9.62h1.08v1.08h-1.08zM27.65 9.62h1.08v1.08h-1.08zM28.71 9.62h1.08v1.08h-1.08zM29.77 9.62h1.08v1.08h-1.08zM20.23 10.68h1.08v1.08h-1.08zM22.35 10.68h1.08v1.08h-1.08zM23.41 10.68h1.08v1.08h-1.08zM24.47 10.68h1.08v1.08h-1.08zM25.53 10.68h1.08v1.08h-1.08zM27.65 10.68h1.08v1.08h-1.08zM28.71 10.68h1.08v1.08h-1.08zM30.83 10.68h1.08v1.08h-1.08zM19.17 11.74h1.08v1.08h-1.08zM21.29 11.74h1.08v1.08h-1.08zM22.35 11.74h1.08v1.08h-1.08zM23.41 11.74h1.08v1.08h-1.08zM27.65 11.74h1.08v1.08h-1.08zM28.71 11.74h1.08v1.08h-1.08zM19.17 12.8h1.08v1.08h-1.08zM20.23 12.8h1.08v1.08h-1.08zM22.35 12.8h1.08v1.08h-1.08zM23.41 12.8h1.08v1.08h-1.08zM24.47 12.8h1.08v1.08h-1.08zM25.53 12.8h1.08v1.08h-1.08zM28.71 12.8h1.08v1.08h-1.08zM29.77 12.8h1.08v1.08h-1.08zM23.41 13.86h1.08v1.08h-1.08zM24.47 13.86h1.08v1.08h-1.08zM25.53 13.86h1.08v1.08h-1.08zM26.59 13.86h1.08v1.08h-1.08zM27.65 13.86h1.08v1.08h-1.08zM28.71 13.86h1.08v1.08h-1.08zM18.11 14.92h1.08v1.08h-1.08zM19.17 14.92h1.08v1.08h-1.08zM20.23 14.92h1.08v1.08h-1.08zM22.35 14.92h1.08v1.08h-1.08zM23.41 14.92h1.08v1.08h-1.08zM24.47 14.92h1.08v1.08h-1.08zM25.53 14.92h1.08v1.08h-1.08zM28.71 14.92h1.08v1.08h-1.08zM29.77 14.92h1.08v1.08h-1.08zM30.83 14.92h1.08v1.08h-1.08zM18.11 15.98h1.08v1.08h-1.08zM20.23 15.98h1.08v1.08h-1.08zM22.35 15.98h1.08v1.08h-1.08zM24.47 15.98h1.08v1.08h-1.08zM26.59 15.98h1.08v1.08h-1.08zM28.71 15.98h1.08v1.08h-1.08zM30.83 15.98h1.08v1.08h-1.08zM19.17 17.04h1.08v1.08h-1.08zM20.23 17.04h1.08v1.08h-1.08zM22.35 17.04h1.08v1.08h-1.08zM24.47 17.04h1.08v1.08h-1.08zM26.59 17.04h1.08v1.08h-1.08zM27.65 17.04h1.08v1.08h-1.08zM30.83 17.04h1.08v1.08h-1.08zM9.62 18.11h1.08v1.08h-1.08zM12.8 18.11h1.08v1.08h-1.08zM14.92 18.11h1.08v1.08h-1.08zM15.98 18.11h1.08v1.08h-1.08zM18.11 18.11h1.08v1.08h-1.08zM19.17 18.11h1.08v1.08h-1.08zM21.29 18.11h1.08v1.08h-1.08zM22.35 18.11h1.08v1.08h-1.08zM26.59 18.11h1.08v1.08h-1.08zM30.83 18.11h1.08v1.08h-1.08zM31.89 18.11h1.08v1.08h-1.08zM34.02 18.11h1.08v1.08h-1.08zM9.62 19.17h1.08v1.08h-1.08zM14.92 19.17h1.08v1.08h-1.08zM19.17 19.17h1.08v1.08h-1.08zM20.23 19.17h1.08v1.08h-1.08zM22.35 19.17h1.08v1.08h-1.08zM24.47 19.17h1.08v1.08h-1.08zM26.59 19.17h1.08v1.08h-1.08zM27.65 19.17h1.08v1.08h-1.08zM30.83 19.17h1.08v1.08h-1.08zM31.89 19.17h1.08v1.08h-1.08zM32.96 19.17h1.08v1.08h-1.08zM36.14 19.17h1.08v1.08h-1.08zM39.32 19.17h1.08v1.08h-1.08zM10.68 20.23h1.08v1.08h-1.08zM11.74 20.23h1.08v1.08h-1.08zM15.98 20.23h1.08v1.08h-1.08zM17.04 20.23h1.08v1.08h-1.08zM18.11 20.23h1.08v1.08h-1.08zM20.23 20.23h1.08v1.08h-1.08zM21.29 20.23h1.08v1.08h-1.08zM22.35 20.23h1.08v1.08h-1.08zM29.77 20.23h1.08v1.08h-1.08zM32.96 20.23h1.08v1.08h-1.08zM36.14 20.23h1.08v1.08h-1.08zM37.2 20.23h1.08v1.08h-1.08zM38.26 20.23h1.08v1.08h-1.08zM9.62 21.29h1.08v1.08h-1.08zM18.11 21.29h1.08v1.08h-1.08zM24.47 21.29h1.08v1.08h-1.08zM26.59 21.29h1.08v1.08h-1.08zM28.71 21.29h1.08v1.08h-1.08zM29.77 21.29h1.08v1.08h-1.08zM32.96 21.29h1.08v1.08h-1.08zM34.02 21.29h1.08v1.08h-1.08zM35.08 21.29h1.08v1.08h-1.08zM37.2 21.29h1.08v1.08h-1.08zM38.26 21.29h1.08v1.08h-1.08zM9.62 22.35h1.08v1.08h-1.08zM15.98 22.35h1.08v1.08h-1.08zM17.04 22.35h1.08v1.08h-1.08zM19.17 22.35h1.08v1.08h-1.08zM20.23 22.35h1.08v1.08h-1.08zM22.35 22.35h1.08v1.08h-1.08zM25.53 22.35h1.08v1.08h-1.08zM26.59 22.35h1.08v1.08h-1.08zM27.65 22.35h1.08v1.08h-1.08zM30.83 22.35h1.08v1.08h-1.08zM31.89 22.35h1.08v1.08h-1.08zM32.96 22.35h1.08v1.08h-1.08zM36.14 22.35h1.08v1.08h-1.08zM38.26 22.35h1.08v1.08h-1.08zM39.32 22.35h1.08v1.08h-1.08zM10.68 23.41h1.08v1.08h-1.08zM12.8 23.41h1.08v1.08h-1.08zM13.86 23.41h1.08v1.08h-1.08zM14.92 23.41h1.08v1.08h-1.08zM18.11 23.41h1.08v1.08h-1.08zM19.17 23.41h1.08v1.08h-1.08zM26.59 23.41h1.08v1.08h-1.08zM27.65 23.41h1.08v1.08h-1.08zM28.71 23.41h1.08v1.08h-1.08zM29.77 23.41h1.08v1.08h-1.08zM30.83 23.41h1.08v1.08h-1.08zM31.89 23.41h1.08v1.08h-1.08zM10.68 24.47h1.08v1.08h-1.08zM12.8 24.47h1.08v1.08h-1.08zM14.92 24.47h1.08v1.08h-1.08zM15.98 24.47h1.08v1.08h-1.08zM17.04 24.47h1.08v1.08h-1.08zM18.11 24.47h1.08v1.08h-1.08zM21.29 24.47h1.08v1.08h-1.08zM22.35 24.47h1.08v1.08h-1.08zM28.71 24.47h1.08v1.08h-1.08zM34.02 24.47h1.08v1.08h-1.08zM36.14 24.47h1.08v1.08h-1.08zM37.2 24.47h1.08v1.08h-1.08zM38.26 24.47h1.08v1.08h-1.08zM39.32 24.47h1.08v1.08h-1.08zM10.68 25.53h1.08v1.08h-1.08zM13.86 25.53h1.08v1.08h-1.08zM14.92 25.53h1.08v1.08h-1.08zM18.11 25.53h1.08v1.08h-1.08zM20.23 25.53h1.08v1.08h-1.08zM21.29 25.53h1.08v1.08h-1.08zM22.35 25.53h1.08v1.08h-1.08zM23.41 25.53h1.08v1.08h-1.08zM24.47 25.53h1.08v1.08h-1.08zM25.53 25.53h1.08v1.08h-1.08zM26.59 25.53h1.08v1.08h-1.08zM27.65 25.53h1.08v1.08h-1.08zM29.77 25.53h1.08v1.08h-1.08zM34.02 25.53h1.08v1.08h-1.08zM35.08 25.53h1.08v1.08h-1.08zM36.14 25.53h1.08v1.08h-1.08zM38.26 25.53h1.08v1.08h-1.08zM9.62 26.59h1.08v1.08h-1.08zM11.74 26.59h1.08v1.08h-1.08zM14.92 26.59h1.08v1.08h-1.08zM15.98 26.59h1.08v1.08h-1.08zM17.04 26.59h1.08v1.08h-1.08zM19.17 26.59h1.08v1.08h-1.08zM20.23 26.59h1.08v1.08h-1.08zM23.41 26.59h1.08v1.08h-1.08zM24.47 26.59h1.08v1.08h-1.08zM27.65 26.59h1.08v1.08h-1.08zM30.83 26.59h1.08v1.08h-1.08zM31.89 26.59h1.08v1.08h-1.08zM38.26 26.59h1.08v1.08h-1.08zM10.68 27.65h1.08v1.08h-1.08zM11.74 27.65h1.08v1.08h-1.08zM12.8 27.65h1.08v1.08h-1.08zM13.86 27.65h1.08v1.08h-1.08zM19.17 27.65h1.08v1.08h-1.08zM20.23 27.65h1.08v1.08h-1.08zM26.59 27.65h1.08v1.08h-1.08zM27.65 27.65h1.08v1.08h-1.08zM31.89 27.65h1.08v1.08h-1.08zM32.96 27.65h1.08v1.08h-1.08zM34.02 27.65h1.08v1.08h-1.08zM36.14 27.65h1.08v1.08h-1.08zM39.32 27.65h1.08v1.08h-1.08zM9.62 28.71h1.08v1.08h-1.08zM13.86 28.71h1.08v1.08h-1.08zM14.92 28.71h1.08v1.08h-1.08zM15.98 28.71h1.08v1.08h-1.08zM19.17 28.71h1.08v1.08h-1.08zM21.29 28.71h1.08v1.08h-1.08zM23.41 28.71h1.08v1.08h-1.08zM26.59 28.71h1.08v1.08h-1.08zM31.89 28.71h1.08v1.08h-1.08zM34.02 28.71h1.08v1.08h-1.08zM35.08 28.71h1.08v1.08h-1.08zM38.26 28.71h1.08v1.08h-1.08zM39.32 28.71h1.08v1.08h-1.08zM11.74 29.77h1.08v1.08h-1.08zM12.8 29.77h1.08v1.08h-1.08zM14.92 29.77h1.08v1.08h-1.08zM17.04 29.77h1.08v1.08h-1.08zM18.11 29.77h1.08v1.08h-1.08zM19.17 29.77h1.08v1.08h-1.08zM20.23 29.77h1.08v1.08h-1.08zM23.41 29.77h1.08v1.08h-1.08zM25.53 29.77h1.08v1.08h-1.08zM27.65 29.77h1.08v1.08h-1.08zM29.77 29.77h1.08v1.08h-1.08zM31.89 29.77h1.08v1.08h-1.08zM34.02 29.77h1.08v1.08h-1.08zM35.08 29.77h1.08v1.08h-1.08zM38.26 29.77h1.08v1.08h-1.08zM39.32 29.77h1.08v1.08h-1.08zM9.62 30.83h1.08v1.08h-1.08zM11.74 30.83h1.08v1.08h-1.08zM12.8 30.83h1.08v1.08h-1.08zM13.86 30.83h1.08v1.08h-1.08zM15.98 30.83h1.08v1.08h-1.08zM17.04 30.83h1.08v1.08h-1.08zM21.29 30.83h1.08v1.08h-1.08zM24.47 30.83h1.08v1.08h-1.08zM30.83 30.83h1.08v1.08h-1.08zM31.89 30.83h1.08v1.08h-1.08zM32.96 30.83h1.08v1.08h-1.08zM34.02 30.83h1.08v1.08h-1.08zM35.08 30.83h1.08v1.08h-1.08zM37.2 30.83h1.08v1.08h-1.08zM18.11 31.89h1.08v1.08h-1.08zM19.17 31.89h1.08v1.08h-1.08zM21.29 31.89h1.08v1.08h-1.08zM22.35 31.89h1.08v1.08h-1.08zM23.41 31.89h1.08v1.08h-1.08zM26.59 31.89h1.08v1.08h-1.08zM30.83 31.89h1.08v1.08h-1.08zM35.08 31.89h1.08v1.08h-1.08zM37.2 31.89h1.08v1.08h-1.08zM38.26 31.89h1.08v1.08h-1.08zM39.32 31.89h1.08v1.08h-1.08zM23.41 32.96h1.08v1.08h-1.08zM24.47 32.96h1.08v1.08h-1.08zM26.59 32.96h1.08v1.08h-1.08zM28.71 32.96h1.08v1.08h-1.08zM30.83 32.96h1.08v1.08h-1.08zM32.96 32.96h1.08v1.08h-1.08zM35.08 32.96h1.08v1.08h-1.08zM38.26 32.96h1.08v1.08h-1.08zM18.11 34.02h1.08v1.08h-1.08zM19.17 34.02h1.08v1.08h-1.08zM20.23 34.02h1.08v1.08h-1.08zM22.35 34.02h1.08v1.08h-1.08zM23.41 34.02h1.08v1.08h-1.08zM28.71 34.02h1.08v1.08h-1.08zM30.83 34.02h1.08v1.08h-1.08zM35.08 34.02h1.08v1.08h-1.08zM36.14 34.02h1.08v1.08h-1.08zM37.2 34.02h1.08v1.08h-1.08zM38.26 34.02h1.08v1.08h-1.08zM19.17 35.08h1.08v1.08h-1.08zM20.23 35.08h1.08v1.08h-1.08zM21.29 35.08h1.08v1.08h-1.08zM24.47 35.08h1.08v1.08h-1.08zM27.65 35.08h1.08v1.08h-1.08zM30.83 35.08h1.08v1.08h-1.08zM31.89 35.08h1.08v1.08h-1.08zM32.96 35.08h1.08v1.08h-1.08zM34.02 35.08h1.08v1.08h-1.08zM35.08 35.08h1.08v1.08h-1.08zM38.26 35.08h1.08v1.08h-1.08zM39.32 35.08h1.08v1.08h-1.08zM18.11 36.14h1.08v1.08h-1.08zM20.23 36.14h1.08v1.08h-1.08zM21.29 36.14h1.08v1.08h-1.08zM23.41 36.14h1.08v1.08h-1.08zM24.47 36.14h1.08v1.08h-1.08zM27.65 36.14h1.08v1.08h-1.08zM29.77 36.14h1.08v1.08h-1.08zM32.96 36.14h1.08v1.08h-1.08zM34.02 36.14h1.08v1.08h-1.08zM35.08 36.14h1.08v1.08h-1.08zM36.14 36.14h1.08v1.08h-1.08zM37.2 36.14h1.08v1.08h-1.08zM38.26 36.14h1.08v1.08h-1.08zM19.17 37.2h1.08v1.08h-1.08zM22.35 37.2h1.08v1.08h-1.08zM23.41 37.2h1.08v1.08h-1.08zM24.47 37.2h1.08v1.08h-1.08zM26.59 37.2h1.08v1.08h-1.08zM27.65 37.2h1.08v1.08h-1.08zM30.83 37.2h1.08v1.08h-1.08zM35.08 37.2h1.08v1.08h-1.08zM36.14 37.2h1.08v1.08h-1.08zM37.2 37.2h1.08v1.08h-1.08zM39.32 37.2h1.08v1.08h-1.08zM19.17 38.26h1.08v1.08h-1.08zM20.23 38.26h1.08v1.08h-1.08zM26.59 38.26h1.08v1.08h-1.08zM27.65 38.26h1.08v1.08h-1.08zM28.71 38.26h1.08v1.08h-1.08zM29.77 38.26h1.08v1.08h-1.08zM30.83 38.26h1.08v1.08h-1.08zM38.26 38.26h1.08v1.08h-1.08zM18.11 39.32h1.08v1.08h-1.08zM20.23 39.32h1.08v1.08h-1.08zM21.29 39.32h1.08v1.08h-1.08zM22.35 39.32h1.08v1.08h-1.08zM27.65 39.32h1.08v1.08h-1.08zM30.83 39.32h1.08v1.08h-1.08zM34.02 39.32h1.08v1.08h-1.08zM36.14 39.32h1.08v1.08h-1.08zM38.26 39.32h1.08v1.08h-1.08z"/><path class="cls-2" d="M10.73 10.73h5.2v5.2h-5.2z"/><path d="M15.93 9.62h-6.31v7.38h7.38v-7.38zm0 6.31h-5.2v-5.2h5.2z"/><path class="cls-2" d="M34.07 10.73h5.2v5.2h-5.2z"/><path d="M39.27 9.62h-6.27v7.38h7.43v-7.38zm0 6.31h-5.2v-5.2h5.2z"/><path class="cls-2" d="M10.73 34.07h5.2v5.2h-5.2z"/><path d="M15.93 33h-6.31v7.43h7.38v-7.43zm0 6.31h-5.2v-5.2h5.2zM11.74 11.74h3.18v3.18h-3.18zM35.08 11.74h3.18v3.18h-3.18zM11.74 35.08h3.18v3.18h-3.18z"/></g></svg>