<svg xmlns="http://www.w3.org/2000/svg" viewBox="0 0 50 50"><defs><style>.cls-1{fill:#cd0067;}.cls-2{fill:#fff;}</style></defs><title>payment-iDeal</title><g id="iDeal"><path d="M11.78 26.86h5.45v9.04h-5.45z"/><circle cx="14.56" cy="22.34" r="3.08"/><path d="M27.55 10.18h-19.55v29.64h19.55c4.27-.06 7.65-1.12 10.05-3.16 2.92-2.49 4.4-6.41 4.4-11.66a18.08 18.08 0 0 0-1.16-6.69 12.19 12.19 0 0 0-3.23-4.66 15.24 15.24 0 0 0-10.07-3.46zm-.37 2c3.79 0 6.94 1 9.13 3 2.47 2.13 3.69 5.46 3.69 9.82 0 8.65-4.2 12.85-12.85 12.85h-17.15v-25.7z"/><path class="cls-1" d="M26.64 35.92h-6.91v-21.37h6.63c5.76 0 11.9 2.27 11.9 10.71 0 8.92-6.13 10.66-11.9 10.66z"/><path class="cls-2" d="M18.54 20.06h1.9a3.7 3.7 0 0 1 1 .1 1.72 1.72 0 0 1 .77.47 2.25 2.25 0 0 1 .49.83 3.8 3.8 0 0 1 .17 1.22 3.38 3.38 0 0 1-.16 1.09 2.27 2.27 0 0 1-.55.91 1.82 1.82 0 0 1-.73.41 3.14 3.14 0 0 1-.92.11h-2zm1 .87v3.4h.78a2.85 2.85 0 0 0 .63 0 1 1 0 0 0 .42-.21 1.09 1.09 0 0 0 .27-.5 3.33 3.33 0 0 0 .11-.94 3.05 3.05 0 0 0-.11-.91 1.17 1.17 0 0 0-.3-.5 1 1 0 0 0-.44-.27 4.74 4.74 0 0 0-.85 0zM18.4 19.92v5.42h2.09a3.29 3.29 0 0 0 1-.12 2 2 0 0 0 .79-.44 2.42 2.42 0 0 0 .59-1 3.54 3.54 0 0 0 .13-1.1 4 4 0 0 0-.18-1.26 2.4 2.4 0 0 0-.52-.88 1.87 1.87 0 0 0-.84-.51 3.8 3.8 0 0 0-1-.1zm2 .28a3.59 3.59 0 0 1 .94.09 1.59 1.59 0 0 1 .71.44 2.12 2.12 0 0 1 .46.78 3.68 3.68 0 0 1 .16 1.17 3.26 3.26 0 0 1-.15 1 2.14 2.14 0 0 1-.52.85 1.7 1.7 0 0 1-.67.38 3 3 0 0 1-.88.1h-1.77v-4.81zM19.44 20.79v3.68h.92a2.94 2.94 0 0 0 .66-.05 1.1 1.1 0 0 0 .48-.25 1.21 1.21 0 0 0 .31-.56 3.43 3.43 0 0 0 .11-1 3.15 3.15 0 0 0-.11-1 1.32 1.32 0 0 0-.33-.56 1.14 1.14 0 0 0-.55-.28 4.79 4.79 0 0 0-.88-.05zm.61.28a4.42 4.42 0 0 1 .82 0 .86.86 0 0 1 .42.21 1 1 0 0 1 .26.44 2.94 2.94 0 0 1 .1.87 3.22 3.22 0 0 1-.1.9 1 1 0 0 1-.23.43.83.83 0 0 1-.36.18 2.74 2.74 0 0 1-.6 0h-.64v-3.02zM24 25.21v-5.15h3.81v.87h-2.75v1.14h2.58v.87h-2.58v1.39h2.87v.87zM23.88 19.92v5.42h4.19v-1.15h-2.87v-1.1h2.58v-1.16h-2.58v-.86h2.8v-1.15zm3.81.28v.59h-2.77v1.42h2.58v.59h-2.58v1.67h2.87v.59h-3.63v-4.86zM33.73 25.21h-1.13l-.44-1.21h-2.06l-.43 1.17h-1.1l2-5.14h1.11zm-1.91-2l-.71-1.91-.69 1.91zM30.48 19.92l-2.11 5.42h1.41l.43-1.17h1.86l.45 1.17h1.43l-2.17-5.42zm1.11.28l1.94 4.86h-.83l-.45-1.17h-2.25l-.43 1.17h-.8l1.89-4.86zM30.22 23.31h1.78l-.91-2.45zm.9-1.64l.5 1.33h-1zM34.6 25.21v-5.1h1v4.23h2.58v.87zM34.46 20v5.38h3.9v-1.19h-2.58v-4.19zm1 .28v4.23h2.58v.59h-3.3v-4.85z"/></g></svg>