<svg xmlns="http://www.w3.org/2000/svg" viewBox="0 0 50 50"><defs><style>.cls-1{fill:#ec1c2e;}.cls-2{fill:#0084c4;}.cls-3{fill:#fff;}.cls-4{fill:none;stroke:#fff;stroke-width:0.21px;}</style></defs><title>payment-maestro</title><g id="maestro"><path class="cls-1" d="M34.95 40l.77-.02.76-.06.75-.09.74-.14.73-.16.72-.21.69-.23.69-.27.66-.3.65-.33.63-.36.61-.4.59-.42.57-.44.54-.47.53-.5.49-.52.47-.55.45-.57.42-.58.39-.62.36-.63.33-.64.3-.67.27-.68.24-.7.2-.71.17-.73.13-.74.09-.75.06-.77.02-.77-.02-.77-.06-.76-.09-.74-.13-.74-.17-.72-.2-.71-.24-.7-.27-.68-.3-.66-.33-.64-.36-.63-.39-.61-.42-.59-.45-.56-.47-.55-.49-.52-.53-.49-.54-.47-.57-.45-.59-.42-.61-.39-.63-.36-.65-.33-.66-.3-.69-.27-.69-.23-.72-.21-.73-.17-.74-.13-.75-.09-.76-.06-.77-.02-.78.02-.76.06-.75.09-.74.13-.73.17-.71.21-.7.23-.68.27-.67.3-.64.33-.63.36-.61.39-.59.42-.56.45-.54.47-.52.49-.5.52-.47.55-.45.56-.41.59-.39.61-.36.63-.33.64-.3.66-.27.68-.24.7-.19.71-.17.72-.14.74-.09.74-.06.76-.02.77.02.77.06.77.09.75.14.74.17.73.19.71.24.7.27.68.3.67.33.64.36.63.39.62.41.58.45.57.47.55.5.52.52.5.54.47.56.44.59.42.61.4.63.36.64.33.67.3.68.27.7.23.71.21.73.16.74.14.75.09.76.06.78.02z"/><path class="cls-2" d="M15.05 40l.78-.02.76-.06.75-.09.74-.14.73-.16.71-.21.7-.23.68-.27.66-.3.65-.33.63-.36.61-.4.58-.42.57-.44.54-.47.52-.5.5-.52.47-.55.44-.57.42-.58.39-.62.36-.63.33-.64.3-.67.27-.68.24-.7.19-.71.17-.73.13-.74.1-.75.06-.77.02-.77-.02-.77-.06-.76-.1-.74-.13-.74-.17-.72-.19-.71-.24-.7-.27-.68-.3-.66-.33-.64-.36-.63-.39-.61-.42-.59-.44-.56-.47-.55-.5-.52-.52-.49-.54-.47-.57-.45-.58-.42-.61-.39-.63-.36-.65-.33-.66-.3-.68-.27-.7-.23-.71-.21-.73-.17-.74-.13-.75-.09-.76-.06-.78-.02-.77.02-.77.06-.74.09-.74.13-.73.17-.72.21-.69.23-.69.27-.66.3-.65.33-.63.36-.61.39-.59.42-.57.45-.54.47-.52.49-.5.52-.47.55-.45.56-.42.59-.39.61-.36.63-.33.64-.3.66-.27.68-.24.7-.2.71-.17.72-.13.74-.09.74-.06.76-.02.77.02.77.06.77.09.75.13.74.17.73.2.71.24.7.27.68.3.67.33.64.36.63.39.62.42.58.45.57.47.55.5.52.52.5.54.47.57.44.59.42.61.4.63.36.65.33.66.3.69.27.69.23.72.21.73.16.74.14.74.09.77.06.77.02z"/><path class="cls-1" d="M23.15 15.71h7.61v-.83h-6.87l-.74.83zM21.96 17.49h8.8v-.83h-8.27l-.53.83zM21.07 19.29h9.69v-.84h-9.28l-.41.84zM20.48 21.07h10.28v-.84h-10.02l-.26.84zM20.11 22.85h10.65v-.84h-10.5l-.15.84zM20.03 26.29h10.73v-.84h-10.81l.08.84zM20.28 28.17h10.48v-.84h-10.63l.15.84zM20.79 29.69h9.97v-.83h-10.23l.26.83zM21.55 31.55h9.21v-.84h-9.62l.41.84zM22.62 33.42h8.14v-.83h-8.7l.56.83zM23.96 35.23h6.72v-.84h-7.45l.73.84zM47.5 34.18l.05-.13.07-.12.09-.11.11-.09.13-.07.13-.04.14-.02.15.02.14.04.12.07.11.09.09.11.07.12.04.13h-.15l-.03-.09-.06-.1-.06-.09-.09-.07-.1-.06-.11-.03-.12-.01-.12.01-.11.03-.1.06-.09.07-.07.09-.05.1-.03.09h-.15zM47.97 34.18v-.17h.34l.05.01.05.01.04.02.03.03.03.02.01.04.01.04h-.13l-.01-.02-.01-.02-.01-.02-.02-.02-.02-.01h-.24v.09h-.12zM47.49 34.31l.01-.12v-.01h.15v.03l-.02.1h-.14zM47.97 34.31v-.13h.12v.11h.22l.02-.01.03-.01.01-.01.02-.02.01-.02v-.04h.13l-.01.05-.01.04-.01.03-.02.01h-.51zM48.8 34.31l-.01-.1v-.03h.15v.01l.02.12h-.16zM47.49 34.31v.03l.01.14.05.14.07.12.09.11.11.08.13.07.13.04.14.01.15-.01.14-.04.12-.07.11-.08.09-.11.07-.12.04-.14.02-.14v-.03h-.16v.03l-.01.12-.03.12-.06.11-.06.08-.09.08-.1.05-.11.04-.12.01-.12-.01-.11-.04-.1-.05-.09-.08-.07-.08-.05-.11-.03-.12-.02-.12v-.03h-.14zM47.97 34.31v.31h.12v-.25h.13l.15.25h.13l-.18-.25.04-.01.05-.01.03-.01.03-.02.01-.01h-.51z"/><path class="cls-3" d="M31.7 23.71l-.1-.01-.1-.01-.09-.01-.09-.01-.09-.02-.08-.01-.1-.01-.1-.02-.1-.01-.11-.01-.12-.01-.14-.01h-.14l-.16.01-.19.01-.19.02-.15.02-.13.02-.12.04-.11.05-.1.05-.09.06-.07.07-.06.07-.05.08-.03.08-.01.09v.08l.02.1.03.09.06.1.07.09.14.13.17.1.19.09.22.07.22.08.23.07.24.08.22.1.22.12.2.15.17.18.15.21.12.27.07.32.02.37-.02.44-.05.34-.09.29-.12.27-.14.23-.17.21-.18.18-.2.15-.22.13-.23.11-.23.09-.24.07-.25.06-.24.04-.23.02-.23.02h-.8l-.25-.01h-.24l-.21-.01-.19-.01-.17-.02-.16-.02-.15-.02-.14-.02-.13-.03-.12-.03-.12-.03-.12-.04-.12-.04-.12-.05.3-1.54.07.01.09.02.1.03.11.03.14.02.14.04.16.03.17.03.18.02.19.03.19.02.2.01.2.02h.42l.21-.01.19-.03.17-.06.12-.08.1-.09.07-.1.06-.11.04-.11.03-.11.02-.11-.01-.1-.02-.09-.04-.08-.06-.08-.07-.07-.08-.06-.09-.06-.11-.05-.11-.06-.12-.05-.13-.05-.13-.05-.14-.06-.14-.05-.14-.06-.14-.06-.13-.06-.14-.08-.14-.08-.12-.08-.12-.09-.12-.11-.1-.11-.09-.13-.09-.14-.07-.15-.05-.17-.05-.18-.02-.2v-.21l.01-.23.01-.15.02-.14.03-.13.02-.13.03-.12.04-.12.04-.12.05-.11.05-.1.06-.11.06-.09.07-.09.07-.09.08-.09.09-.08.09-.07.1-.07.1-.06.11-.06.12-.06.13-.05.13-.05.14-.04.14-.04.16-.03.16-.03.17-.03.18-.02.19-.01.19-.01.21-.01h.71l.21.01.2.01.17.01.16.01.14.01.12.01.12.02.09.01.1.01.08.02.07.01.06.01.06.01h.05l-.35 1.6z"/><path class="cls-4" d="M31.7 23.71l-.1-.01-.1-.01-.09-.01-.09-.01-.09-.02-.08-.01-.1-.01-.1-.02-.1-.01-.11-.01-.12-.01-.14-.01h-.14l-.16.01-.19.01-.19.02-.15.02-.13.02-.12.04-.11.05-.1.05-.09.06-.07.07-.06.07-.05.08-.03.08-.01.09v.08l.02.1.03.09.06.1.07.09.14.13.17.1.19.09.22.07.22.08.23.07.24.08.22.1.22.12.2.15.17.18.15.21.12.27.07.32.02.37-.02.44-.05.34-.09.29-.12.27-.14.23-.17.21-.18.18-.2.15-.22.13-.23.11-.23.09-.24.07-.25.06-.24.04-.23.02-.23.02h-.8l-.25-.01h-.24l-.21-.01-.19-.01-.17-.02-.16-.02-.15-.02-.14-.02-.13-.03-.12-.03-.12-.03-.12-.04-.12-.04-.12-.05.3-1.54.07.01.09.02.1.03.11.03.14.02.14.04.16.03.17.03.18.02.19.03.19.02.2.01.2.02h.42l.21-.01.19-.03.17-.06.12-.08.1-.09.07-.1.06-.11.04-.11.03-.11.02-.11-.01-.1-.02-.09-.04-.08-.06-.08-.07-.07-.08-.06-.09-.06-.11-.05-.11-.06-.12-.05-.13-.05-.13-.05-.14-.06-.14-.05-.14-.06-.14-.06-.13-.06-.14-.08-.14-.08-.12-.08-.12-.09-.12-.11-.1-.11-.09-.13-.09-.14-.07-.15-.05-.17-.05-.18-.02-.2v-.21l.01-.23.01-.15.02-.14.03-.13.02-.13.03-.12.04-.12.04-.12.05-.11.05-.1.06-.11.06-.09.07-.09.07-.09.08-.09.09-.08.09-.07.1-.07.1-.06.11-.06.12-.06.13-.05.13-.05.14-.04.14-.04.16-.03.16-.03.17-.03.18-.02.19-.01.19-.01.21-.01h.71l.21.01.2.01.17.01.16.01.14.01.12.01.12.02.09.01.1.01.08.02.07.01.06.01.06.01h.05l-.35 1.6"/><path class="cls-3" d="M33.32 20.41h1.98l-.3 1.73h1.21l-.27 1.57-1.25-.03-.66 3.93-.01.09v.07l.01.07.02.05.03.05.04.05.04.04.05.03.06.03.06.02.07.03h.07l.08.02h.08l.08.01h.24l.14-.01.13-.02.11-.03.08-.02.07-.02.03-.02.02-.01-.2 1.35-.05.03-.06.02-.05.03-.06.02-.05.02-.06.02-.06.02-.07.02-.07.02-.07.01-.08.02-.09.01-.1.02-.09.01-.12.02-.12.01h-.53l-.28-.02-.25-.03-.22-.04-.2-.05-.16-.06-.14-.07-.11-.09-.09-.09-.08-.1-.05-.12-.04-.12-.02-.14v-.30000000000000004l.02-.16.02-.18 1.32-7.71z"/><path class="cls-4" d="M33.32 20.41h1.98l-.3 1.73h1.21l-.27 1.57-1.25-.03-.66 3.93-.01.09v.07l.01.07.02.05.03.05.04.05.04.04.05.03.06.03.06.02.07.03h.07l.08.02h.08l.08.01h.24l.14-.01.13-.02.11-.03.08-.02.07-.02.03-.02.02-.01-.2 1.35-.05.03-.06.02-.05.03-.06.02-.05.02-.06.02-.06.02-.07.02-.07.02-.07.01-.08.02-.09.01-.1.02-.09.01-.12.02-.12.01h-.53l-.28-.02-.25-.03-.22-.04-.2-.05-.16-.06-.14-.07-.11-.09-.09-.09-.08-.1-.05-.12-.04-.12-.02-.14v-.30000000000000004l.02-.16.02-.18 1.32-7.71"/><path class="cls-3" d="M21.27 26.39l-.02.13-.01.12.01.13.03.13.04.14.06.13.07.13.08.12.1.12.11.11.11.1.12.09.14.08.13.07.15.05.15.03.18.03.17.02.19.02.18.01h.37l.19-.01.19-.01.19-.03.2-.03.19-.05.2-.07.2-.07.21-.09.2-.11.21-.12-.31 1.75-.11.06-.12.06-.1.04-.11.04-.11.04-.11.03-.11.02-.12.03-.13.01-.14.02-.15.01-.16.01-.18.01h-.8200000000000001l-.18-.01-.17-.01-.18-.02-.18-.02-.18-.03-.18-.04-.18-.04-.17-.05-.17-.06-.17-.06-.17-.08-.16-.08-.16-.09-.15-.1-.14-.11-.14-.11-.13-.13-.13-.14-.12-.15-.1-.16-.1-.17-.09-.18-.08-.19-.07-.21-.05-.22-.05-.22-.03-.25-.02-.26v-.26l.01-.29.03-.29.01-.11.02-.12.02-.11.02-.13.03-.14.03-.13.04-.15.04-.14.05-.16.05-.15.07-.15.07-.15.08-.15.08-.16.09-.15.1-.15.11-.14.12-.14.13-.14.14-.13.15-.13.17-.12.17-.11.18-.1.2-.09.21-.08.22-.07.24-.06.25-.05.27-.04.28-.02.29-.01h.14l.14.01.14.01.14.02.15.02.14.03.15.03.14.04.14.04.15.06.13.06.14.07.13.08.12.08.12.1.12.1.11.12.1.12.09.14.09.14.08.16.07.16.06.19.04.19.04.21.02.21.01.24v.24l-.01.26-.02.28-.05.29-.06.31-.08.43h-5.12l.31-1.37h3.07l.01-.19v-.17l-.01-.16-.03-.15-.04-.13-.05-.13-.06-.11-.07-.1-.09-.08-.09-.08-.1-.06-.1-.05-.12-.03-.11-.04-.13-.01-.13-.01h-.13l-.13.02-.13.03-.12.04-.11.05-.11.07-.1.07-.1.08-.09.1-.07.11-.08.11-.07.12-.06.13-.05.14-.04.15-.03.15-.28 1.47z"/><path class="cls-4" d="M21.27 26.39l-.02.13-.01.12.01.13.03.13.04.14.06.13.07.13.08.12.1.12.11.11.11.1.12.09.14.08.13.07.15.05.15.03.18.03.17.02.19.02.18.01h.37l.19-.01.19-.01.19-.03.2-.03.19-.05.2-.07.2-.07.21-.09.2-.11.21-.12-.31 1.75-.11.06-.12.06-.1.04-.11.04-.11.04-.11.03-.11.02-.12.03-.13.01-.14.02-.15.01-.16.01-.18.01h-.8200000000000001l-.18-.01-.17-.01-.18-.02-.18-.02-.18-.03-.18-.04-.18-.04-.17-.05-.17-.06-.17-.06-.17-.08-.16-.08-.16-.09-.15-.1-.14-.11-.14-.11-.13-.13-.13-.14-.12-.15-.1-.16-.1-.17-.09-.18-.08-.19-.07-.21-.05-.22-.05-.22-.03-.25-.02-.26v-.26l.01-.29.03-.29.01-.11.02-.12.02-.11.02-.13.03-.14.03-.13.04-.15.04-.14.05-.16.05-.15.07-.15.07-.15.08-.15.08-.16.09-.15.1-.15.11-.14.12-.14.13-.14.14-.13.15-.13.17-.12.17-.11.18-.1.2-.09.21-.08.22-.07.24-.06.25-.05.27-.04.28-.02.29-.01h.14l.14.01.14.01.14.02.15.02.14.03.15.03.14.04.14.04.15.06.13.06.14.07.13.08.12.08.12.1.12.1.11.12.1.12.09.14.09.14.08.16.07.16.06.19.04.19.04.21.02.21.01.24v.24l-.01.26-.02.28-.05.29-.06.31-.08.43h-5.12l.31-1.37h3.07l.01-.19v-.17l-.01-.16-.03-.15-.04-.13-.05-.13-.06-.11-.07-.1-.09-.08-.09-.08-.1-.06-.1-.05-.12-.03-.11-.04-.13-.01-.13-.01h-.13l-.13.02-.13.03-.12.04-.11.05-.11.07-.1.07-.1.08-.09.1-.07.11-.08.11-.07.12-.06.13-.05.14-.04.15-.03.15-.28 1.47"/><path class="cls-3" d="M18.53 28.12l-.28 1.57h-1.78l.02-.14.02-.15.02-.14.02-.12.02-.1.02-.09.01-.06.03-.03-.1.1-.12.11-.13.11-.15.09-.17.1-.17.09-.19.08-.19.07-.2.06-.21.06-.21.04-.21.03-.2.01-.21.01-.19-.02-.19-.03-.26-.06-.22-.08-.2-.09-.18-.1-.15-.12-.14-.12-.12-.14-.09-.15-.09-.14-.07-.16-.05-.16-.05-.16-.03-.15-.02-.17-.01-.15v-.16l.02-.27.04-.26.07-.26.09-.23.11-.23.13-.2.15-.19.17-.19.18-.16.19-.14.21-.14.22-.11.22-.1.24-.08.23-.05.24-.05h.05l.05-.01.07-.01.09-.01.1-.01.11-.01.12-.01.11-.01.12-.02.12-.01.12-.01.11-.01h.1l.1-.01h.32999999999999996l.09.01h.32l.07.01h.16l.04.01h.060000000000000005l.01-.05.04-.12.02-.14v-.12l-.01-.09-.01-.08-.03-.08-.03-.08-.04-.07-.05-.06-.05-.06-.06-.06-.06-.05-.07-.04-.07-.04-.08-.03-.07-.03-.09-.02-.08-.01-.09-.01-.2-.01-.21.01h-.22l-.23.02-.23.01-.22.02-.23.03-.22.02-.21.04-.2.03-.19.03-.17.04-.15.04-.13.04-.1.04-.08.04.51-1.67.15-.07.16-.07.15-.05.17-.04.17-.04.18-.03.19-.02.19-.02.2-.01.2-.01.21-.01h.67l.24.01h.24l.2.02.22.03.22.06.22.06.22.08.22.11.21.11.2.14.18.16.16.17.14.2.11.21.08.23.04.25.01.27-.04.29-.74 3.7z"/><path class="cls-4" d="M18.53 28.12l-.28 1.57h-1.78l.02-.14.02-.15.02-.14.02-.12.02-.1.02-.09.01-.06.03-.03-.1.1-.12.11-.13.11-.15.09-.17.1-.17.09-.19.08-.19.07-.2.06-.21.06-.21.04-.21.03-.2.01-.21.01-.19-.02-.19-.03-.26-.06-.22-.08-.2-.09-.18-.1-.15-.12-.14-.12-.12-.14-.09-.15-.09-.14-.07-.16-.05-.16-.05-.16-.03-.15-.02-.17-.01-.15v-.16l.02-.27.04-.26.07-.26.09-.23.11-.23.13-.2.15-.19.17-.19.18-.16.19-.14.21-.14.22-.11.22-.1.24-.08.23-.05.24-.05h.05l.05-.01.07-.01.09-.01.1-.01.11-.01.12-.01.11-.01.12-.02.12-.01.12-.01.11-.01h.1l.1-.01h.32999999999999996l.09.01h.32l.07.01h.16l.04.01h.060000000000000005l.01-.05.04-.12.02-.14v-.12l-.01-.09-.01-.08-.03-.08-.03-.08-.04-.07-.05-.06-.05-.06-.06-.06-.06-.05-.07-.04-.07-.04-.08-.03-.07-.03-.09-.02-.08-.01-.09-.01-.2-.01-.21.01h-.22l-.23.02-.23.01-.22.02-.23.03-.22.02-.21.04-.2.03-.19.03-.17.04-.15.04-.13.04-.1.04-.08.04.51-1.67.15-.07.16-.07.15-.05.17-.04.17-.04.18-.03.19-.02.19-.02.2-.01.2-.01.21-.01h.67l.24.01h.24l.2.02.22.03.22.06.22.06.22.08.22.11.21.11.2.14.18.16.16.17.14.2.11.21.08.23.04.25.01.27-.04.29-.74 3.7"/><path class="cls-2" d="M16.83 26.27v-.04l-.03-.03-.05-.03-.07-.01-.08-.01-.09-.01h-.21000000000000002l-.11.01-.12.02-.11.01-.12.02-.11.02-.1.02-.09.03-.08.02-.04.01-.06.02-.07.03-.08.03-.09.03-.09.05-.1.05-.09.06-.09.07-.09.07-.09.08-.07.09-.07.09-.05.11-.04.11-.02.12-.01.24.03.19.06.14.09.11.11.08.11.04.13.03h.33l.19-.02.18-.03.17-.05.15-.05.13-.06.12-.07.1-.07.09-.07.08-.09.07-.08.06-.08.05-.08.04-.08.03-.08.02-.08.03-.1.02-.12.03-.12.02-.12.02-.12.02-.11.02-.1.02-.09z"/><path class="cls-3" d="M3.66 29.69h-1.93l1.62-9.28h3.35l.33 5.53 2.28-5.53h3.48l-1.62 9.28h-1.93l1.22-6.95h-.08l-2.87 6.95h-2.15l-.02-.29-.05-.77-.06-1.1-.08-1.25-.07-1.27-.06-1.12-.05-.81-.02-.34h-.1.02l-1.21 6.95z"/><path class="cls-4" d="M3.66 29.69h-1.93l1.62-9.28h3.35l.33 5.53 2.28-5.53h3.48l-1.62 9.28h-1.93l1.22-6.95h-.08l-2.87 6.95h-2.15l-.02-.29-.05-.77-.06-1.1-.08-1.25-.07-1.27-.06-1.12-.05-.81-.02-.34h-.1.02l-1.21 6.95"/><path class="cls-3" d="M35.86 29.69h2.01l.68-4 .03-.16.03-.15.04-.16.05-.14.06-.14.07-.14.08-.13.09-.12.12-.11.12-.1.16-.09.17-.07.19-.07.22-.05.25-.03.28-.02h.02l.03.01h.08l.03.01h.03l.02.01h.01l.01-.03.02-.08.02-.13.04-.17.05-.18.06-.2.06-.19.07-.19.06-.14.06-.13.07-.13.07-.13.06-.1.04-.08.04-.06.01-.02h-.01l-.03-.01h-.03l-.05-.01-.05-.01-.06-.01-.05-.01h-.05l-.22.02-.2.02-.18.04-.17.05-.15.05-.15.07-.13.08-.13.08-.12.1-.11.1-.11.11-.11.11-.1.13-.1.13-.1.14-.11.14.24-1.26-2.01-.03-1.32 7.58z"/><path class="cls-4" d="M35.86 29.69h2.01l.68-4 .03-.16.03-.15.04-.16.05-.14.06-.14.07-.14.08-.13.09-.12.12-.11.12-.1.16-.09.17-.07.19-.07.22-.05.25-.03.28-.02h.02l.03.01h.08l.03.01h.03l.02.01h.01l.01-.03.02-.08.02-.13.04-.17.05-.18.06-.2.06-.19.07-.19.06-.14.06-.13.07-.13.07-.13.06-.1.04-.08.04-.06.01-.02h-.01l-.03-.01h-.03l-.05-.01-.05-.01-.06-.01-.05-.01h-.05l-.22.02-.2.02-.18.04-.17.05-.15.05-.15.07-.13.08-.13.08-.12.1-.11.1-.11.11-.11.11-.1.13-.1.13-.1.14-.11.14.24-1.26-2.01-.03-1.32 7.58"/><path class="cls-3" d="M44.54 22.03l.22.01.22.01.21.02.21.03.19.04.2.05.18.05.18.07.17.07.17.08.16.09.15.09.15.1.13.11.13.11.12.13.12.12.11.14.1.14.09.15.09.15.08.16.07.17.06.17.05.17.05.18.04.19.03.19.02.2.01.2v.41000000000000003l-.02.25-.03.25-.03.23-.05.22-.05.22-.06.21-.07.2-.07.19-.09.19-.09.17-.1.17-.11.16-.11.15-.13.14-.12.14-.14.12-.13.12-.15.12-.15.1-.15.09-.17.09-.16.08-.17.08-.18.06-.17.06-.19.05-.19.04-.19.03-.19.03-.2.02-.2.01h-.41000000000000003l-.2-.01-.19-.02-.19-.03-.19-.04-.19-.04-.18-.05-.17-.06-.17-.06-.16-.07-.16-.08-.16-.09-.14-.09-.14-.11-.14-.11-.13-.12-.12-.12-.11-.13-.11-.14-.1-.15-.09-.15-.09-.16-.07-.17-.07-.17-.06-.19-.05-.19-.05-.19-.03-.21-.03-.21-.01-.22-.01-.22.01-.23.01-.24.03-.23.03-.22.05-.21.05-.21.05-.2.07-.19.07-.19.08-.18.09-.17.1-.17.1-.16.11-.15.12-.15.12-.13.13-.13.14-.13.14-.11.15-.11.15-.1.16-.08.17-.09.17-.08.18-.07.18-.06.19-.05.19-.04.2-.04.2-.03.21-.02.21-.01.21-.01z"/><path class="cls-4" d="M44.54 22.03l.22.01.22.01.21.02.21.03.19.04.2.05.18.05.18.07.17.07.17.08.16.09.15.09.15.1.13.11.13.11.12.13.12.12.11.14.1.14.09.15.09.15.08.16.07.17.06.17.05.17.05.18.04.19.03.19.02.2.01.2v.41000000000000003l-.02.25-.03.25-.03.23-.05.22-.05.22-.06.21-.07.2-.07.19-.09.19-.09.17-.1.17-.11.16-.11.15-.13.14-.12.14-.14.12-.13.12-.15.12-.15.1-.15.09-.17.09-.16.08-.17.08-.18.06-.17.06-.19.05-.19.04-.19.03-.19.03-.2.02-.2.01h-.41000000000000003l-.2-.01-.19-.02-.19-.03-.19-.04-.19-.04-.18-.05-.17-.06-.17-.06-.16-.07-.16-.08-.16-.09-.14-.09-.14-.11-.14-.11-.13-.12-.12-.12-.11-.13-.11-.14-.1-.15-.09-.15-.09-.16-.07-.17-.07-.17-.06-.19-.05-.19-.05-.19-.03-.21-.03-.21-.01-.22-.01-.22.01-.23.01-.24.03-.23.03-.22.05-.21.05-.21.05-.2.07-.19.07-.19.08-.18.09-.17.1-.17.1-.16.11-.15.12-.15.12-.13.13-.13.14-.13.14-.11.15-.11.15-.1.16-.08.17-.09.17-.08.18-.07.18-.06.19-.05.19-.04.2-.04.2-.03.21-.02.21-.01.21-.01"/><path class="cls-3" d="M47.49 29.31h.58v.08h-.23v.48h-.13v-.48h-.22v-.08z"/><path class="cls-4" d="M47.49 29.31h.58v.08h-.23v.48h-.13v-.48h-.22v-.08"/><path class="cls-3" d="M48.14 29.31h.18l.21.43.2-.43h.18v.56h-.13v-.43l-.2.43h-.11l-.2-.43v.43h-.13v-.56z"/><path class="cls-4" d="M48.14 29.31h.18l.21.43.2-.43h.18v.56h-.13v-.43l-.2.43h-.11l-.2-.43v.43h-.13v-.56"/><path class="cls-1" d="M42.97 25.66l-.03.27-.02.26v.23l.02.22.03.19.04.18.06.15.06.15.09.12.09.1.1.09.12.07.12.06.14.04.14.01.16.02.16-.01.17-.02.15-.04.15-.05.13-.07.14-.09.12-.1.12-.12.1-.14.1-.16.09-.18.08-.19.08-.21.06-.23.05-.25.05-.27.02-.22.02-.2v-.2l-.02-.18-.02-.18-.04-.16-.06-.16-.06-.14-.08-.13-.09-.11-.1-.1-.12-.07-.13-.07-.13-.04-.15-.02h-.16l-.2.01-.19.04-.17.06-.17.07-.15.1-.13.11-.13.12-.11.14-.1.15-.09.15-.08.16-.06.17-.06.17-.05.16-.03.17-.03.17z"/></g></svg>