<svg xmlns="http://www.w3.org/2000/svg" viewBox="0 0 50 50"><defs><style>.cls-1{fill:#009ee2;}.cls-2{fill:#fff;}</style></defs><title>payment-kbc-mobile</title><g id="kbc-mobile"><rect class="cls-1" x="8.63" y="8.63" width="32.75" height="32.75" rx="7.52" ry="7.52"/><path class="cls-2" d="M20.14 35.9v1.25h-1.6v-3.32h1.59v1.49l.94-1.49h1.93l-1.4 1.71 1.32 1.6h-1.83l-.94-1.25zM32 37a4.78 4.78 0 0 1-1.31.18c-1.58 0-2.73-.45-2.73-1.75s1.12-1.69 2.65-1.69a4.91 4.91 0 0 1 1.39.18v1.14a1.94 1.94 0 0 0-1.08-.31c-.58 0-1.17.29-1.17.71s.58.71 1.17.71a2 2 0 0 0 1.08-.3zM23.26 33.83h3.22c.84 0 1.11.33 1.11.83s-.51.81-1 .84c.53 0 1.05.1 1.05.77 0 .44-.27.86-1.19.86h-3.19zm1.59 2.64h.83c.31 0 .42-.13.42-.32s-.11-.33-.41-.33h-.83zm0-1.24h.79c.31 0 .43-.12.43-.31s-.12-.33-.4-.33h-.82zM33.83 15h-17.21a1 1 0 0 0-1 1v12.61a1.3 1.3 0 0 0 1.3 1.3h16.62a1.3 1.3 0 0 0 1.3-1.3v-12.61a1 1 0 0 0-1.01-1zm.56 9.16a.07.07 0 0 1-.07.07h-4.58a.07.07 0 0 1-.07-.07v-3.48h4.72zm-17.77-8.72h17.21a.56.56 0 0 1 .56.56v.9h-18.32v-.9a.56.56 0 0 1 .55-.56zm16.92 14h-16.63a.85.85 0 0 1-.85-.85v-11.24h18.33v2.88h-4.73a.44.44 0 0 0-.44.44v3.48a.52.52 0 0 0 .52.52h4.65v3.95a.85.85 0 0 1-.85.83z"/><circle class="cls-2" cx="31.21" cy="22.45" r=".78"/></g></svg>