<svg xmlns="http://www.w3.org/2000/svg" viewBox="0 0 50 50">
    <defs>
        <style>.cls-1{fill:#e7e8e3;}.cls-2{fill:#006e90;}.cls-3{fill:#66cde7;}</style>
    </defs>
    <title>payment-transfer-nl</title>
    <g id="transfer">
        <path class="cls-1" d="M49.76 37.41a2.77 2.77 0 0 1-2.92 2.59h-43.68a2.77 2.77 0 0 1-2.92-2.59v-24.82a2.77 2.77 0 0 1 2.92-2.59h43.68a2.77 2.77 0 0 1 2.93 2.57v24.84z"/>
        <path class="cls-2" d="M18 19.74h2.66c1 0 2.06.24 2.06 1.43a1.28 1.28 0 0 1-.72 1.15 1.35 1.35 0 0 1 1 1.35c0 1.36-1 1.77-2.22 1.77h-2.78zm1.47 2.26h1.15a.55.55 0 0 0 .61-.54c0-.41-.3-.55-.61-.55h-1.15zm0 2.26h1.19c.47 0 .8-.17.8-.64s-.35-.67-.8-.67h-1.19zM25.29 19.74h1.51l2.13 5.69h-1.55l-.35-1h-2.03l-.36 1h-1.48zm.1 3.57h1.29l-.63-2zM29.34 19.74h1.52l2 3.51v-3.51h1.4v5.69h-1.53l-2-3.55v3.55h-1.4zM35.26 19.74h1.48v2.18l1.87-2.18h1.84l-2.09 2.26 2.37 3.45h-1.85l-1.53-2.45-.61.64v1.75h-1.48v-5.65zM9.27 26.72v-.41a4.41 4.41 0 0 1 0-.53 2.71 2.71 0 0 1 .12-.62 3.31 3.31 0 0 1 .24-.68l.16-.35.21-.34a4.16 4.16 0 0 1 .5-.65 7.24 7.24 0 0 1 .6-.57c.22-.16.43-.33.65-.46a6.57 6.57 0 0 1 .65-.36c.21-.12.42-.19.61-.28s.56-.21.78-.27a4.25 4.25 0 0 1-.23-.7 3.78 3.78 0 0 1-.12-.81 3.85 3.85 0 0 1 .76.32 5.1 5.1 0 0 1 .64.41 6.24 6.24 0 0 1 1 1 .82.82 0 0 1 .08.95v.06a6.31 6.31 0 0 1-1 1.3 5.11 5.11 0 0 1-.67.55l-.39.24a3.13 3.13 0 0 1-.44.21 3.22 3.22 0 0 1 0-.49c0-.15 0-.3.06-.45a4.67 4.67 0 0 1 .22-.84v-.08h-.3c-.17 0-.36.06-.55.11a5.36 5.36 0 0 0-.59.18c-.21.06-.4.17-.62.26a5.27 5.27 0 0 0-.59.36 3.25 3.25 0 0 0-.53.44l-.24.24-.2.27a3 3 0 0 0-.34.55 2.48 2.48 0 0 0-.23.54 3.76 3.76 0 0 0-.16.48l-.07.39-.06.35v-.35z"/>
        <path class="cls-3" d="M15.46 26.13a5.48 5.48 0 0 1-.58.37c-.21.09-.4.21-.61.28a5.52 5.52 0 0 1-.59.2l-.54.13h-.3v-.08a5 5 0 0 0 .2-.84v-.46a3.27 3.27 0 0 0 0-.49 3.36 3.36 0 0 0-.44.22l-.38.25a5.16 5.16 0 0 0-.65.57 6.32 6.32 0 0 0-1 1.33v.06a.82.82 0 0 0 .11.95 6.12 6.12 0 0 0 1.07 1 5 5 0 0 0 .65.39 3.65 3.65 0 0 0 .76.29 3.93 3.93 0 0 0-.14-.81 4.86 4.86 0 0 0-.24-.69c.21-.07.47-.17.76-.29s.4-.17.61-.3a6 6 0 0 0 .64-.39c.22-.13.42-.32.64-.48a6.27 6.27 0 0 0 .58-.59 4.15 4.15 0 0 0 .48-.66l.2-.34.15-.35a3.3 3.3 0 0 0 .21-.69 2.53 2.53 0 0 0 .1-.63 3.66 3.66 0 0 0 0-.53v-.76l-.05.34-.06.39a3.72 3.72 0 0 1-.04.48 2.66 2.66 0 0 1-.22.55 3 3 0 0 1-.32.56l-.19.27a3.07 3.07 0 0 1-.24.25 3.17 3.17 0 0 1-.52.46zM19.68 28.48v.66a.8.8 0 0 1-.12.35.67.67 0 0 1-.27.25 1 1 0 0 1-.79 0 .66.66 0 0 1-.28-.24.78.78 0 0 1-.12-.35v-1.81a.81.81 0 0 1 .12-.35.67.67 0 0 1 .27-.25.89.89 0 0 1 .4-.08.91.91 0 0 1 .39.08.66.66 0 0 1 .28.24.8.8 0 0 1 .12.35v.67zm-.7-1a1.11 1.11 0 0 0 0-.28.08.08 0 0 0-.09-.06.09.09 0 0 0-.08 0 .8.8 0 0 0 0 .29v1.44a1.64 1.64 0 0 0 0 .33.08.08 0 0 0 .09.06.09.09 0 0 0 .09-.07 1.8 1.8 0 0 0 0-.34zM21.6 26.68l-.36 3.08h-1.06l-.4-3.08h.74q.13 1.27.18 2.15.05-.89.12-1.58v-.57zM21.72 26.68h1.17v.62h-.47v.58h.44v.58h-.44v.68h.51v.62h-1.21zM23.13 26.68h.49a3.3 3.3 0 0 1 .67 0 .47.47 0 0 1 .29.22 1.14 1.14 0 0 1 .11.57 1 1 0 0 1-.08.48.39.39 0 0 1-.31.15.51.51 0 0 1 .28.16.49.49 0 0 1 .09.18 3.25 3.25 0 0 1 0 .46v.81h-.67v-1a.8.8 0 0 0 0-.31s-.08-.06-.18-.06v1.39h-.7zm.7.53v.68a.28.28 0 0 0 .17 0v-.41000000000000003a.28.28 0 0 0 0-.19.24.24 0 0 0-.17-.08zM26.44 27.61h-.65v-.23a.51.51 0 0 0 0-.2.09.09 0 0 0-.08 0 .1.1 0 0 0-.1.06.39.39 0 0 0 0 .18.57.57 0 0 0 0 .23.56.56 0 0 0 .2.19 2.05 2.05 0 0 1 .59.52 1.33 1.33 0 0 1 .12.66 1.3 1.3 0 0 1-.07.49.56.56 0 0 1-.26.26.92.92 0 0 1-.45.11.9.9 0 0 1-.48-.12.57.57 0 0 1-.26-.31 1.8 1.8 0 0 1-.06-.53v-.2h.65v.28a.55.55 0 0 0 0 .22.1.1 0 0 0 .1 0 .11.11 0 0 0 .1-.06.39.39 0 0 0 0-.19.65.65 0 0 0-.06-.36 2.07 2.07 0 0 0-.33-.28 3.27 3.27 0 0 1-.34-.29.68.68 0 0 1-.14-.25 1.23 1.23 0 0 1-.06-.4 1.25 1.25 0 0 1 .14-.39.56.56 0 0 1 .25-.26.9.9 0 0 1 .42-.09 1 1 0 0 1 .46.1.52.52 0 0 1 .25.25 1.54 1.54 0 0 1 .06.52zM28.35 28h-.7v-.54a1.11 1.11 0 0 0 0-.29.1.1 0 0 0-.1-.06.1.1 0 0 0-.11.07 1.28 1.28 0 0 0 0 .3v1.43a1.2 1.2 0 0 0 0 .29.1.1 0 0 0 .11.07.1.1 0 0 0 .1-.07 1.29 1.29 0 0 0 0-.32v-.39h.7v.12a2.71 2.71 0 0 1-.06.68.67.67 0 0 1-.26.35.81.81 0 0 1-.5.15.92.92 0 0 1-.51-.13.61.61 0 0 1-.26-.35 2.59 2.59 0 0 1-.07-.68v-.9a4.45 4.45 0 0 1 0-.5.75.75 0 0 1 .12-.32.69.69 0 0 1 .27-.24 1 1 0 0 1 .91 0 .63.63 0 0 1 .26.34 2.29 2.29 0 0 1 .06.63zM30.2 26.68v3.08h-.7v-1.3h-.2v1.29h-.7v-3.07h.7v1.1h.21v-1.1zM30.48 26.68h.52a3.3 3.3 0 0 1 .67 0 .47.47 0 0 1 .29.22 1.14 1.14 0 0 1 .11.57 1 1 0 0 1-.07.53.39.39 0 0 1-.31.15.51.51 0 0 1 .28.16.49.49 0 0 1 .09.18 3.25 3.25 0 0 1 0 .46v.81h-.66v-1a.8.8 0 0 0 0-.31s-.08-.06-.18-.06v1.39h-.7zm.7.53v.68a.28.28 0 0 0 .17 0v-.41000000000000003a.28.28 0 0 0 0-.19.24.24 0 0 0-.17-.08zM33 26.68v3.08h-.7v-3.08zM34.15 26.68v2.65a.49.49 0 0 1-.08.24.35.35 0 0 1-.18.15 1.11 1.11 0 0 1-.35 0h-.35v-.54h.09a.16.16 0 0 0 .12 0 .17.17 0 0 0 0-.1v-2.4000000000000004zM36.08 26.68l-.36 3.08h-1.06l-.4-3.08h.74q.13 1.27.18 2.15.05-.89.12-1.58v-.57zM36.9 26.68v3.08h-.7v-3.08zM38.74 26.68v3.08h-.61l-.36-1.4v1.4h-.58v-3.08h.58l.39 1.39v-1.39zM40.62 27.81h-.7v-.28a1.54 1.54 0 0 0 0-.33.1.1 0 0 0-.18 0 1.11 1.11 0 0 0 0 .29v1.51a1.05 1.05 0 0 0 0 .27.09.09 0 0 0 .09.07.1.1 0 0 0 .1-.07 1 1 0 0 0 0-.29v-.37h-.13v-.51h.82v1.65h-.44l-.07-.22a.52.52 0 0 1-.18.21.45.45 0 0 1-.26.07.6.6 0 0 1-.33-.1.67.67 0 0 1-.23-.24.82.82 0 0 1-.1-.3 4 4 0 0 1 0-.48v-.91a3.43 3.43 0 0 1 0-.64.65.65 0 0 1 .24-.37.76.76 0 0 1 .51-.17.85.85 0 0 1 .51.14.66.66 0 0 1 .26.34 2.06 2.06 0 0 1 .06.58z"/>
    </g>
</svg>