<svg xmlns="http://www.w3.org/2000/svg" viewBox="0 0 50 50">
    <defs>
        <style>.cls-1{fill:#78a431;}.cls-2{fill:#675041;}</style>
    </defs>
    <title>payment-afterpay</title>
    <g id="afterpay">
        <path class="cls-1" d="M3.54 20.09a2.94 2.94 0 0 0-1.16 0 2.77 2.77 0 0 0-2.3 2.8v4.46a.86.86 0 0 0 .08.42.51.51 0 0 0 .33.23.5.5 0 0 0 .41-.08.69.69 0 0 0 .26-.61v-1.8h3.61v1.81a.91.91 0 0 0 .1.42.51.51 0 0 0 .32.25h.11a.47.47 0 0 0 .29-.09.66.66 0 0 0 .24-.61v-4.4a2.77 2.77 0 0 0-2.29-2.8zm1.22 2.81v1.64h-3.6v-1.64a1.69 1.69 0 0 1 .84-1.55 1.82 1.82 0 0 1 1.38-.28 1.51 1.51 0 0 1 .63.27h-.01a1.72 1.72 0 0 1 .79 1.55zm11.75 2.7a.5.5 0 0 0-.3-.25.53.53 0 0 0-.4 0 .62.62 0 0 0-.31.48v.30000000000000004a1.22 1.22 0 0 1-1.45 1c-.47-.07-1.09-.32-1.09-1.6v-.08h1.41c.17 0 .68 0 .68-.51a.47.47 0 0 0-.42-.48h-1.71v-2a.86.86 0 0 0-.08-.42.51.51 0 0 0-.32-.25.5.5 0 0 0-.41.08.66.66 0 0 0-.24.61v2.91c0 1.66.6 2.49 1.95 2.71a2.6 2.6 0 0 0 .47 0 2.26 2.26 0 0 0 2.23-1.7v-.24a1 1 0 0 0-.06-.63zm6.89-1.39a3.23 3.23 0 1 0-6.18 1.87 3.1 3.1 0 0 0 3 2.12 3.55 3.55 0 0 0 .76-.08 3.4 3.4 0 0 0 1.11-.47 2.72 2.72 0 0 0 .58-.49.79.79 0 0 0 .26-.58.49.49 0 0 0-.59-.43.77.77 0 0 0-.32.18l-.09.11-.13.12a2.06 2.06 0 0 1-1 .58 2.12 2.12 0 0 1-2.47-1.32l-.07-.23h4.74a.49.49 0 0 0 .38-.2c.16-.22.15-.54 0-1.18zm-5.16.18a2.12 2.12 0 0 1 2.66-1.39 2.15 2.15 0 0 1 1.47 1.54 1.44 1.44 0 0 1 0 .17h-4.25a1.79 1.79 0 0 1 .07-.26zm10.6-.63c0-.09 0-.17-.07-.24v-.06a2.32 2.32 0 0 0-2.26-1.61 2.28 2.28 0 0 0-.5 0 2.31 2.31 0 0 0-1.82 2.6v2.86a.86.86 0 0 0 .1.42.51.51 0 0 0 .32.25h.12a.47.47 0 0 0 .29-.09.66.66 0 0 0 .22-.61v-2.79c0-1 .3-1.42 1-1.57a1.26 1.26 0 0 1 1.49.87 2.13 2.13 0 0 0 .23.76.55.55 0 0 0 .66.11c.32-.18.29-.59.22-.94z"/>
        <path class="cls-2" d="M35 21a2.72 2.72 0 0 0-2.15-1 2.64 2.64 0 0 0-2.66 2.86v4.46a.86.86 0 0 0 .1.42.51.51 0 0 0 .32.25h.12a.47.47 0 0 0 .29-.09.68.68 0 0 0 .25-.61v-2h1.54a2.55 2.55 0 0 0 2.73-2.09 2.64 2.64 0 0 0-.54-2.2zm-.49 1.69a1.61 1.61 0 0 1-1.71 1.61h-1.5v-1.51a1.62 1.62 0 1 1 3.23-.11zm7.73 2a2.83 2.83 0 0 0-.11-.68 3 3 0 0 0-1.45-1.79 3.28 3.28 0 0 0-2.55-.22 3.17 3.17 0 0 0 0 6.09 3.54 3.54 0 0 0 .9.11 3.15 3.15 0 0 0 1.28-.27 2.67 2.67 0 0 0 .84-.59.89.89 0 0 0 .06.42.51.51 0 0 0 .32.25.5.5 0 0 0 .41-.08.68.68 0 0 0 .25-.61v-2.6zm-2.65 2.4a2.09 2.09 0 0 1-2.59-1.48 2 2 0 0 1-.08-.44 2.14 2.14 0 0 1 1.48-2.17 2.3 2.3 0 0 1 .68-.11 2.08 2.08 0 0 1 1.21.38 2.13 2.13 0 0 1 .89 1.7 2.08 2.08 0 0 1-1.63 2.15zm8.25-4.84l-.22.11.22-.11a.51.51 0 0 0-.32-.25.5.5 0 0 0-.41.08.67.67 0 0 0-.23.61v2.84a1.66 1.66 0 0 1-.47 1.28 1.34 1.34 0 0 1-2.16-1.18v-2.94a1 1 0 0 0-.07-.42.51.51 0 0 0-.32-.25.5.5 0 0 0-.41.08.68.68 0 0 0-.25.61v2.95a2.27 2.27 0 0 0 1.47 2.34 2.36 2.36 0 0 0 2.15-.29 1.25 1.25 0 0 1-1 1.14 1.21 1.21 0 0 1-.85-.06 1.12 1.12 0 0 1-.42-.33l-.16-.2-.1-.11a.72.72 0 0 0-.14-.15.5.5 0 0 0-.47 0 .51.51 0 0 0-.3.37.93.93 0 0 0 .22.66 2.44 2.44 0 0 0 .46.48 2.26 2.26 0 0 0 1.41.46 2.78 2.78 0 0 0 .68-.08 2.37 2.37 0 0 0 1.76-2.56v-4.64a.82.82 0 0 0-.11-.41z"/>
        <path class="cls-1" d="M11.25 23.75a1.63 1.63 0 0 0-.07-.24v-.06a2.32 2.32 0 0 0-2.28-1.61 2.23 2.23 0 0 0-.5 0 2.31 2.31 0 0 0-1.82 2.6v2.86a.85.85 0 0 0 .1.42.51.51 0 0 0 .32.28h.12a.47.47 0 0 0 .29-.09.67.67 0 0 0 .24-.61v-1.87h1.5c.49 0 .61-.25.63-.47a.49.49 0 0 0-.12-.36.67.67 0 0 0-.51-.17h-1.54c0-.93.31-1.39 1-1.54a1.23 1.23 0 0 1 1.23.39 1.28 1.28 0 0 1 .26.47 2.13 2.13 0 0 0 .23.76.55.55 0 0 0 .66.11c.33-.18.3-.59.23-.94z"/>
        <path class="cls-2" d="M49.68 21.59a.75.75 0 0 1-.55.23.73.73 0 0 1-.55-.23.78.78 0 0 1 0-1.1.78.78 0 0 1 1.1 0 .72.72 0 0 1 .23.55.77.77 0 0 1-.23.55m-1-1a.67.67 0 0 0-.2.47.65.65 0 0 0 .2.48.64.64 0 0 0 .47.2.63.63 0 0 0 .47-.2.67.67 0 0 0 .2-.48.63.63 0 0 0-.2-.47.64.64 0 0 0-.47-.2.67.67 0 0 0-.47.2m.46 0a.65.65 0 0 1 .23 0 .21.21 0 0 1 .13.22.18.18 0 0 1-.08.17.27.27 0 0 1-.13 0 .23.23 0 0 1 .2.22v.13h-.13v-.11a.23.23 0 0 0-.08-.2.33.33 0 0 0-.17 0h-.11v.34h-.16v-.85zm.16.14a.38.38 0 0 0-.18 0h-.12v.27h.27a.14.14 0 0 0 .09-.13.12.12 0 0 0-.06-.12"/>
    </g>
</svg>