<svg xmlns="http://www.w3.org/2000/svg" viewBox="0 0 50 50">
    <defs>
        <style>.cls-1{fill:#005092;}.cls-2{fill:#fd0;}</style>
    </defs>
    <title>payment-Bancontact</title>
    <g id="bancontact">
        <path class="cls-1" d="M40.92 16.67h-12.78l-1.3 1.46-4.22 4.75-1.3 1.46h-12.61l1.29-1.48.61-.7 1.28-1.48h-5.82a2 2 0 0 0-1.93 2v4.18a2 2 0 0 0 1.93 2h22.24a4.91 4.91 0 0 0 3.22-1.47l3.36-3.83z"/>
        <path class="cls-2" d="M43.48 12.21a2 2 0 0 1 1.93 2v4.18a2 2 0 0 1-1.93 2h-5.79l1.31-1.52.64-.73 1.29-1.47h-12.79l-6.82 7.68h-12.69l9.1-10.29.34-.39a4.93 4.93 0 0 1 3.23-1.47h22.18z"/>
        <path class="cls-1" d="M45.41 37.57v-.57q0-.13-.17-.13h-.39q-.18 0-.22-.07a.72.72 0 0 1 0-.3v-2.33h.64a.15.15 0 0 0 .11 0 .15.15 0 0 0 0-.11v-.64a.15.15 0 0 0 0-.11.15.15 0 0 0-.11 0h-.67v-.83a.13.13 0 0 0 0-.1.15.15 0 0 0-.1 0l-1 .17a.27.27 0 0 0-.11.06.13.13 0 0 0 0 .1v.64h-.69a.18.18 0 0 0-.17.17v.52a.13.13 0 0 0 .05.11.28.28 0 0 0 .11.06l.63.1v2.28a2.24 2.24 0 0 0 .09.68.94.94 0 0 0 .25.41.85.85 0 0 0 .41.2 2.82 2.82 0 0 0 .57.05h.62q.15 0 .15-.16m-3.41-.28v-.7a.12.12 0 0 0 0-.1.16.16 0 0 0-.11 0h-.96a.72.72 0 0 1-.25 0 .47.47 0 0 1-.2-.15.79.79 0 0 1-.14-.28 1.59 1.59 0 0 1-.05-.44v-.66a1.59 1.59 0 0 1 .05-.44.79.79 0 0 1 .14-.28.47.47 0 0 1 .2-.15.73.73 0 0 1 .25 0h.96a.16.16 0 0 0 .11 0 .12.12 0 0 0 0-.1v-.7a.16.16 0 0 0 0-.12.31.31 0 0 0-.13-.06l-.43-.08a4.25 4.25 0 0 0-.62 0 1.78 1.78 0 0 0-1.33.51 2 2 0 0 0-.5 1.48v.66a2 2 0 0 0 .5 1.48 1.78 1.78 0 0 0 1.33.51 4.25 4.25 0 0 0 .62 0l.43-.08a.31.31 0 0 0 .13-.06.16.16 0 0 0 0-.12m-5.12-.83l-.3.12a1.12 1.12 0 0 1-.34.05.77.77 0 0 1-.37-.07q-.12-.07-.12-.32v-.07a.91.91 0 0 1 0-.25.37.37 0 0 1 .11-.18.51.51 0 0 1 .21-.11 1.36 1.36 0 0 1 .34 0h.45zm1.25-1.9a1.86 1.86 0 0 0-.13-.88 1.28 1.28 0 0 0-.37-.5 1.51 1.51 0 0 0-.58-.28 3 3 0 0 0-.77-.09 5.27 5.27 0 0 0-.77.06l-.59.11a.17.17 0 0 0-.15.17v.64a.13.13 0 0 0 0 .11.16.16 0 0 0 .1 0h1.31a.79.79 0 0 1 .43.1q.16.1.16.44v.24h-.42a2.65 2.65 0 0 0-1.47.32 1.14 1.14 0 0 0-.46 1v.07a1.6 1.6 0 0 0 .11.64 1.11 1.11 0 0 0 .3.42 1.14 1.14 0 0 0 .43.22 1.85 1.85 0 0 0 .5.07 1.76 1.76 0 0 0 .61-.09 2 2 0 0 0 .48-.26v.13a.16.16 0 0 0 .16.16h.99a.16.16 0 0 0 .16-.16zm-4.13 2.69v-.57q0-.13-.17-.13h-.43q-.18 0-.22-.07a.72.72 0 0 1 0-.3v-2.33h.64a.15.15 0 0 0 .11 0 .15.15 0 0 0 0-.11v-.64a.15.15 0 0 0 0-.11.15.15 0 0 0-.11 0h-.64v-.83a.13.13 0 0 0 0-.1.15.15 0 0 0-.1 0l-1 .17a.27.27 0 0 0-.11.06.13.13 0 0 0 0 .1v.64h-.63a.18.18 0 0 0-.17.17v.52a.13.13 0 0 0 .05.11.28.28 0 0 0 .11.06l.63.1v2.28a2.24 2.24 0 0 0 .09.68.94.94 0 0 0 .25.41.85.85 0 0 0 .41.2 2.82 2.82 0 0 0 .57.05h.62q.15 0 .15-.16m-3.43 0v-2.83a3.92 3.92 0 0 0-.06-.7 1.56 1.56 0 0 0-.21-.57 1.09 1.09 0 0 0-.42-.38 1.5 1.5 0 0 0-.7-.14 2.24 2.24 0 0 0-.67.09 2.22 2.22 0 0 0-.61.32v-.19a.15.15 0 0 0 0-.11.15.15 0 0 0-.11 0h-.88a.16.16 0 0 0-.16.16v4.18a.18.18 0 0 0 .17.17h1a.15.15 0 0 0 .11-.05.16.16 0 0 0 0-.11v-3.14l.39-.18a1 1 0 0 1 .35-.07 1 1 0 0 1 .29 0 .33.33 0 0 1 .18.12.53.53 0 0 1 .09.23 2.15 2.15 0 0 1 0 .35v2.61a.16.16 0 0 0 0 .11.15.15 0 0 0 .11.05h1a.18.18 0 0 0 .17-.17m-6-1.81q0 1-.7 1a.61.61 0 0 1-.52-.24 1.21 1.21 0 0 1-.18-.72v-.55a1.19 1.19 0 0 1 .18-.72.61.61 0 0 1 .52-.24q.7 0 .7 1zm1.27-.55a2.6 2.6 0 0 0-.13-.85 1.75 1.75 0 0 0-.38-.64 1.69 1.69 0 0 0-.61-.41 2.54 2.54 0 0 0-1.69 0 1.67 1.67 0 0 0-1 1.05 2.59 2.59 0 0 0-.13.85v.55a2.59 2.59 0 0 0 .13.85 1.67 1.67 0 0 0 1 1.05 2.54 2.54 0 0 0 1.69 0 1.68 1.68 0 0 0 .61-.41 1.75 1.75 0 0 0 .38-.64 2.6 2.6 0 0 0 .13-.85zm-4.37 2.3v-.7a.12.12 0 0 0 0-.1.16.16 0 0 0-.11 0h-.96a.72.72 0 0 1-.25 0 .47.47 0 0 1-.2-.15.79.79 0 0 1-.14-.28 1.59 1.59 0 0 1-.05-.44v-.66a1.59 1.59 0 0 1 .05-.44.79.79 0 0 1 .14-.28.47.47 0 0 1 .2-.15.73.73 0 0 1 .25 0h.96a.16.16 0 0 0 .11 0 .12.12 0 0 0 0-.1v-.7a.16.16 0 0 0 0-.12.31.31 0 0 0-.13-.06l-.43-.08a4.25 4.25 0 0 0-.62 0 1.78 1.78 0 0 0-1.33.51 2 2 0 0 0-.5 1.48v.66a2 2 0 0 0 .5 1.48 1.78 1.78 0 0 0 1.33.51 4.25 4.25 0 0 0 .62 0l.43-.08a.31.31 0 0 0 .13-.06.16.16 0 0 0 0-.12m-3.87.06v-2.7a3.91 3.91 0 0 0-.06-.7 1.56 1.56 0 0 0-.21-.57 1.09 1.09 0 0 0-.42-.38 1.5 1.5 0 0 0-.7-.14 2 2 0 0 0-1.28.41v-.19a.15.15 0 0 0 0-.11.15.15 0 0 0-.11 0h-1.01a.16.16 0 0 0-.16.16v4.18a.18.18 0 0 0 .17.17h1a.15.15 0 0 0 .11-.05.16.16 0 0 0 0-.11v-3.14l.39-.18a1 1 0 0 1 .35-.07 1 1 0 0 1 .29 0 .33.33 0 0 1 .18.12.53.53 0 0 1 .09.23 2.15 2.15 0 0 1 0 .35v2.61a.16.16 0 0 0 0 .11.15.15 0 0 0 .11.05h1a.18.18 0 0 0 .17-.17m-6.06-.9l-.3.12a1.12 1.12 0 0 1-.34.05.77.77 0 0 1-.37-.07q-.12-.07-.12-.32v-.07a.91.91 0 0 1 0-.25.38.38 0 0 1 .11-.18.51.51 0 0 1 .21-.11 1.36 1.36 0 0 1 .34 0h.45zm1.25-1.9a1.86 1.86 0 0 0-.13-.74 1.28 1.28 0 0 0-.37-.5 1.51 1.51 0 0 0-.58-.28 3 3 0 0 0-.77-.09 5.27 5.27 0 0 0-.77.06l-.59.11a.17.17 0 0 0-.15.17v.64a.13.13 0 0 0 0 .11.16.16 0 0 0 .1 0h1.31a.79.79 0 0 1 .43.1q.16.1.16.44v.26h-.33a2.65 2.65 0 0 0-1.47.32 1.14 1.14 0 0 0-.46 1v.07a1.61 1.61 0 0 0 .11.64 1.11 1.11 0 0 0 .3.42 1.14 1.14 0 0 0 .43.22 1.85 1.85 0 0 0 .5.07 1.76 1.76 0 0 0 .61-.09 2 2 0 0 0 .48-.26v.13a.16.16 0 0 0 .16.16h.88a.16.16 0 0 0 .16-.16zm-5.61 1.28a.61.61 0 0 1-.23.51 1.42 1.42 0 0 1-.84.18h-.65v-1.48h.88a.84.84 0 0 1 .65.21.73.73 0 0 1 .18.49zm0-2.34a.73.73 0 0 1 0 .24.47.47 0 0 1-.13.2.67.67 0 0 1-.24.13 1.25 1.25 0 0 1-.39.05h-.96v-1.36h.6a1.67 1.67 0 0 1 .85.15.52.52 0 0 1 .24.48zm1.34 2.26a1.25 1.25 0 0 0-.7-1.16 1.13 1.13 0 0 0 .49-.46 1.38 1.38 0 0 0 .17-.69v-.14a1.56 1.56 0 0 0-.18-.79 1.36 1.36 0 0 0-.51-.5 2.41 2.41 0 0 0-.79-.29 5.72 5.72 0 0 0-1-.08h-1.4400000000000002a.56.56 0 0 0-.32.14.55.55 0 0 0-.09.37v4.78a.53.53 0 0 0 .1.37.59.59 0 0 0 .33.14h1.42a5.63 5.63 0 0 0 1-.08 2.27 2.27 0 0 0 .79-.28 1.48 1.48 0 0 0 .53-.54 1.71 1.71 0 0 0 .2-.86z"/>
    </g>
</svg>