<svg xmlns="http://www.w3.org/2000/svg" viewBox="0 0 50 50">
    <defs>
        <style>.cls-1{fill:#6c6bbd;}.cls-2{fill:#d32011;}.cls-3{fill:#0099df;}.cls-4{fill:#fff;}</style>
    </defs>
    <title>payment-maestro</title>
    <g id="maestro">
        <path d="M1.28 10h47.44v30h-47.44z"/>
        <path class="cls-1" d="M20.56 14.27h8.88v16h-8.88z"/>
        <path class="cls-2" d="M21.12 22.25a10.13 10.13 0 0 1 3.88-8 10.15 10.15 0 1 0 0 16 10.13 10.13 0 0 1-3.88-8z"/>
        <path class="cls-3" d="M40.46 28.54v-.33h.13v-.07h-.34v.07h.13v.33zm.65 0v-.39h-.11l-.12.28-.12-.28h-.1v.39h.07v-.3l.11.26h.08l.11-.26v.3zm.31-6.29a10.15 10.15 0 0 1-16.42 8 10.15 10.15 0 0 0 0-16 10.15 10.15 0 0 1 16.42 8z"/>
        <path class="cls-4" d="M32.64 34.74a1.28 1.28 0 0 1 .43.08l-.19.57a1 1 0 0 0-.38-.07c-.39 0-.59.25-.59.71v1.55h-.6v-2.77h.6v.34a.82.82 0 0 1 .73-.41zm-2.22.62h-1v1.24c0 .28.1.46.4.46a1.11 1.11 0 0 0 .53-.16l.17.51a1.41 1.41 0 0 1-.75.21c-.71 0-1-.38-1-1v-1.26h-.56v-.55h.56v-.81h.61v.84h1v.55zm-7.7.59a.71.71 0 0 1 .73-.67.69.69 0 0 1 .7.67zm2.06.24a1.33 1.33 0 0 0-1.31-1.45 1.45 1.45 0 0 0 0 2.9 1.68 1.68 0 0 0 1.13-.39l-.3-.45a1.31 1.31 0 0 1-.8.29.77.77 0 0 1-.83-.68h2.05v-.23zm2.64-.68a1.77 1.77 0 0 0-.86-.24c-.33 0-.53.12-.53.32s.21.24.47.27h.28c.6.09 1 .34 1 .83s-.46.9-1.26.9a2 2 0 0 1-1.2-.36l.28-.47a1.47 1.47 0 0 0 .92.29c.41 0 .63-.12.63-.34s-.16-.24-.49-.29h-.28c-.62-.09-1-.36-1-.82s.45-.88 1.15-.88a2.07 2.07 0 0 1 1.13.29l-.26.49zm7.42-.2a.91.91 0 0 0-.34.06.83.83 0 0 0-.28.18.85.85 0 0 0-.18.28 1 1 0 0 0 0 .72.85.85 0 0 0 .18.28.83.83 0 0 0 .28.18.95.95 0 0 0 .69 0 .83.83 0 0 0 .28-.18.84.84 0 0 0 .18-.28 1 1 0 0 0 0-.72.84.84 0 0 0-.18-.28.83.83 0 0 0-.28-.18.91.91 0 0 0-.34-.06zm0-.57a1.56 1.56 0 0 1 .6.11 1.45 1.45 0 0 1 .47.31 1.41 1.41 0 0 1 .31.46 1.54 1.54 0 0 1 0 1.16 1.41 1.41 0 0 1-.31.46 1.46 1.46 0 0 1-.47.31 1.65 1.65 0 0 1-1.19 0 1.44 1.44 0 0 1-.47-.31 1.43 1.43 0 0 1-.31-.46 1.54 1.54 0 0 1 0-1.16 1.41 1.41 0 0 1 .78-.77 1.56 1.56 0 0 1 .6-.11zm-15.64 1.45a.84.84 0 1 1 .84.88.83.83 0 0 1-.84-.88zm2.24 0v-1.38h-.6v.34a1 1 0 0 0-.87-.41 1.45 1.45 0 0 0 0 2.9 1 1 0 0 0 .87-.41v.34h.6zm-3.39 1.38v-1.73a1 1 0 0 0-1.05-1.1 1.07 1.07 0 0 0-1 .49 1 1 0 0 0-.91-.49.91.91 0 0 0-.81.41v-.34h-.6v2.76h.61v-1.57a.65.65 0 0 1 .71-.7c.4 0 .6.26.6.73v1.54h.61v-1.57a.65.65 0 0 1 .68-.73c.41 0 .61.26.61.73v1.54z"/>
    </g>
</svg>