<svg xmlns="http://www.w3.org/2000/svg" viewBox="0 0 50 50"><defs><style>.cls-1{fill:#f36007;}.cls-2{fill:#fff;}.cls-3{fill:#080146;}</style></defs><title>payment-ing-homepay</title><g id="ING"><path class="cls-1" d="M9.13 12.07h31.75v25.86h-31.75z"/><path class="cls-2" d="M37.43 20.5v2.22a7.91 7.91 0 0 1-3.57.92c-3.23 0-5.17-1.91-5.17-4.31a4.9 4.9 0 0 1 5.05-4.74 5.29 5.29 0 0 1 1.79.31 4 4 0 0 0 .89.28c.22 0 .28-.37.31-.59h.27l.28 3h-.37a2.91 2.91 0 0 0-.8-1.42 3.18 3.18 0 0 0-2.31-.89c-1.94 0-3.08 1.54-3.08 3.85s1.41 3.87 3.28 3.87a3.86 3.86 0 0 0 1.66-.4v-2.32c0-.74-.12-1-1.17-1v-.34h3.91v.34c-1 0-1 .31-1 1.23zm-10.75-3.64v6.62h-.52l-6.62-6.84a2.9 2.9 0 0 1 0 .52v4.16c0 1.29 0 1.76 1.17 1.76v.34h-3.09v-.34c1.17 0 1.17-.55 1.17-1.76v-4.73c0-.71 0-1.48-1.23-1.48v-.34h2.93l5.45 5.61a2.06 2.06 0 0 1 0-.46v-3c0-1.23 0-1.76-1.14-1.76v-.34h3.11v.34c-1.14 0-1.2.49-1.2 1.76zm-15.07 6.56v-.34c.74 0 1.26-.06 1.26-1.14v-5.7c0-1.11-.4-1.14-1.26-1.14v-.34h4.39v.34c-.89 0-1.26 0-1.26 1.14v5.7c0 1.08.46 1.14 1.26 1.14v.34zM11.53 24.6h26.94v10.82h-26.94z"/><path class="cls-3" d="M12.94 31.53v-4h.38v1.71h2.36v-1.71h.38v4h-.38v-2h-2.36v2zM18 31.61a1.5 1.5 0 0 1-.52-.1 1.16 1.16 0 0 1-.42-.28 1.35 1.35 0 0 1-.29-.47 1.88 1.88 0 0 1-.11-.66 2 2 0 0 1 .08-.59 1.38 1.38 0 0 1 .26-.51 1.19 1.19 0 0 1 .42-.32 1.49 1.49 0 0 1 1.17 0 1.21 1.21 0 0 1 .41.32 1.34 1.34 0 0 1 .25.48 2.12 2.12 0 0 1 .08.59 1.91 1.91 0 0 1-.09.62 1.4 1.4 0 0 1-.27.48 1.18 1.18 0 0 1-.42.31 1.35 1.35 0 0 1-.55.13zm1-1.51a2 2 0 0 0-.05-.48 1.14 1.14 0 0 0-.17-.39.83.83 0 0 0-.3-.26 1 1 0 0 0-.45-.09.91.91 0 0 0-.45.1.88.88 0 0 0-.3.27 1.19 1.19 0 0 0-.17.39 1.8 1.8 0 0 0-.06.45 1.77 1.77 0 0 0 .06.49 1.15 1.15 0 0 0 .19.39.84.84 0 0 0 .3.25 1 1 0 0 0 .42.09.91.91 0 0 0 .45-.1.87.87 0 0 0 .3-.27 1.25 1.25 0 0 0 .17-.39 1.81 1.81 0 0 0 .06-.46zM20.27 31.53h-.33v-2.88h.33v.43a.87.87 0 0 1 .37-.38 1.07 1.07 0 0 1 .52-.13 1.12 1.12 0 0 1 .34 0 .75.75 0 0 1 .24.12.67.67 0 0 1 .16.17 1.14 1.14 0 0 1 .11.22 1 1 0 0 1 .39-.42 1.1 1.1 0 0 1 .55-.14 1 1 0 0 1 .47.1.7.7 0 0 1 .27.26 1 1 0 0 1 .12.36 2.77 2.77 0 0 1 0 .42v1.81h-.33v-2a.81.81 0 0 0-.13-.49.57.57 0 0 0-.48-.18.81.81 0 0 0-.35.08.8.8 0 0 0-.3.25.63.63 0 0 0-.09.17 1.55 1.55 0 0 0-.06.2 1.62 1.62 0 0 0 0 .21v1.74h-.33v-2a.81.81 0 0 0-.13-.49.57.57 0 0 0-.49-.18.8.8 0 0 0-.65.33.66.66 0 0 0-.09.17 1.4 1.4 0 0 0-.06.2 1.62 1.62 0 0 0 0 .21v.19zM24.81 30.17a1.54 1.54 0 0 0 .06.44 1.08 1.08 0 0 0 .13.39.88.88 0 0 0 .3.24.93.93 0 0 0 .42.09.91.91 0 0 0 .56-.17.83.83 0 0 0 .31-.49h.41a1.82 1.82 0 0 1-.16.38 1.17 1.17 0 0 1-.25.31 1.09 1.09 0 0 1-.36.2 1.44 1.44 0 0 1-.48.07 1.39 1.39 0 0 1-.59-.12 1.13 1.13 0 0 1-.41-.32 1.34 1.34 0 0 1-.24-.48 2.18 2.18 0 0 1-.08-.59 1.88 1.88 0 0 1 .09-.59 1.51 1.51 0 0 1 .26-.49 1.21 1.21 0 0 1 .41-.33 1.25 1.25 0 0 1 .56-.12 1.15 1.15 0 0 1 .93.41 1.8 1.8 0 0 1 .32 1.17zm1.87-.28a1.32 1.32 0 0 0-.06-.4.94.94 0 0 0-.17-.32.83.83 0 0 0-.29-.22.92.92 0 0 0-.39-.08.88.88 0 0 0-.39.08.91.91 0 0 0-.29.22 1.11 1.11 0 0 0-.19.32 1.48 1.48 0 0 0-.09.39zM30.39 29.8a1.52 1.52 0 0 1-1 .29h-.83v1.44h-.83v-4h1.71a1.38 1.38 0 0 1 .94.31 1.2 1.2 0 0 1 .35 1 1.24 1.24 0 0 1-.34.96zm-.64-1.44a.67.67 0 0 0-.44-.13h-.75v1.17h.75a.64.64 0 0 0 .44-.14.59.59 0 0 0 .16-.45.55.55 0 0 0-.16-.45zM32.52 29.73a1.21 1.21 0 0 0 .31-.07.23.23 0 0 0 .17-.22.26.26 0 0 0-.13-.25.8.8 0 0 0-.37-.07.49.49 0 0 0-.39.14.56.56 0 0 0-.11.27h-.74a1.14 1.14 0 0 1 .22-.64 1.27 1.27 0 0 1 1.05-.39 1.88 1.88 0 0 1 .87.19.74.74 0 0 1 .38.73v1.6900000000000002a.43.43 0 0 0 0 .21.28.28 0 0 0 .11.09v.11h-.84a.84.84 0 0 1 0-.17v-.18a1.58 1.58 0 0 1-.37.29 1.12 1.12 0 0 1-.57.14 1 1 0 0 1-.67-.23.81.81 0 0 1-.26-.65.84.84 0 0 1 .42-.79 1.88 1.88 0 0 1 .68-.19zm.47.36l-.15.07-.21.05h-.18a1.16 1.16 0 0 0-.36.11.35.35 0 0 0-.18.33.34.34 0 0 0 .09.35.42.42 0 0 0 .27.09.81.81 0 0 0 .47-.15.62.62 0 0 0 .22-.53zM34.55 32.09h.31a.39.39 0 0 0 .14-.09.42.42 0 0 0 .13-.19.48.48 0 0 0 0-.18l-1.08-3.08h.95l.64 2.18.61-2.18h.82l-1 2.9a4.1 4.1 0 0 1-.46 1 .88.88 0 0 1-.68.2h-.35z"/></g></svg>