<svg xmlns="http://www.w3.org/2000/svg" viewBox="0 0 50 50"><defs><style>.cls-1{fill:#0066b2;}.cls-2{fill:#f9a533;}</style></defs><title>payment-visa</title><path class="cls-1" d="M21.74 32.7h-4.01l2.51-15.39h4l-2.5 15.39zM45.88 32.7h3.68l-3.21-15.39h-3.22a1.84 1.84 0 0 0-1.85 1.15l-6 14.25h4.18l.84-2.29h5.09zm-4.41-5.44l2.11-5.76 1.19 5.76zM35.62 21l.57-3.31a11.58 11.58 0 0 0-3.6-.67c-2 0-6.71.87-6.71 5.1 0 4 5.54 4 5.54 6.11s-5 1.72-6.61.4l-.6 3.45a11.22 11.22 0 0 0 4.52.87c2.73 0 6.86-1.42 6.86-5.27s-5.59-4.36-5.59-6.1 3.9-1.51 5.62-.58zM14.36 17.31l-3.82 10.59-.45-2.28a12 12 0 0 0-3.69-5.06 15.36 15.36 0 0 0-1.75-1.22l3.47 13.36h4.18l6.38-15.39z"/><path class="cls-2" d="M4.56 19.29h.08zM10.09 25.62l-1.35-6.92a1.71 1.71 0 0 0-1.9-1.39h-6.32l-.07.26h.07l.23.06.34.1.48.16h.07c.36.13.78.29 1.24.5h.1l.72.35h.06l.71.4h.08a15.36 15.36 0 0 1 1.85 1.42 12 12 0 0 1 3.69 5.06z"/></svg>