<svg xmlns="http://www.w3.org/2000/svg" viewBox="0 0 50 50"><defs><style>.cls-1{fill:none;}</style></defs><title>payment-qr-code</title><g id="QR-tag"><path d="M21.38 10.01h1.05v1.05h-1.05zM22.41 10.01h1.05v1.05h-1.05zM23.44 10.01h1.05v1.05h-1.05zM24.48 10.01h1.05v1.05h-1.05zM26.54 10.01h1.05v1.05h-1.05zM27.58 10.01h1.05v1.05h-1.05zM28.61 10.01h1.05v1.05h-1.05zM29.64 10.01h1.05v1.05h-1.05zM20.34 11.05h1.05v1.05h-1.05zM22.41 11.05h1.05v1.05h-1.05zM23.44 11.05h1.05v1.05h-1.05zM24.48 11.05h1.05v1.05h-1.05zM25.51 11.05h1.05v1.05h-1.05zM27.58 11.05h1.05v1.05h-1.05zM28.61 11.05h1.05v1.05h-1.05zM30.67 11.05h1.05v1.05h-1.05zM19.31 12.08h1.05v1.05h-1.05zM21.38 12.08h1.05v1.05h-1.05zM22.41 12.08h1.05v1.05h-1.05zM23.44 12.08h1.05v1.05h-1.05zM27.58 12.08h1.05v1.05h-1.05zM28.61 12.08h1.05v1.05h-1.05zM19.31 13.11h1.05v1.05h-1.05zM20.34 13.11h1.05v1.05h-1.05zM22.41 13.11h1.05v1.05h-1.05zM23.44 13.11h1.05v1.05h-1.05zM24.48 13.11h1.05v1.05h-1.05zM25.51 13.11h1.05v1.05h-1.05zM28.61 13.11h1.05v1.05h-1.05zM29.64 13.11h1.05v1.05h-1.05zM23.44 14.15h1.05v1.05h-1.05zM24.48 14.15h1.05v1.05h-1.05zM25.51 14.15h1.05v1.05h-1.05zM26.54 14.15h1.05v1.05h-1.05zM27.58 14.15h1.05v1.05h-1.05zM28.61 14.15h1.05v1.05h-1.05zM18.28 15.18h1.05v1.05h-1.05zM19.31 15.18h1.05v1.05h-1.05zM20.34 15.18h1.05v1.05h-1.05zM22.41 15.18h1.05v1.05h-1.05zM23.44 15.18h1.05v1.05h-1.05zM24.48 15.18h1.05v1.05h-1.05zM25.51 15.18h1.05v1.05h-1.05zM28.61 15.18h1.05v1.05h-1.05zM29.64 15.18h1.05v1.05h-1.05zM30.67 15.18h1.05v1.05h-1.05zM18.28 16.21h1.05v1.05h-1.05zM20.34 16.21h1.05v1.05h-1.05zM22.41 16.21h1.05v1.05h-1.05zM24.48 16.21h1.05v1.05h-1.05zM26.54 16.21h1.05v1.05h-1.05zM28.61 16.21h1.05v1.05h-1.05zM30.67 16.21h1.05v1.05h-1.05zM19.31 17.24h1.05v1.05h-1.05zM20.34 17.24h1.05v1.05h-1.05zM22.41 17.24h1.05v1.05h-1.05zM24.48 17.24h1.05v1.05h-1.05zM26.54 17.24h1.05v1.05h-1.05zM27.58 17.24h1.05v1.05h-1.05zM30.67 17.24h1.05v1.05h-1.05zM10.01 18.28h1.05v1.05h-1.05zM13.11 18.28h1.05v1.05h-1.05zM15.18 18.28h1.05v1.05h-1.05zM16.21 18.28h1.05v1.05h-1.05zM18.28 18.28h1.05v1.05h-1.05zM19.31 18.28h1.05v1.05h-1.05zM21.38 18.28h1.05v1.05h-1.05zM22.41 18.28h1.05v1.05h-1.05zM26.54 18.28h1.05v1.05h-1.05zM30.67 18.28h1.05v1.05h-1.05zM31.71 18.28h1.05v1.05h-1.05zM33.77 18.28h1.05v1.05h-1.05zM10.01 19.31h1.05v1.05h-1.05zM15.18 19.31h1.05v1.05h-1.05zM19.31 19.31h1.05v1.05h-1.05zM20.34 19.31h1.05v1.05h-1.05zM22.41 19.31h1.05v1.05h-1.05zM24.48 19.31h1.05v1.05h-1.05zM26.54 19.31h1.05v1.05h-1.05zM27.58 19.31h1.05v1.05h-1.05zM30.67 19.31h1.05v1.05h-1.05zM31.71 19.31h1.05v1.05h-1.05zM32.74 19.31h1.05v1.05h-1.05zM35.84 19.31h1.05v1.05h-1.05zM38.94 19.31h1.05v1.05h-1.05zM11.05 20.34h1.05v1.05h-1.05zM12.08 20.34h1.05v1.05h-1.05zM16.21 20.34h1.05v1.05h-1.05zM17.24 20.34h1.05v1.05h-1.05zM18.28 20.34h1.05v1.05h-1.05zM20.34 20.34h1.05v1.05h-1.05zM21.38 20.34h1.05v1.05h-1.05zM22.41 20.34h1.05v1.05h-1.05zM29.64 20.34h1.05v1.05h-1.05zM32.74 20.34h1.05v1.05h-1.05zM35.84 20.34h1.05v1.05h-1.05zM36.87 20.34h1.05v1.05h-1.05zM37.91 20.34h1.05v1.05h-1.05zM10.01 21.38h1.05v1.05h-1.05zM18.28 21.38h1.05v1.05h-1.05zM24.48 21.38h1.05v1.05h-1.05zM26.54 21.38h1.05v1.05h-1.05zM28.61 21.38h1.05v1.05h-1.05zM29.64 21.38h1.05v1.05h-1.05zM32.74 21.38h1.05v1.05h-1.05zM33.77 21.38h1.05v1.05h-1.05zM34.81 21.38h1.05v1.05h-1.05zM36.87 21.38h1.05v1.05h-1.05zM37.91 21.38h1.05v1.05h-1.05zM10.01 22.41h1.05v1.05h-1.05zM16.21 22.41h1.05v1.05h-1.05zM17.24 22.41h1.05v1.05h-1.05zM19.31 22.41h1.05v1.05h-1.05zM20.34 22.41h1.05v1.05h-1.05zM22.41 22.41h1.05v1.05h-1.05zM25.51 22.41h1.05v1.05h-1.05zM26.54 22.41h1.05v1.05h-1.05zM27.58 22.41h1.05v1.05h-1.05zM30.67 22.41h1.05v1.05h-1.05zM31.71 22.41h1.05v1.05h-1.05zM32.74 22.41h1.05v1.05h-1.05zM35.84 22.41h1.05v1.05h-1.05zM37.91 22.41h1.05v1.05h-1.05zM38.94 22.41h1.05v1.05h-1.05zM11.05 23.44h1.05v1.05h-1.05zM13.11 23.44h1.05v1.05h-1.05zM14.15 23.44h1.05v1.05h-1.05zM15.18 23.44h1.05v1.05h-1.05zM18.28 23.44h1.05v1.05h-1.05zM19.31 23.44h1.05v1.05h-1.05zM26.54 23.44h1.05v1.05h-1.05zM27.58 23.44h1.05v1.05h-1.05zM28.61 23.44h1.05v1.05h-1.05zM29.64 23.44h1.05v1.05h-1.05zM30.67 23.44h1.05v1.05h-1.05zM31.71 23.44h1.05v1.05h-1.05zM11.05 24.48h1.05v1.05h-1.05zM13.11 24.48h1.05v1.05h-1.05zM15.18 24.48h1.05v1.05h-1.05zM16.21 24.48h1.05v1.05h-1.05zM17.24 24.48h1.05v1.05h-1.05zM18.28 24.48h1.05v1.05h-1.05zM21.38 24.48h1.05v1.05h-1.05zM22.41 24.48h1.05v1.05h-1.05zM28.61 24.48h1.05v1.05h-1.05zM33.77 24.48h1.05v1.05h-1.05zM35.84 24.48h1.05v1.05h-1.05zM36.87 24.48h1.05v1.05h-1.05zM37.91 24.48h1.05v1.05h-1.05zM38.94 24.48h1.05v1.05h-1.05zM11.05 25.51h1.05v1.05h-1.05zM14.15 25.51h1.05v1.05h-1.05zM15.18 25.51h1.05v1.05h-1.05zM18.28 25.51h1.05v1.05h-1.05zM20.34 25.51h1.05v1.05h-1.05zM21.38 25.51h1.05v1.05h-1.05zM22.41 25.51h1.05v1.05h-1.05zM23.44 25.51h1.05v1.05h-1.05zM24.48 25.51h1.05v1.05h-1.05zM25.51 25.51h1.05v1.05h-1.05zM26.54 25.51h1.05v1.05h-1.05zM27.58 25.51h1.05v1.05h-1.05zM29.64 25.51h1.05v1.05h-1.05zM33.77 25.51h1.05v1.05h-1.05zM34.81 25.51h1.05v1.05h-1.05zM35.84 25.51h1.05v1.05h-1.05zM37.91 25.51h1.05v1.05h-1.05zM10.01 26.54h1.05v1.05h-1.05zM12.08 26.54h1.05v1.05h-1.05zM15.18 26.54h1.05v1.05h-1.05zM16.21 26.54h1.05v1.05h-1.05zM17.24 26.54h1.05v1.05h-1.05zM19.31 26.54h1.05v1.05h-1.05zM20.34 26.54h1.05v1.05h-1.05zM23.44 26.54h1.05v1.05h-1.05zM24.48 26.54h1.05v1.05h-1.05zM27.58 26.54h1.05v1.05h-1.05zM30.67 26.54h1.05v1.05h-1.05zM31.71 26.54h1.05v1.05h-1.05zM37.91 26.54h1.05v1.05h-1.05zM11.05 27.58h1.05v1.05h-1.05zM12.08 27.58h1.05v1.05h-1.05zM13.11 27.58h1.05v1.05h-1.05zM14.15 27.58h1.05v1.05h-1.05zM19.31 27.58h1.05v1.05h-1.05zM20.34 27.58h1.05v1.05h-1.05zM26.54 27.58h1.05v1.05h-1.05zM27.58 27.58h1.05v1.05h-1.05zM31.71 27.58h1.05v1.05h-1.05zM32.74 27.58h1.05v1.05h-1.05zM33.77 27.58h1.05v1.05h-1.05zM35.84 27.58h1.05v1.05h-1.05zM38.94 27.58h1.05v1.05h-1.05zM10.01 28.61h1.05v1.05h-1.05zM14.15 28.61h1.05v1.05h-1.05zM15.18 28.61h1.05v1.05h-1.05zM16.21 28.61h1.05v1.05h-1.05zM19.31 28.61h1.05v1.05h-1.05zM21.38 28.61h1.05v1.05h-1.05zM23.44 28.61h1.05v1.05h-1.05zM26.54 28.61h1.05v1.05h-1.05zM31.71 28.61h1.05v1.05h-1.05zM33.77 28.61h1.05v1.05h-1.05zM34.81 28.61h1.05v1.05h-1.05zM37.91 28.61h1.05v1.05h-1.05zM38.94 28.61h1.05v1.05h-1.05zM12.08 29.64h1.05v1.05h-1.05zM13.11 29.64h1.05v1.05h-1.05zM15.18 29.64h1.05v1.05h-1.05zM17.24 29.64h1.05v1.05h-1.05zM18.28 29.64h1.05v1.05h-1.05zM19.31 29.64h1.05v1.05h-1.05zM20.34 29.64h1.05v1.05h-1.05zM23.44 29.64h1.05v1.05h-1.05zM25.51 29.64h1.05v1.05h-1.05zM27.58 29.64h1.05v1.05h-1.05zM29.64 29.64h1.05v1.05h-1.05zM31.71 29.64h1.05v1.05h-1.05zM33.77 29.64h1.05v1.05h-1.05zM34.81 29.64h1.05v1.05h-1.05zM37.91 29.64h1.05v1.05h-1.05zM38.94 29.64h1.05v1.05h-1.05zM10.01 30.67h1.05v1.05h-1.05zM12.08 30.67h1.05v1.05h-1.05zM13.11 30.67h1.05v1.05h-1.05zM14.15 30.67h1.05v1.05h-1.05zM16.21 30.67h1.05v1.05h-1.05zM17.24 30.67h1.05v1.05h-1.05zM21.38 30.67h1.05v1.05h-1.05zM24.48 30.67h1.05v1.05h-1.05zM30.67 30.67h1.05v1.05h-1.05zM31.71 30.67h1.05v1.05h-1.05zM32.74 30.67h1.05v1.05h-1.05zM33.77 30.67h1.05v1.05h-1.05zM34.81 30.67h1.05v1.05h-1.05zM36.87 30.67h1.05v1.05h-1.05zM18.28 31.71h1.05v1.05h-1.05zM19.31 31.71h1.05v1.05h-1.05zM21.38 31.71h1.05v1.05h-1.05zM22.41 31.71h1.05v1.05h-1.05zM23.44 31.71h1.05v1.05h-1.05zM26.54 31.71h1.05v1.05h-1.05zM30.67 31.71h1.05v1.05h-1.05zM34.81 31.71h1.05v1.05h-1.05zM36.87 31.71h1.05v1.05h-1.05zM37.91 31.71h1.05v1.05h-1.05zM38.94 31.71h1.05v1.05h-1.05zM23.44 32.74h1.05v1.05h-1.05zM24.48 32.74h1.05v1.05h-1.05zM26.54 32.74h1.05v1.05h-1.05zM28.61 32.74h1.05v1.05h-1.05zM30.67 32.74h1.05v1.05h-1.05zM32.74 32.74h1.05v1.05h-1.05zM34.81 32.74h1.05v1.05h-1.05zM37.91 32.74h1.05v1.05h-1.05zM18.28 33.77h1.05v1.05h-1.05zM19.31 33.77h1.05v1.05h-1.05zM20.34 33.77h1.05v1.05h-1.05zM22.41 33.77h1.05v1.05h-1.05zM23.44 33.77h1.05v1.05h-1.05zM28.61 33.77h1.05v1.05h-1.05zM30.67 33.77h1.05v1.05h-1.05zM34.81 33.77h1.05v1.05h-1.05zM35.84 33.77h1.05v1.05h-1.05zM36.87 33.77h1.05v1.05h-1.05zM37.91 33.77h1.05v1.05h-1.05zM19.31 34.81h1.05v1.05h-1.05zM20.34 34.81h1.05v1.05h-1.05zM21.38 34.81h1.05v1.05h-1.05zM24.48 34.81h1.05v1.05h-1.05zM27.58 34.81h1.05v1.05h-1.05zM30.67 34.81h1.05v1.05h-1.05zM31.71 34.81h1.05v1.05h-1.05zM32.74 34.81h1.05v1.05h-1.05zM33.77 34.81h1.05v1.05h-1.05zM34.81 34.81h1.05v1.05h-1.05zM37.91 34.81h1.05v1.05h-1.05zM38.94 34.81h1.05v1.05h-1.05zM18.28 35.84h1.05v1.05h-1.05zM20.34 35.84h1.05v1.05h-1.05zM21.38 35.84h1.05v1.05h-1.05zM23.44 35.84h1.05v1.05h-1.05zM24.48 35.84h1.05v1.05h-1.05zM27.58 35.84h1.05v1.05h-1.05zM29.64 35.84h1.05v1.05h-1.05zM32.74 35.84h1.05v1.05h-1.05zM33.77 35.84h1.05v1.05h-1.05zM34.81 35.84h1.05v1.05h-1.05zM35.84 35.84h1.05v1.05h-1.05zM36.87 35.84h1.05v1.05h-1.05zM37.91 35.84h1.05v1.05h-1.05zM19.31 36.87h1.05v1.05h-1.05zM22.41 36.87h1.05v1.05h-1.05zM23.44 36.87h1.05v1.05h-1.05zM24.48 36.87h1.05v1.05h-1.05zM26.54 36.87h1.05v1.05h-1.05zM27.58 36.87h1.05v1.05h-1.05zM30.67 36.87h1.05v1.05h-1.05zM34.81 36.87h1.05v1.05h-1.05zM35.84 36.87h1.05v1.05h-1.05zM36.87 36.87h1.05v1.05h-1.05zM38.94 36.87h1.05v1.05h-1.05zM19.31 37.91h1.05v1.05h-1.05zM20.34 37.91h1.05v1.05h-1.05zM26.54 37.91h1.05v1.05h-1.05zM27.58 37.91h1.05v1.05h-1.05zM28.61 37.91h1.05v1.05h-1.05zM29.64 37.91h1.05v1.05h-1.05zM30.67 37.91h1.05v1.05h-1.05zM37.91 37.91h1.05v1.05h-1.05zM18.28 38.94h1.05v1.05h-1.05zM20.34 38.94h1.05v1.05h-1.05zM21.38 38.94h1.05v1.05h-1.05zM22.41 38.94h1.05v1.05h-1.05zM27.58 38.94h1.05v1.05h-1.05zM30.67 38.94h1.05v1.05h-1.05zM33.77 38.94h1.05v1.05h-1.05zM35.84 38.94h1.05v1.05h-1.05zM37.91 38.94h1.05v1.05h-1.05z"/><path class="cls-1" d="M11.1 11.1h5.06v5.06h-5.06z"/><path d="M16.16 10h-6.16v7.23h7.23v-7.23zm0 6.15h-5.06v-5.05h5.06z"/><path class="cls-1" d="M33.83 11.1h5.06v5.06h-5.06z"/><path d="M38.89 10h-6.15v7.23h7.26v-7.23zm0 6.15h-5.06v-5.05h5.06z"/><path class="cls-1" d="M11.1 33.83h5.06v5.06h-5.06z"/><path d="M16.16 32.74h-6.16v7.26h7.23v-7.26zm0 6.15h-5.06v-5.06h5.06zM12.08 12.08h3.1v3.1h-3.1zM34.81 12.08h3.1v3.1h-3.1zM12.08 34.81h3.1v3.1h-3.1z"/></g></svg>