<svg xmlns="http://www.w3.org/2000/svg" viewBox="0 0 50 50"><defs><style>.cls-1{fill:#fff;}.cls-2{fill:#ff5f00;}.cls-3{fill:#eb001b;}.cls-4{fill:#f79e1b;}</style></defs><title>payment-mastercard</title><g id="mastercard"><path d="M1.28 10h47.44v30h-47.44z"/><path class="cls-1" d="M14.52 37.5v-1.69a1 1 0 0 0-.9-1.06h-.14a1 1 0 0 0-.95.48 1 1 0 0 0-.89-.48.92.92 0 0 0-.81.39v-.34h-.56v2.7h.55v-1.5a.65.65 0 0 1 .58-.71h.11c.39 0 .61.25.61.71v1.5h.55v-1.5a.65.65 0 0 1 .58-.71h.1c.4 0 .61.25.61.71v1.5zm8.78-2.69h-1v-.81h-.55v.82h-.56v.49h.56v1.28c0 .63.22 1 .91 1a1.38 1.38 0 0 0 .73-.21l-.17-.48a1.08 1.08 0 0 1-.52.15c-.28 0-.41-.18-.41-.45v-1.31h1zm5-.07a.85.85 0 0 0-.73.39v-.33h-.57v2.7h.54v-1.5c0-.45.21-.73.6-.73a1 1 0 0 1 .37.07l.18-.51a1.25 1.25 0 0 0-.42-.07zm-7.55.26a2 2 0 0 0-1.1-.28c-.68 0-1.1.32-1.1.85s.3.7.91.79h.28c.32 0 .5.16.5.31s-.24.34-.64.34a1.41 1.41 0 0 1-.9-.28l-.28.42a2 2 0 0 0 1.17.35c.78 0 1.21-.36 1.21-.87s-.33-.71-.91-.79h-.28c-.25 0-.48-.11-.48-.28s.21-.33.54-.33a1.74 1.74 0 0 1 .85.23zm8.18 1.13a1.34 1.34 0 0 0 1.28 1.41h.13a1.41 1.41 0 0 0 1-.32l-.34-.41a1.19 1.19 0 0 1-.7.24.92.92 0 0 1 0-1.83 1.19 1.19 0 0 1 .7.24l.3-.46a1.41 1.41 0 0 0-1-.32 1.34 1.34 0 0 0-1.38 1.32v.13zm-3.79-1.41a1.3 1.3 0 0 0-1.33 1.41 1.33 1.33 0 0 0 1.19 1.42h.13a1.64 1.64 0 0 0 1.11-.38l-.28-.4a1.29 1.29 0 0 1-.78.28.79.79 0 0 1-.81-.69h2v-.23a1.27 1.27 0 0 0-1.27-1.41zm0 .5a.69.69 0 0 1 .71.66h-1.46a.72.72 0 0 1 .74-.68zm-7.3.91v-1.33h-.54v.33a1.07 1.07 0 0 0-.87-.39 1.42 1.42 0 1 0 0 2.83 1.07 1.07 0 0 0 .87-.39v.33h.54zm-2.18 0a.85.85 0 0 1 .78-.91h.07a.92.92 0 0 1 0 1.83.85.85 0 0 1-.85-.84v-.07zm20.83-1.41a.85.85 0 0 0-.73.39v-.31h-.56v2.7h.54v-1.5c0-.45.21-.73.6-.73a1 1 0 0 1 .37.07l.18-.51a1.25 1.25 0 0 0-.42-.07zm4.35 2.37h.11l.09.06a.28.28 0 0 1 .06.08.26.26 0 0 1 0 .21.28.28 0 0 1-.06.08l-.09.06h-.11a.28.28 0 0 1-.25-.16.26.26 0 0 1 0-.21.28.28 0 0 1 .06-.08l.09-.06h.11zm0 .48h.14a.21.21 0 0 0 0-.28h-.29000000000000004a.21.21 0 0 0 0 .28h.15000000000000002zm0-.34h.07a.07.07 0 0 1 0 .06.07.07 0 0 1 0 .05h-.06l.08.09h-.06l-.08-.09v.09h-.05v-.25zm-.06 0v.07h.1zm-6.38-1.15v-1.28h-.54v.33a1.07 1.07 0 0 0-.87-.39 1.42 1.42 0 1 0 0 2.83 1.07 1.07 0 0 0 .87-.39v.33h.54zm-2.18 0a.85.85 0 0 1 .78-.91h.07a.92.92 0 0 1 0 1.83.85.85 0 0 1-.85-.84v-.07zm7.63 0v-2.36h-.55v1.41a1.07 1.07 0 0 0-.87-.39 1.42 1.42 0 1 0 0 2.83 1.07 1.07 0 0 0 .87-.39v.33h.54zm-2.18 0a.85.85 0 0 1 .78-.91h.07a.92.92 0 0 1 0 1.82.85.85 0 0 1-.85-.84v-.07z"/><path class="cls-2" d="M20.56 14.27h8.88v16h-8.88z"/><path id="_Path_2" class="cls-3" d="M21.12 22.25a10.13 10.13 0 0 1 3.88-8 10.15 10.15 0 1 0 0 16 10.13 10.13 0 0 1-3.88-8z"/><path class="cls-4" d="M40.46 28.54v-.33h.13v-.07h-.34v.07h.13v.33zm.65 0v-.39h-.11l-.12.28-.12-.28h-.1v.39h.07v-.3l.11.26h.08l.11-.26v.3zm.31-6.29a10.15 10.15 0 0 1-16.42 8 10.15 10.15 0 0 0 0-16 10.15 10.15 0 0 1 16.42 8z"/></g></svg>