<svg xmlns="http://www.w3.org/2000/svg" viewBox="0 0 50 50">
    <defs>
        <style>.cls-1{fill:#f48120;}.cls-2{fill:#393c43;}</style>
    </defs>
    <title>payment-sofort</title>
    <path id="_Pad_" class="cls-1" d="M13.86 17.46h-5a4.85 4.85 0 0 0-2.25.35 3.87 3.87 0 0 0-1.77 2.45 2.82 2.82 0 0 0-.16.79 1.18 1.18 0 0 0 .12.59 1.7 1.7 0 0 0 .49.56 2.42 2.42 0 0 0 .75.38l.33.09.51.15a1.07 1.07 0 0 1 .23.1.48.48 0 0 1 .19.19.42.42 0 0 1 0 .18.58.58 0 0 1 0 .21.57.57 0 0 1-.35.39 2.56 2.56 0 0 1-.87.1h-5.19l-.82 2.23h5.53a6 6 0 0 0 2.4-.39 3.67 3.67 0 0 0 2.16-2.72 1.85 1.85 0 0 0-.16-1.43 2 2 0 0 0-1.25-.82l-.29-.08-.46-.13a.58.58 0 0 1-.34-.25.49.49 0 0 1-.01-.4.57.57 0 0 1 .29-.34 1.16 1.16 0 0 1 .56-.12h3.22l.07-.1a7.1 7.1 0 0 1 2.08-2"/>
    <path id="_Pad_2" class="cls-1" d="M13.86 17.45h-5a4.85 4.85 0 0 0-2.25.35 3.87 3.87 0 0 0-1.77 2.45 2.78 2.78 0 0 0-.16.79 1.18 1.18 0 0 0 .12.58 1.69 1.69 0 0 0 .49.56 2.42 2.42 0 0 0 .75.38l.33.09.51.15a1.14 1.14 0 0 1 .23.1.48.48 0 0 1 .19.19.42.42 0 0 1 0 .18.58.58 0 0 1 0 .21.57.57 0 0 1-.35.39 2.55 2.55 0 0 1-.87.1h-5.19l-.82 2.24h5.54a6 6 0 0 0 2.39-.39 3.67 3.67 0 0 0 2.16-2.72 1.85 1.85 0 0 0-.16-1.43 2 2 0 0 0-1.25-.82l-.29-.09-.46-.12a.58.58 0 0 1-.34-.25.49.49 0 0 1-.01-.39.57.57 0 0 1 .29-.34 1.16 1.16 0 0 1 .56-.12h3.22l.07-.1a7.1 7.1 0 0 1 2.08-2"/>
    <path id="_Pad_3" class="cls-1" d="M41.21 17.46a2.18 2.18 0 0 1 .44.47 2.27 2.27 0 0 1 .35 1.61h1.61l-2.41 6.69h2.43l2.43-6.68h3.12l.76-2.08z"/>
    <path id="_Samengesteld_pad_" class="cls-1" d="M41.09 18.32a2.86 2.86 0 0 0-2.49-.86h-3l-3.19 8.76h2.71l1.16-3.08c.06.13.74 3.08.74 3.08h2.85a27.3 27.3 0 0 0-.9-3.05 4.74 4.74 0 0 0-.34-.69 4 4 0 0 0 2.45-2.24 2 2 0 0 0 0-1.92m-2.36 1.94a1.56 1.56 0 0 1-1.62 1.13h-.46l.79-2.12h.45c.82 0 1.12.24.85 1"/>
    <path id="_Samengesteld_pad_2" class="cls-1" d="M18.79 18.28a2.54 2.54 0 0 0-2.23-.95 4.58 4.58 0 0 0-2 .45 6.14 6.14 0 0 0-2.35 2.05 8.91 8.91 0 0 0-1.08 2.09c-.54 1.48-.53 2.68 0 3.46a2.58 2.58 0 0 0 2.28 1c2.41 0 4.2-1.58 5.34-4.69.3-.82.7-2.36 0-3.4m-2.53 3.51c-.75 2.06-1.3 2.57-2.12 2.57-.8 0-1.08-.51-.33-2.55.56-1.53 1.28-2.5 2.16-2.5.83 0 1 .48.29 2.48"/>
    <path id="_Pad_4" class="cls-1" d="M28.41 17.46h-5.12a3 3 0 0 0-3 2.08l-2.43 6.68h2.66l1.25-3.43h2.35l.67-1.84h-2.34l.38-1.07a.56.56 0 0 1 .54-.34h2.78l.07-.1a7.49 7.49 0 0 1 2.2-2"/>
    <path id="_Samengesteld_pad_3" class="cls-1" d="M33.32 18.28a2.54 2.54 0 0 0-2.23-.95 4.58 4.58 0 0 0-2 .45 6.14 6.14 0 0 0-2.35 2.05 8.89 8.89 0 0 0-1.08 2.09c-.54 1.48-.53 2.68 0 3.46a2.58 2.58 0 0 0 2.28 1c2.41 0 4.2-1.58 5.34-4.69.3-.82.7-2.36 0-3.4m-2.54 3.51c-.75 2.06-1.3 2.57-2.12 2.57-.8 0-1.08-.51-.33-2.55.56-1.53 1.28-2.5 2.16-2.5.83 0 1 .48.29 2.48"/>
    <path id="_Pad_5" class="cls-1" d="M41.21 17.45a2.18 2.18 0 0 1 .44.47 2.28 2.28 0 0 1 .35 1.61h1.61l-2.41 6.69h2.43l2.43-6.68h3.12l.76-2.08z"/>
    <path id="_Samengesteld_pad_4" class="cls-1" d="M41.09 18.31a2.86 2.86 0 0 0-2.49-.86h-3l-3.19 8.76h2.71l1.16-3.08c.06.13.74 3.08.74 3.08h2.85a27.45 27.45 0 0 0-.9-3.05 4.79 4.79 0 0 0-.34-.69 4 4 0 0 0 2.45-2.24 2 2 0 0 0 0-1.92m-2.36 1.94a1.56 1.56 0 0 1-1.62 1.13h-.46l.79-2.12h.45c.82 0 1.12.24.85 1"/>
    <path id="_Samengesteld_pad_5" class="cls-1" d="M18.79 18.27a2.54 2.54 0 0 0-2.23-.95 4.59 4.59 0 0 0-2 .45 6.14 6.14 0 0 0-2.35 2.05 8.91 8.91 0 0 0-1.08 2.09c-.54 1.48-.53 2.68 0 3.46a2.59 2.59 0 0 0 2.28 1c2.41 0 4.2-1.58 5.34-4.69.3-.82.7-2.36 0-3.4m-2.58 3.52c-.75 2.06-1.3 2.57-2.12 2.57-.8 0-1.08-.51-.33-2.55.56-1.53 1.28-2.5 2.16-2.5.83 0 1 .48.29 2.48"/>
    <path id="_Pad_6" class="cls-1" d="M28.41 17.45h-5.12a3 3 0 0 0-3 2.08l-2.43 6.68h2.66l1.25-3.43h2.35l.67-1.84h-2.34l.38-1.07a.56.56 0 0 1 .54-.34h2.78l.07-.1a7.49 7.49 0 0 1 2.2-2"/>
    <path id="_Samengesteld_pad_6" class="cls-1" d="M33.32 18.27a2.54 2.54 0 0 0-2.23-.95 4.58 4.58 0 0 0-2 .45 6.14 6.14 0 0 0-2.35 2.05 8.91 8.91 0 0 0-1.08 2.09c-.54 1.48-.53 2.68 0 3.46a2.58 2.58 0 0 0 2.28 1c2.41 0 4.2-1.58 5.34-4.69.3-.82.7-2.36 0-3.4m-2.58 3.52c-.75 2.06-1.3 2.57-2.12 2.57-.8 0-1.08-.51-.33-2.55.56-1.53 1.28-2.5 2.16-2.5.83 0 1 .48.29 2.48"/>
    <path class="cls-2" d="M.32 30.88l1-2.59h.94l-.94 2.56a.85.85 0 0 0-.06.21c-.06.43.21.8.83.8a1.32 1.32 0 0 0 1.27-1l1-2.56h.95l-1 2.58a2.36 2.36 0 0 1-2.33 1.8c-1.26 0-1.81-.61-1.68-1.5a2 2 0 0 1 .02-.3zm2-3.25a.61.61 0 0 1 .57-.48.32.32 0 0 1 .34.39.61.61 0 0 1-.57.48.32.32 0 0 1-.3-.39zm1.38 0a.61.61 0 0 1 .57-.48.32.32 0 0 1 .34.39.61.61 0 0 1-.57.48.32.32 0 0 1-.3-.39zM6.07 28.29h2.12c.76 0 1.11.48 1 1a1.38 1.38 0 0 1-1.16 1.12.74.74 0 0 1 .5.87 1.58 1.58 0 0 1-1.67 1.32h-2.38zm1.16 2.51h-1.16l-.37 1h1.2a.7.7 0 0 0 .74-.56c.05-.24-.11-.44-.41-.44zm.59-1.72h-1.11l-.34.92h1.17a.62.62 0 0 0 .67-.54.35.35 0 0 0-.39-.38zM10.41 28.29h3.09l-.3.81h-2.2l-.34.91h2.11l-.3.81h-2.06l-.36 1h2.15l-.29.81h-3.09zM14.85 31.07h-.72l-.56 1.53h-.93l1.59-4.31h1.87a1.06 1.06 0 0 1 1.17 1.21 1.8 1.8 0 0 1-1.47 1.5l.37 1.6h-1zm1.43-1.47a.44.44 0 0 0-.48-.5h-.94l-.43 1.16h1a.81.81 0 0 0 .84-.66zM20.51 29.64l-1.85 3h-1l.34-4.35h1l-.39 3.11 2-3.11h.73l-.34 3.12 1.91-3.11h1.09l-2.83 4.3h-1zM24.45 28.29h3.09l-.3.81h-2.16l-.34.91h2.11l-.3.81h-2.11l-.36 1h2.15l-.29.81h-3.08zM28.26 28.29h.93l-1.59 4.31h-.93zM29.16 31.2a1.6 1.6 0 0 0 1.37.67.66.66 0 0 0 .73-.49c0-.25-.29-.38-.68-.53-.57-.21-1.29-.48-1.18-1.23a1.83 1.83 0 0 1 1.91-1.4 2 2 0 0 1 1.63.7l-.67.65a1.53 1.53 0 0 0-1.22-.57.63.63 0 0 0-.65.44c0 .23.29.35.68.5.58.22 1.31.5 1.2 1.25a1.84 1.84 0 0 1-1.94 1.47 2.18 2.18 0 0 1-1.86-.8zM33 30.88l1-2.59h.94l-.94 2.57a.85.85 0 0 0-.06.21c-.06.43.21.8.83.8a1.32 1.32 0 0 0 1.27-1l1-2.56h.95l-1 2.58a2.36 2.36 0 0 1-2.33 1.8c-1.26 0-1.81-.61-1.68-1.5a2 2 0 0 1 .02-.31zM39.2 29.69l-1.08 2.91h-.93l1.59-4.31h1l1 2.8 1-2.8h.93l-1.61 4.31h-.9zM45.44 28.22a1.61 1.61 0 0 1 1.64 1.07l-.91.36a1 1 0 0 0-1-.61 1.91 1.91 0 0 0-1.77 1.65 1 1 0 0 0 1.06 1.18 1.53 1.53 0 0 0 .92-.33l.19-.52h-1.13l.3-.81h2.09l-.62 1.68a2.67 2.67 0 0 1-1.89.79c-1.19 0-2-.74-1.87-1.93a3 3 0 0 1 2.99-2.53z"/>
</svg>