<svg xmlns="http://www.w3.org/2000/svg" viewBox="0 0 50 50">
    <defs>
        <style>.cls-1{fill:#e7e8e3;}.cls-2{fill:#006e90;}.cls-3{fill:#66cde7;}</style>
    </defs>
    <title>payment-transfer-en</title>
    <g id="transfer">
        <path class="cls-1" d="M49.76 37.41a2.77 2.77 0 0 1-2.92 2.59h-43.68a2.77 2.77 0 0 1-2.92-2.59v-24.82a2.77 2.77 0 0 1 2.92-2.59h43.68a2.77 2.77 0 0 1 2.93 2.57v24.84z"/>
        <path class="cls-2" d="M18 19.74h2.66c1 0 2.06.24 2.06 1.43a1.28 1.28 0 0 1-.72 1.15 1.35 1.35 0 0 1 1 1.35c0 1.36-1 1.77-2.22 1.77h-2.78zm1.47 2.26h1.15a.55.55 0 0 0 .61-.54c0-.41-.3-.55-.61-.55h-1.15zm0 2.26h1.19c.47 0 .8-.17.8-.64s-.35-.67-.8-.67h-1.19zM25.29 19.74h1.51l2.13 5.69h-1.55l-.35-1h-2.03l-.36 1h-1.48zm.1 3.57h1.29l-.63-2zM29.34 19.74h1.52l2 3.51v-3.51h1.4v5.69h-1.53l-2-3.55v3.55h-1.4zM35.26 19.74h1.48v2.18l1.87-2.18h1.84l-2.09 2.26 2.37 3.45h-1.85l-1.53-2.45-.61.64v1.75h-1.48v-5.65z"/>
        <path class="cls-3" d="M20.55 27.53h-.89v2.31h-.77v-2.31h-.89v-.67h2.55zM20.89 26.86h1.52c.52 0 1 .24 1 .84a.76.76 0 0 1-.47.75c.32.08.41.43.43.71 0 .12 0 .56.12.67h-.77a1.44 1.44 0 0 1-.09-.47c0-.3-.07-.61-.43-.61h-.59v1.08h-.77zm.77 1.29h.65a.32.32 0 0 0 .36-.35c0-.22-.17-.32-.39-.32h-.62zM24.71 26.86h.79l1.11 3h-.81l-.18-.53h-1l-.19.53h-.8zm0 1.87h.67l-.33-1zM26.82 26.86h.8l1 1.83v-1.83h.73v3h-.8l-1-1.85v1.85h-.73zM30.52 28.84c0 .35.23.46.56.46s.47-.08.47-.3-.42-.31-.85-.43-.87-.31-.87-.86.65-.9 1.21-.9 1.19.29 1.19 1h-.77c0-.27-.24-.36-.48-.36s-.37.06-.37.25.43.27.86.39.86.32.86.86c0 .75-.64 1-1.3 1s-1.29-.3-1.29-1.06h.77zM32.7 26.86h2.19v.62h-1.42v.61h1.22v.6h-1.22v1.15h-.77zM35.24 26.86h2.37v.62h-1.61v.52h1.46v.6h-1.46v.57h1.64v.67h-2.4v-3zM38.09 26.86h1.52c.52 0 1 .24 1 .84a.76.76 0 0 1-.47.75c.32.08.41.43.43.71 0 .12 0 .56.12.67h-.69a1.44 1.44 0 0 1-.09-.47c0-.3-.07-.61-.43-.61h-.59v1.08h-.77v-3zm.77 1.29h.65a.32.32 0 0 0 .36-.35c0-.22-.17-.32-.39-.32h-.62z"/>
        <path class="cls-2" d="M9.27 26.72v-.41a4.41 4.41 0 0 1 0-.53 2.71 2.71 0 0 1 .12-.62 3.31 3.31 0 0 1 .24-.68l.16-.35.21-.34a4.16 4.16 0 0 1 .5-.65 7.24 7.24 0 0 1 .6-.57c.22-.16.43-.33.65-.46a6.57 6.57 0 0 1 .65-.36c.21-.12.42-.19.61-.28s.56-.21.78-.27a4.25 4.25 0 0 1-.23-.7 3.78 3.78 0 0 1-.12-.81 3.85 3.85 0 0 1 .76.32 5.1 5.1 0 0 1 .64.41 6.24 6.24 0 0 1 1 1 .82.82 0 0 1 .08.95v.06a6.31 6.31 0 0 1-1 1.3 5.11 5.11 0 0 1-.67.55l-.39.24a3.13 3.13 0 0 1-.44.21 3.22 3.22 0 0 1 0-.49c0-.15 0-.3.06-.45a4.67 4.67 0 0 1 .22-.84v-.08h-.3c-.17 0-.36.06-.55.11a5.36 5.36 0 0 0-.59.18c-.21.06-.4.17-.62.26a5.27 5.27 0 0 0-.59.36 3.25 3.25 0 0 0-.53.44l-.24.24-.2.27a3 3 0 0 0-.34.55 2.48 2.48 0 0 0-.23.54 3.76 3.76 0 0 0-.16.48l-.07.39-.06.35v-.35z"/>
        <path class="cls-3" d="M15.46 26.13a5.48 5.48 0 0 1-.58.37c-.21.09-.4.21-.61.28a5.52 5.52 0 0 1-.59.2l-.54.13h-.3v-.08a5 5 0 0 0 .2-.84v-.46a3.27 3.27 0 0 0 0-.49 3.36 3.36 0 0 0-.44.22l-.38.25a5.16 5.16 0 0 0-.65.57 6.32 6.32 0 0 0-1 1.33v.06a.82.82 0 0 0 .11.95 6.12 6.12 0 0 0 1.07 1 5 5 0 0 0 .65.39 3.65 3.65 0 0 0 .76.29 3.93 3.93 0 0 0-.14-.81 4.86 4.86 0 0 0-.24-.69c.21-.07.47-.17.76-.29s.4-.17.61-.3a6 6 0 0 0 .64-.39c.22-.13.42-.32.64-.48a6.27 6.27 0 0 0 .58-.59 4.15 4.15 0 0 0 .48-.66l.2-.34.15-.35a3.3 3.3 0 0 0 .21-.69 2.53 2.53 0 0 0 .1-.63 3.66 3.66 0 0 0 0-.53v-.76l-.05.34-.06.39a3.72 3.72 0 0 1-.04.48 2.66 2.66 0 0 1-.22.55 3 3 0 0 1-.32.56l-.19.27a3.07 3.07 0 0 1-.24.25 3.17 3.17 0 0 1-.52.46z"/>
    </g>
</svg>