<svg xmlns="http://www.w3.org/2000/svg" viewBox="0 0 50 50">
    <defs>
        <style>.cls-1{fill:#009ee2;}.cls-2{fill:#fff;}</style>
    </defs>
    <title>payment-kbc-mobile</title>
    <g id="kbc-mobile">
        <rect class="cls-1" x="10.17" y="10.17" width="29.67" height="29.67" rx="7.52" ry="7.52"/>
        <path class="cls-2" d="M20.6 34.87v1.13h-1.45v-3h1.45v1.35l.85-1.35h1.73l-1.27 1.55 1.2 1.45h-1.65l-.86-1.13zM31.3 35.88a4.33 4.33 0 0 1-1.19.17c-1.43 0-2.48-.41-2.48-1.59s1-1.53 2.4-1.53a4.44 4.44 0 0 1 1.26.17v1a1.76 1.76 0 0 0-1-.28c-.53 0-1.06.26-1.06.64s.53.64 1.06.64a1.84 1.84 0 0 0 1-.28zM23.42 33h2.92c.76 0 1 .29 1 .75s-.46.74-.93.76c.48 0 1 .09 1 .7 0 .4-.25.78-1.08.78h-2.91zm1.44 2.39h.75c.28 0 .38-.12.38-.29s-.1-.3-.37-.3h-.76zm0-1.12h.72c.28 0 .39-.11.39-.29s-.11-.3-.37-.3h-.74zM33 15.92h-15.59a.92.92 0 0 0-.92.92v11.43a1.18 1.18 0 0 0 1.18 1.18h15.07a1.18 1.18 0 0 0 1.18-1.18v-11.43a.92.92 0 0 0-.92-.92zm.5 8.3a.06.06 0 0 1-.06.06h-4.15a.06.06 0 0 1-.06-.06v-3.14h4.28zm-16.09-7.88h15.59a.5.5 0 0 1 .5.5v.81h-16.59v-.81a.5.5 0 0 1 .5-.5zm15.33 12.66h-15.06a.77.77 0 0 1-.77-.77v-10.16h16.6v2.61h-4.29a.4.4 0 0 0-.4.4v3.15a.48.48 0 0 0 .48.47h4.22v3.57a.77.77 0 0 1-.78.73z"/>
        <circle class="cls-2" cx="30.62" cy="22.69" r=".71"/>
    </g>
</svg>