<svg xmlns="http://www.w3.org/2000/svg" viewBox="0 0 50 50"><defs><style>.cls-1{fill:#0066b2;}.cls-2{fill:#f9a533;}</style></defs><title>payment-visa</title><path class="cls-1" d="M21.68 32.84h-4.08l2.55-15.67h4.08l-2.55 15.67zM14.17 17.17l-3.89 10.78-.46-2.32-1.37-7a1.75 1.75 0 0 0-1.94-1.41h-6.43l-.08.22a15.24 15.24 0 0 1 4.27 1.79l3.55 13.61h4.25l6.49-15.67zM46.26 32.84h3.74l-3.26-15.67h-3.28a1.88 1.88 0 0 0-1.88 1.17l-6.08 14.5h4.25l.85-2.33h5.19zm-4.49-5.54l2.14-5.87 1.21 5.87zM35.81 20.94l.58-3.37a11.79 11.79 0 0 0-3.67-.68c-2 0-6.83.89-6.83 5.19 0 4 5.64 4.1 5.64 6.23s-5.06 1.75-6.73.41l-.61 3.52a11.42 11.42 0 0 0 4.61.89c2.78 0 7-1.44 7-5.37 0-4.07-5.69-4.45-5.69-6.23s3.95-1.53 5.7-.59z"/><path class="cls-2" d="M9.82 25.63l-1.37-7a1.75 1.75 0 0 0-1.94-1.41h-6.43l-.08.22a15.81 15.81 0 0 1 6.06 3 12.21 12.21 0 0 1 3.76 5.19z"/></svg>