<svg xmlns="http://www.w3.org/2000/svg" viewBox="0 0 50 50"><defs><style>.cls-1{fill:#f36007;}.cls-2{fill:#fff;}.cls-3{fill:#080146;}</style></defs><title>payment-ing-homepay-alt</title><g id="ING"><rect class="cls-1" x=".2" y="18.17" width="49.6" height="14.08" rx="2.06" ry="2.06"/><path class="cls-2" d="M20.92 26.05v1.55a5.51 5.51 0 0 1-2.49.64c-2.25 0-3.61-1.33-3.61-3a3.41 3.41 0 0 1 3.52-3.31 3.68 3.68 0 0 1 1.25.21 2.76 2.76 0 0 0 .62.19c.15 0 .19-.26.21-.41h.21l.2 2.08h-.26a2 2 0 0 0-.57-1 2.22 2.22 0 0 0-1.61-.62c-1.35 0-2.15 1.07-2.15 2.68a2.41 2.41 0 0 0 2.25 2.68 2.69 2.69 0 0 0 1.16-.28v-1.56c0-.52-.09-.71-.82-.71v-.19h2.73v.24c-.69 0-.67.21-.67.86zm-7.49-2.53v4.62h-.36l-4.62-4.77a2 2 0 0 1 0 .36v2.9c0 .9 0 1.22.82 1.22v.24h-2.16v-.24c.82 0 .82-.39.82-1.22v-3.3c0-.49 0-1-.86-1v-.24h2l3.84 3.91a1.44 1.44 0 0 1 0-.32v-2.16c0-.86 0-1.22-.79-1.22v-.24h2.17v.24c-.79 0-.84.34-.84 1.22zm-10.5 4.57v-.24c.52 0 .88 0 .88-.79v-4c0-.77-.28-.79-.88-.79v-.24h3.07v.24c-.62 0-.88 0-.88.79v4c0 .75.32.79.88.79v.24zM24.76 20.05h23v8a2.06 2.06 0 0 1-2.06 2.06h-23v-8a2.06 2.06 0 0 1 2.06-2.06z"/><path class="cls-3" d="M23.67 26.48v-3.7h.33v1.59h2.19v-1.59h.35v3.71h-.35v-1.82h-2.19v1.82zM28.41 26.56a1.39 1.39 0 0 1-.48-.09 1.08 1.08 0 0 1-.39-.26 1.25 1.25 0 0 1-.26-.44 1.75 1.75 0 0 1-.1-.61 1.87 1.87 0 0 1 .08-.55 1.28 1.28 0 0 1 .23-.45 1.1 1.1 0 0 1 .39-.3 1.39 1.39 0 0 1 1.09 0 1.12 1.12 0 0 1 .39.3 1.24 1.24 0 0 1 .23.45 2 2 0 0 1 .08.55 1.78 1.78 0 0 1-.09.58 1.3 1.3 0 0 1-.25.44 1.09 1.09 0 0 1-.39.29 1.26 1.26 0 0 1-.53.09zm.91-1.41a1.83 1.83 0 0 0-.05-.44 1.06 1.06 0 0 0-.16-.36.77.77 0 0 0-.28-.24.91.91 0 0 0-.42-.09.84.84 0 0 0-.41.1.81.81 0 0 0-.28.25 1.11 1.11 0 0 0-.16.36 1.67 1.67 0 0 0-.05.42 1.64 1.64 0 0 0 .06.46 1.07 1.07 0 0 0 .17.36.78.78 0 0 0 .28.23.88.88 0 0 0 .39.08.85.85 0 0 0 .42-.1.81.81 0 0 0 .28-.25 1.16 1.16 0 0 0 .16-.36 1.68 1.68 0 0 0 .05-.42zM30.48 26.48h-.31v-2.66h.31v.4a.81.81 0 0 1 .34-.35 1 1 0 0 1 .48-.12 1 1 0 0 1 .31 0 .7.7 0 0 1 .22.11.62.62 0 0 1 .15.16 1.06 1.06 0 0 1 .1.2.9.9 0 0 1 .36-.39 1 1 0 0 1 .51-.13.9.9 0 0 1 .44.09.65.65 0 0 1 .25.24.92.92 0 0 1 .12.34 2.58 2.58 0 0 1 0 .39v1.68h-.31v-1.8a.75.75 0 0 0-.12-.45.53.53 0 0 0-.45-.17.75.75 0 0 0-.33.07.74.74 0 0 0-.28.23.58.58 0 0 0-.09.16 1.44 1.44 0 0 0-.05.19 1.5 1.5 0 0 0 0 .2v1.6199999999999999h-.31v-1.85a.76.76 0 0 0-.12-.45.53.53 0 0 0-.45-.17.75.75 0 0 0-.6.3.61.61 0 0 0-.08.16 1.3 1.3 0 0 0-.05.19 1.5 1.5 0 0 0 0 .2v.18zM34.69 25.22a1.43 1.43 0 0 0 .06.41 1 1 0 0 0 .17.33.82.82 0 0 0 .28.23.86.86 0 0 0 .39.08.85.85 0 0 0 .52-.16.77.77 0 0 0 .29-.45h.34a1.69 1.69 0 0 1-.15.35 1.08 1.08 0 0 1-.23.28 1 1 0 0 1-.33.19 1.34 1.34 0 0 1-.44.07 1.29 1.29 0 0 1-.55-.11 1 1 0 0 1-.38-.3 1.25 1.25 0 0 1-.22-.44 2 2 0 0 1-.07-.55 1.74 1.74 0 0 1 .08-.55 1.4 1.4 0 0 1 .24-.45 1.12 1.12 0 0 1 .38-.3 1.16 1.16 0 0 1 .52-.11 1.06 1.06 0 0 1 .87.38 1.67 1.67 0 0 1 .31 1.1zm1.75-.22a1.22 1.22 0 0 0-.05-.37.87.87 0 0 0-.16-.3.77.77 0 0 0-.27-.2.85.85 0 0 0-.37-.07.82.82 0 0 0-.36.08.84.84 0 0 0-.27.21 1 1 0 0 0-.18.3 1.37 1.37 0 0 0-.09.36zM39.88 24.88a1.41 1.41 0 0 1-.93.27h-.77v1.33h-.77v-3.7h1.59a1.28 1.28 0 0 1 .88.29 1.12 1.12 0 0 1 .33.89 1.15 1.15 0 0 1-.33.92zm-.59-1.34a.63.63 0 0 0-.41-.12h-.7v1.09h.7a.59.59 0 0 0 .41-.13.55.55 0 0 0 .15-.42.51.51 0 0 0-.15-.42zM41.85 24.82a1.13 1.13 0 0 0 .29-.06.22.22 0 0 0 .16-.2.24.24 0 0 0-.12-.23.74.74 0 0 0-.35-.06.46.46 0 0 0-.36.13.52.52 0 0 0-.1.25h-.69a1.06 1.06 0 0 1 .2-.59 1.18 1.18 0 0 1 1-.36 1.75 1.75 0 0 1 .8.18.68.68 0 0 1 .35.67v1.58a.4.4 0 0 0 0 .19.26.26 0 0 0 .11.08v.11h-.78a.78.78 0 0 1 0-.16v-.17a1.47 1.47 0 0 1-.34.27 1 1 0 0 1-.53.13.91.91 0 0 1-.62-.21.75.75 0 0 1-.24-.6.78.78 0 0 1 .37-.77 1.74 1.74 0 0 1 .63-.18zm.44.33l-.14.07h-.35a1.08 1.08 0 0 0-.33.1.33.33 0 0 0-.17.3.32.32 0 0 0 .1.27.39.39 0 0 0 .25.08.75.75 0 0 0 .43-.14.58.58 0 0 0 .21-.5zM43.74 27h.26a.36.36 0 0 0 .16-.06.39.39 0 0 0 .12-.18.44.44 0 0 0 0-.17l-1-2.86h.8l.6 2 .57-2h.76l-.94 2.7a3.81 3.81 0 0 1-.43 1 .82.82 0 0 1-.63.19h-.33z"/></g></svg>