<svg xmlns="http://www.w3.org/2000/svg" viewBox="0 0 50 50">
    <defs>
        <style>.cls-1{fill:#253b80;}.cls-2{fill:#179bd7;}.cls-3{fill:#222d65;}</style>
    </defs>
    <title>payment-Paypal</title>
    <g id="paypal">
        <path class="cls-1" d="M11.58 30.65h-2.74a.38.38 0 0 0-.38.32l-1.11 7.03a.23.23 0 0 0 .23.26h1.31a.38.38 0 0 0 .37-.26l.3-1.9a.38.38 0 0 1 .38-.32h.87a2.82 2.82 0 0 0 3.13-2.61 2.12 2.12 0 0 0-.35-1.77 2.55 2.55 0 0 0-2.01-.75zm.32 2.57c-.15 1-.9 1-1.63 1h-.42l.29-1.84a.23.23 0 0 1 .23-.19h.19c.5 0 1 0 1.21.28a.92.92 0 0 1 .13.75zM19.79 33.19h-1.31a.23.23 0 0 0-.23.19l-.06.37-.09-.13a1.87 1.87 0 0 0-1.55-.55 3 3 0 0 0-2.94 2.64 2.48 2.48 0 0 0 .49 2 2.06 2.06 0 0 0 1.66.67 2.52 2.52 0 0 0 1.82-.75l-.06.37a.23.23 0 0 0 .23.27h1.18a.38.38 0 0 0 .38-.32l.71-4.5a.23.23 0 0 0-.23-.26zm-1.79 2.56a1.47 1.47 0 0 1-1.53 1.25 1 1 0 0 1-1.09-1.28 1.47 1.47 0 0 1 1.47-1.27 1.11 1.11 0 0 1 .88.36 1.14 1.14 0 0 1 .27.94zM26.8 33.19h-1.33a.38.38 0 0 0-.32.17l-1.81 2.64-.77-2.58a.38.38 0 0 0-.37-.27h-1.3a.23.23 0 0 0-.22.3l1.46 4.27-1.37 1.98a.23.23 0 0 0 .19.36h1.32a.38.38 0 0 0 .31-.16l4.41-6.35a.23.23 0 0 0-.2-.36z"/>
        <path class="cls-2" d="M31.17 30.65h-2.74a.38.38 0 0 0-.43.35l-1.11 7a.23.23 0 0 0 .23.26h1.41a.27.27 0 0 0 .26-.23l.32-2a.38.38 0 0 1 .38-.32h.87a2.82 2.82 0 0 0 3.13-2.61 2.11 2.11 0 0 0-.35-1.77 2.55 2.55 0 0 0-1.97-.68zm.32 2.57c-.15 1-.9 1-1.63 1h-.41l.29-1.84a.23.23 0 0 1 .23-.19h.19c.5 0 1 0 1.21.28a.92.92 0 0 1 .12.75zM39.38 33.19h-1.31a.23.23 0 0 0-.23.19l-.06.37-.09-.13a1.87 1.87 0 0 0-1.55-.55 3 3 0 0 0-2.94 2.64 2.48 2.48 0 0 0 .49 2 2.06 2.06 0 0 0 1.66.67 2.52 2.52 0 0 0 1.82-.75l-.06.37a.23.23 0 0 0 .23.27h1.18a.38.38 0 0 0 .38-.27l.71-4.5a.23.23 0 0 0-.23-.31zm-1.83 2.56a1.47 1.47 0 0 1-1.49 1.25 1 1 0 0 1-1.06-1.27 1.47 1.47 0 0 1 1.47-1.27 1.11 1.11 0 0 1 .88.36 1.13 1.13 0 0 1 .2.93zM40.93 30.84l-1.13 7.16a.23.23 0 0 0 .23.26h1.13a.38.38 0 0 0 .38-.32l1.11-7a.23.23 0 0 0-.23-.26h-1.26a.23.23 0 0 0-.23.16z"/>
        <path class="cls-1" d="M21.7 27.45l.31-2h-4.01l2.3-14.68a.19.19 0 0 1 .06-.11.19.19 0 0 1 .12 0h5.62c1.86 0 3.15.39 3.82 1.15a2.63 2.63 0 0 1 .61 1.15 4.14 4.14 0 0 1 0 1.58v.45l.31.18a2.21 2.21 0 0 1 .64.49 2.26 2.26 0 0 1 .52 1.11 4.91 4.91 0 0 1-.07 1.68 5.93 5.93 0 0 1-.69 1.9 3.92 3.92 0 0 1-1.09 1.2 4.43 4.43 0 0 1-1.47.66 7.34 7.34 0 0 1-1.84.21h-.44a1.31 1.31 0 0 0-1.3 1.11v.18l-.55 3.5v.13a.11.11 0 0 1 0 .07h-.06z"/>
        <path class="cls-2" d="M31.14 14.59q0 .16-.06.33c-.74 3.8-3.27 5.11-6.51 5.11h-1.64a.8.8 0 0 0-.79.68l-.84 5.35-.24 1.52a.42.42 0 0 0 .42.49h2.92a.7.7 0 0 0 .69-.59v-.15l.55-3.49v-.19a.7.7 0 0 1 .69-.59h.44c2.83 0 5-1.15 5.69-4.47a3.81 3.81 0 0 0-.59-3.36 2.79 2.79 0 0 0-.73-.64z"/>
        <path class="cls-3" d="M30.37 14.28l-.37-.09-.37-.07a9.15 9.15 0 0 0-1.44-.12h-4.4a.7.7 0 0 0-.69.59l-.94 5.93v.17a.8.8 0 0 1 .79-.68h1.65c3.23 0 5.77-1.31 6.51-5.11 0-.11 0-.22.06-.33a4 4 0 0 0-.61-.26z"/>
        <path class="cls-1" d="M23.1 14.61a.7.7 0 0 1 .69-.59h4.4a9.15 9.15 0 0 1 1.45.11l.37.07.35.09.17.05a4 4 0 0 1 .61.26 3.59 3.59 0 0 0-.76-3.23c-.84-.96-2.38-1.37-4.28-1.37h-5.62a.8.8 0 0 0-.79.68l-2.34 14.82a.48.48 0 0 0 .48.56h3.47l.87-5.52z"/>
    </g>
</svg>