<svg xmlns="http://www.w3.org/2000/svg" viewBox="0 0 50 50"><defs><style>.cls-1{fill:#ca0343;}.cls-2{fill:#fff;}</style></defs><title>payment-belfius-pay</title><g id="Belgius"><rect class="cls-1" x="10.17" y="10.17" width="29.67" height="29.67" rx="7.52" ry="7.52"/><path class="cls-2" d="M17.89 26.86a2.5 2.5 0 0 0 2.5 2.5h10.94v-10.94a2.5 2.5 0 0 0-2.5-2.5h-8.44a2.5 2.5 0 0 0-2.5 2.5z"/><path class="cls-1" d="M21 20.76a.93.93 0 0 1 1-1h5.36a1 1 0 1 1 0 1.91h-5.43a.94.94 0 0 1-.93-.91zM21 24.52a.94.94 0 0 1 1-1h5.36a1 1 0 0 1 0 1.91h-5.43a.94.94 0 0 1-.93-.91z"/><path class="cls-2" d="M19.14 34.3h-1a.27.27 0 0 1-.27-.27v-3.32a.27.27 0 0 1 .27-.27h1a1.06 1.06 0 0 1 .72 1.85 1.13 1.13 0 0 1-.72 2zm-.69-.53h.69a.6.6 0 1 0 0-1.19h-.69zm0-1.73h.69a.53.53 0 0 0 .52-.53v-.07a.53.53 0 0 0-.52-.46h-.69zM21.66 34.34a1.07 1.07 0 0 1-1.07-1v-.85a1 1 0 0 1 2.05 0v.32a.27.27 0 0 1-.27.27h-1.25v.26a.54.54 0 0 0 .54.49.55.55 0 0 0 .42-.16.26.26 0 0 1 .21-.12.28.28 0 0 1 .28.27.26.26 0 0 1-.05.15.43.43 0 0 1-.06.08 1.08 1.08 0 0 1-.8.29zm-.54-1.82h1v-.06a.49.49 0 0 0-1 0zM23.32 34.3a.26.26 0 0 1-.27-.27v-3.32a.27.27 0 1 1 .53 0v3.29a.26.26 0 0 1-.26.3zM24.62 34.3a.26.26 0 0 1-.27-.27v-2.03h-.2a.27.27 0 0 1 0-.53h.2v-.3a.79.79 0 0 1 .83-.78c.41 0 .59.19.59.39a.24.24 0 0 1-.23.25.29.29 0 0 1-.16 0 .43.43 0 0 0-.21-.06c-.22 0-.29.13-.29.24v.3h.56a.27.27 0 1 1 0 .53h-.56v2a.26.26 0 0 1-.26.26zM26.32 34.3a.26.26 0 0 1-.27-.27v-2.28a.27.27 0 1 1 .53 0v2.25a.26.26 0 0 1-.26.3zm0-3.12a.26.26 0 0 1-.27-.27v-.19a.27.27 0 1 1 .53 0v.19a.26.26 0 0 1-.26.26zM28.11 34.34a1 1 0 0 1-1-1v-1.59a.27.27 0 1 1 .53 0v1.57a.49.49 0 0 0 1 0v-1.57a.27.27 0 1 1 .53 0v1.57a1 1 0 0 1-1.06 1.02zM30.35 34.34a1 1 0 0 1-.81-.37.27.27 0 0 1-.05-.16.28.28 0 0 1 .28-.27.27.27 0 0 1 .21.12.49.49 0 0 0 .36.13c.3 0 .45-.16.45-.32s-.24-.32-.51-.42-.78-.31-.78-.84a.81.81 0 0 1 .88-.79 1 1 0 0 1 .81.42.26.26 0 0 1 0 .15.28.28 0 0 1-.28.27.24.24 0 0 1-.21-.13.46.46 0 0 0-.36-.18c-.21 0-.34.1-.34.25s.21.26.46.35.84.33.84.91a.91.91 0 0 1-.95.88z"/></g></svg>