<svg xmlns="http://www.w3.org/2000/svg" viewBox="0 0 50 50"><defs><style>.cls-1{fill:url(#linear-gradient);}.cls-2{fill:url(#linear-gradient-2);}.cls-3{fill:url(#linear-gradient-3);}.cls-4{fill:url(#linear-gradient-4);}</style><linearGradient id="linear-gradient" x1="33.87" y1="24.3" x2="24.66" y2="28.41" gradientUnits="userSpaceOnUse"><stop offset="0" stop-color="#fc0"/><stop offset="1" stop-color="#c90"/></linearGradient><linearGradient id="linear-gradient-2" x1="13.63" y1="18.87" x2="24.1" y2="33.19" gradientUnits="userSpaceOnUse"><stop offset="0" stop-color="#69c"/><stop offset="1" stop-color="#36c"/></linearGradient><linearGradient id="linear-gradient-3" x1="34.52" y1="10.12" x2="34.52" y2="39.88" gradientUnits="userSpaceOnUse"><stop offset="0" stop-color="#57b149"/><stop offset="1" stop-color="#39823e"/></linearGradient><linearGradient id="linear-gradient-4" x1="23.71" y1="13.8" x2="23.71" y2="36.45" gradientUnits="userSpaceOnUse"><stop offset="0" stop-color="#de1f26"/><stop offset="1" stop-color="#c00"/></linearGradient></defs><title>payment-wallet</title><g id="google-wallet"><path class="cls-1" d="M33.27 39.88h-.17a3.14 3.14 0 0 1-3-3.31 18.55 18.55 0 0 0-8.63-16.8 3.16 3.16 0 0 1-1.24-4.28 3.12 3.12 0 0 1 4.25-1.25 24.77 24.77 0 0 1 11.91 22.65 3.14 3.14 0 0 1-3.12 2.99z"/><path class="cls-2" d="M22.58 36.17a2.9 2.9 0 0 1-3-2.91c0-6.71-6.9-10.5-7-10.54a3 3 0 0 1-1.21-4.08 3 3 0 0 1 4.11-1.19c.42.23 10.2 5.54 10.13 15.84a2.92 2.92 0 0 1-3.03 2.88z"/><path class="cls-3" d="M33.22 39.88a3.18 3.18 0 0 1-2.88-4.5 25 25 0 0 0 .19-20.61 3.17 3.17 0 1 1 5.63-2.93 31.33 31.33 0 0 1-.05 26.16 3.18 3.18 0 0 1-2.89 1.88z"/><path class="cls-4" d="M22.58 36.45a3 3 0 0 1-2.48-4.77c3.81-5.42.05-13.43 0-13.51a3 3 0 0 1 5.44-2.67c.22.46 5.41 11.26-.49 19.67a3 3 0 0 1-2.47 1.28z"/></g></svg>