<svg xmlns="http://www.w3.org/2000/svg" viewBox="0 0 200 63.3">
    <style type="text/css">.st0{fill:#434343;} .st1{fill:#434343;}</style>
    <path class="st0" d="M1.3 38.5v-23.9h5.3v23.8c0 .1-5.3.1-5.3.1zM13.3 2.2h94.7v4.3h-94.7v-4.3zM48.2 48.3c-3.4 0-6.5-.7-8.4-1.3l.8-4.5c2 .5 5 .9 6.7.9 3.5 0 5.9-.6 5.9-4.8.1-.1 0-1.2 0-1.3-1.1.9-2.6 1.6-4.3 1.6-5.1 0-10.8-1.4-10.8-12.2 0-8.1 5.2-12.4 11.6-12.4 2.5 0 5.3.3 8.7.9v24.1c.1 6.6-5.5 9-10.2 9zm5-29c-.9-.1-1.9-.3-3.5-.3-4.5 0-6.3 3.3-6.3 7.7 0 5.7 2.3 7.6 5.8 7.6 1.6 0 2.9-.7 3.9-1.2l.1-13.8zM68.8 28.2c0 5.2 3 5.9 7 5.9 1.5 0 4.3-.2 6-.6l.8 4.5c-1.7.6-5.1.9-7.8.9-6.9 0-11.4-2.6-11.4-11.9 0-9.7 4.6-12.9 10.8-12.9 6.4 0 9 4.5 9 12v2.1h-14.4zm5-9.8c-2.3 0-4.6 1.7-4.9 5.7h8.9c0-3.7-1.8-5.7-4-5.7zM114.7 38.5v-23.9h5.3v23.8c.1.1-5.3.1-5.3.1zM141.8 19.8c-1.5-.6-2.8-1-5.1-1-3.4 0-6 2.1-6 7.7 0 5.4 1.3 7.8 7.2 7.8 1.8 0 3-.3 4.5-.6l.7 4.5c-1.7.4-3.2.8-5.6.8-8.9 0-12.3-3.6-12.3-12.5 0-7.6 4.5-12.3 11.5-12.3 3.2 0 5.2.7 6.6 1.5l-1.5 4.1zM156.8 39c-6.8 0-10.6-4.6-10.6-12.2 0-8 4.4-12.7 11-12.7 7.4 0 10.8 4.6 10.8 12.5 0 8.2-4.8 12.4-11.2 12.4zm.2-20.4c-4.3 0-5.5 3.8-5.5 8 0 4.5 1.3 7.8 5.6 7.8s5.4-3.5 5.4-7.8c0-4.1-1.1-8-5.5-8z"/><circle class="st0" cx="4" cy="4.3" r="3.1"/><circle class="st0" cx="117.4" cy="4.3" r="3.1"/><path class="st0" d="M26.1 14c-3.4 0-5.9 2-7.4 3.1l-.2.2c-.5-1.9-1.9-2.5-3.2-2.6h-2.1v23.8h5.4v-17.5c1.1-.6 3.5-2.1 5.7-2.1 3 0 3.6 1.6 3.6 5v14.5h5.3v-15.1c.2-4.9-.3-9.3-7.1-9.3zM100.8 14c-3.4 0-5.9 2-7.4 3.1l-.2.2c-.5-1.9-1.9-2.5-3.2-2.6h-2v23.8h5.4v-17.5c1.1-.6 3.5-2.1 5.7-2.1 3 0 3.6 1.6 3.6 5v14.5h5.3v-15.1c.1-4.9-.4-9.3-7.2-9.3z"/>
    <path class="st1" d="M119.1 58.6c-1.4 0-2.4-.4-3.2-1.2-.8-.8-1.1-1.9-1.1-3.3s.4-2.5 1.1-3.3c.7-.8 1.7-1.2 2.9-1.2 1.1 0 2.1.3 2.7 1 .7.7 1 1.7 1 2.9v1h-5.8c0 .8.3 1.5.7 1.9s1 .7 1.8.7c.5 0 1 0 1.4-.1.4-.1.9-.3 1.4-.5v1.5c-.5.2-.9.4-1.4.5s-.9.1-1.5.1zm-.3-7.6c-.6 0-1.1.2-1.4.6s-.6.9-.6 1.6h3.9c0-.7-.2-1.3-.5-1.6-.4-.4-.9-.6-1.4-.6zM132.4 50.5c0 1.2-.4 2.1-1.2 2.8-.8.6-1.9 1-3.4 1h-1.2v4.3h-1.9v-11.6h3.3c1.4 0 2.5.3 3.2.9.8.6 1.2 1.4 1.2 2.6zm-5.8 2.1h1c1 0 1.7-.2 2.1-.5.5-.3.7-.9.7-1.6 0-.7-.2-1.2-.6-1.5-.4-.3-1-.5-1.9-.5h-1.3v4.1zM139.9 58.5l-.4-1.2h-.1c-.4.5-.8.9-1.3 1.1-.4.2-1 .3-1.6.3-.9 0-1.5-.2-2-.7s-.7-1.1-.7-2c0-.9.3-1.6 1-2 .7-.5 1.7-.7 3-.7h1.5v-.5c0-.6-.1-1-.4-1.2-.3-.3-.7-.4-1.2-.4-.4 0-.9.1-1.3.2s-.8.3-1.2.5l-.6-1.3 1.5-.6c.6-.1 1.1-.2 1.6-.2 1.1 0 1.9.2 2.5.7.6.5.8 1.2.8 2.3v5.9h-1.1zm-2.7-1.3c.7 0 1.2-.2 1.6-.6.4-.4.6-.9.6-1.6v-.8h-1.1c-.9 0-1.5.2-1.9.4-.4.3-.6.7-.6 1.2 0 .4.1.7.3.9.3.4.6.5 1.1.5zM142.5 49.8h2l1.8 4.9c.3.7.4 1.4.5 2h.1c0-.3.1-.6.3-1 .1-.4.8-2.4 2-5.9h2l-3.7 9.8c-.7 1.8-1.8 2.7-3.4 2.7-.4 0-.8 0-1.2-.1v-1.5c.3.1.6.1 1 .1.9 0 1.5-.5 1.9-1.5l.3-.8-3.6-8.7zM159.8 58.5h-1.9v-5.4c0-.7-.1-1.2-.4-1.5-.3-.3-.6-.5-1.2-.5-.7 0-1.2.2-1.6.7-.3.5-.5 1.2-.5 2.3v4.3h-1.8v-8.7h1.4l.3 1.1h.1c.2-.4.6-.7 1-1 .5-.2 1-.3 1.5-.3 1.3 0 2.2.5 2.7 1.4h.1c.3-.4.6-.8 1.1-1 .5-.2 1-.4 1.6-.4 1 0 1.8.3 2.3.8.5.5.7 1.3.7 2.4v5.7h-1.8v-5.4c0-.7-.1-1.2-.4-1.5s-.6-.5-1.2-.5c-.7 0-1.2.2-1.6.7-.3.4-.5 1.1-.5 2.1v4.7zM171.6 58.6c-1.4 0-2.4-.4-3.2-1.2-.8-.8-1.1-1.9-1.1-3.3s.4-2.5 1.1-3.3c.7-.8 1.7-1.2 2.9-1.2 1.1 0 2.1.3 2.7 1 .7.7 1 1.7 1 2.9v1h-5.8c0 .8.3 1.5.7 1.9s1 .7 1.8.7c.5 0 1 0 1.4-.1.4-.1.9-.3 1.4-.5v1.5c-.5.2-.9.4-1.4.5s-.9.1-1.5.1zm-.3-7.6c-.6 0-1.1.2-1.4.6s-.6.9-.6 1.6h3.9c0-.7-.2-1.3-.5-1.6-.4-.4-.8-.6-1.4-.6zM184.8 58.5h-1.9v-5.3c0-.7-.1-1.2-.4-1.5-.3-.3-.7-.5-1.3-.5-.8 0-1.4.2-1.7.7s-.5 1.2-.5 2.3v4.3h-1.8v-8.7h1.4l.3 1.1h.1c.3-.4.6-.7 1.1-1 .5-.2 1-.3 1.6-.3 2.1 0 3.1 1.1 3.1 3.2v5.7zM190.6 57.2c.5 0 .9-.1 1.4-.2v1.4c-.2.1-.5.2-.8.2-.3.1-.7.1-1 .1-1.8 0-2.6-.9-2.6-2.8v-4.7h-1.2v-.8l1.3-.7.6-1.8h1.1v1.9h2.5v1.4h-2.5v4.7c0 .4.1.8.3 1s.5.3.9.3zM199.5 56c0 .8-.3 1.5-.9 2s-1.5.7-2.7.7c-1.2 0-2.1-.2-2.8-.5v-1.6c1 .5 2 .7 2.9.7 1.1 0 1.7-.3 1.7-1 0-.2-.1-.4-.2-.5-.1-.1-.3-.3-.6-.5s-.7-.3-1.2-.5c-1-.4-1.7-.8-2-1.2s-.5-.9-.5-1.5c0-.7.3-1.3.9-1.7.6-.4 1.4-.6 2.4-.6s2 .2 2.9.6l-.6 1.4c-.9-.4-1.7-.6-2.4-.6-1 0-1.5.3-1.5.8 0 .3.1.5.4.7.3.2.8.4 1.7.8.7.3 1.2.5 1.6.8s.6.5.7.8c.1.1.2.5.2.9z"/></svg>